M48
;DRILL file {KiCad (2016-08-20 BZR 7083)-product} date Sun Dec  4 23:05:17 2016
;FORMAT={3:3/ absolute / metric / suppress leading zeros}
FMAT,2
METRIC,TZ
T1C0.500
T2C0.700
T3C0.800
T4C0.900
T5C1.000
T6C1.100
T7C1.400
%
G90
G05
M71
T1
X1000Y28200
X1600Y39500
X1600Y10600
X1700Y91600
X1700Y45300
X1900Y64900
X2000Y51800
X4500Y70300
X5100Y98500
X5800Y42600
X6000Y51100
X6400Y93800
X8000Y40000
X8300Y83000
X8300Y74600
X8300Y17400
X8400Y12900
X9100Y64200
X9400Y93800
X10700Y73800
X10900Y56600
X10900Y54400
X11200Y70300
X11600Y88300
X11600Y86200
X12000Y32000
X12100Y1600
X12300Y9000
X13100Y19800
X14200Y59000
X14300Y13300
X14500Y77600
X14900Y92000
X14900Y19800
X15000Y74300
X15300Y86300
X15300Y65300
X15500Y17400
X15900Y88200
X15900Y82100
X15900Y80200
X16000Y71200
X16300Y53400
X16500Y24000
X16900Y45000
X17000Y40900
X17000Y20300
X17800Y92000
X18000Y51600
X18900Y73700
X19200Y54800
X20100Y71400
X21000Y18000
X21200Y13000
X21800Y71000
X22100Y29400
X23600Y40000
X24100Y47300
X24300Y55700
X24300Y53400
X24300Y27500
X24500Y102900
X24500Y95300
X24500Y52200
X24500Y8900
X24600Y1600
X24700Y29100
X25900Y52300
X25900Y13500
X26200Y23500
X26200Y11800
X26600Y80300
X28500Y11800
X29100Y71300
X30300Y104300
X30500Y37500
X30700Y63500
X31100Y75500
X33800Y52800
X34000Y20200
X34600Y98300
X36000Y32000
X36000Y8500
X36500Y75900
X36500Y15100
X36600Y104900
X36700Y1700
X38000Y12900
X38500Y38500
X39300Y101900
X39400Y12800
X39500Y83300
X40800Y24500
X40900Y62600
X41100Y71300
X41200Y40400
X44100Y104100
X44400Y18700
X45500Y10800
X46000Y99400
X46100Y61600
X46100Y53500
X46100Y45700
X46300Y68200
X46400Y80300
T2
X2100Y104440
X2100Y99360
X9400Y72740
X9400Y67660
X12960Y48400
X12960Y46200
X17500Y104440
X17500Y99360
X18040Y48400
X18040Y46200
X18260Y71000
X19200Y33040
X19200Y27960
X23340Y71000
X24260Y17400
X29230Y65665
X29340Y17400
X30500Y66935
X30760Y48400
X31060Y70200
X31770Y65665
X35840Y48400
X36140Y70200
X36660Y78500
X41740Y78500
T3
X3700Y42700
X3700Y40500
X11200Y76000
X11300Y42700
X11300Y40500
X11600Y18700
X11600Y16500
X12226Y78474
X12226Y73526
X14700Y79500
X14700Y72500
X17174Y78474
X17174Y73526
X18200Y76000
X19200Y18700
X19200Y16500
X27600Y76000
X28626Y78474
X28626Y73526
X31100Y79500
X31100Y72500
X31800Y18700
X31800Y16500
X33574Y78474
X33574Y73526
X34600Y76000
X35550Y87050
X36250Y103050
X36450Y81950
X38300Y22700
X38300Y20600
X39400Y18700
X39400Y16500
X41350Y103950
X45900Y22700
X45900Y20600
T4
X5000Y27850
X5000Y25350
X6400Y103150
X6400Y100650
X10350Y84600
X12850Y84600
X13000Y103150
X13000Y100650
X17800Y43500
X18300Y81100
X20490Y56020
X20490Y53480
X20490Y50940
X20490Y48400
X20490Y45860
X20490Y43320
X20490Y40780
X21690Y27510
X21690Y24970
X21690Y22430
X21690Y19890
X28110Y56020
X28110Y53480
X28110Y50940
X28110Y48400
X28110Y45860
X28110Y43320
X28110Y40780
X29310Y27510
X29310Y24970
X29310Y22430
X29310Y19890
X34300Y39800
X37750Y65500
X40250Y65500
X43800Y38050
X43800Y35550
T5
X5000Y21500
X5000Y18500
X6000Y87600
X6000Y84600
X6000Y71900
X6000Y68900
X8800Y22800
X8800Y19800
X9500Y51000
X9500Y25000
X10500Y48700
X10500Y45700
X11100Y97200
X11100Y92200
X12000Y51000
X12000Y25000
X12600Y22000
X13400Y69700
X13400Y66700
X14200Y89400
X14500Y51000
X14500Y25000
X15600Y22000
X16100Y94700
X17100Y84800
X17200Y89400
X17200Y66100
X18500Y25000
X18500Y22000
X18800Y37700
X19800Y62300
X19800Y59300
X20100Y84800
X20200Y66100
X21000Y81100
X21000Y78100
X21200Y74600
X21500Y88000
X21800Y37700
X21800Y34400
X21800Y31400
X22700Y62300
X22700Y59300
X22720Y104300
X22720Y101300
X23100Y66100
X23500Y84800
X24000Y88000
X24000Y81100
X24000Y78100
X24200Y74600
X25100Y37700
X25100Y34400
X25100Y31400
X25800Y62300
X25800Y59300
X25900Y72000
X25900Y69000
X26100Y66100
X26500Y88000
X26500Y84800
X28100Y37700
X28100Y34400
X28100Y31400
X28600Y82400
X28700Y62300
X28700Y59300
X31400Y45700
X31400Y42800
X31400Y39800
X31600Y82400
X32300Y97180
X32300Y87020
X32800Y22200
X32880Y104300
X32880Y101300
X33500Y51000
X33500Y25000
X34300Y67500
X34300Y64500
X34400Y45700
X35800Y22200
X35900Y100480
X35900Y90320
X36000Y51000
X36000Y25000
X38500Y51000
X38500Y25000
X41330Y96180
X41330Y93640
X41330Y91100
X41330Y88560
X41330Y86020
X42900Y28800
X42900Y25700
X43870Y96180
X43870Y93640
X43870Y91100
X43870Y88560
X43870Y86020
X45900Y28800
X45900Y25700
T6
X6000Y13826
X6000Y5698
X6000Y2650
X18000Y13826
X18000Y5698
X18000Y2650
X30000Y13826
X30000Y5698
X30000Y2650
X42000Y13826
X42000Y5698
X42000Y2650
T7
X7000Y58000
X7000Y32000
X17000Y58000
X17000Y32000
X19000Y95000
X29000Y95000
X31000Y58000
X31000Y32000
X41000Y58000
X41000Y32000
T4
X5600Y80540G85X6400Y80540
G05
X5600Y78000G85X6400Y78000
G05
X5600Y75460G85X6400Y75460
G05
T0
M30
