G04 #@! TF.FileFunction,Legend,Bot*
%FSLAX46Y46*%
G04 Gerber Fmt 4.6, Leading zero omitted, Abs format (unit mm)*
G04 Created by KiCad (PCBNEW (2016-08-20 BZR 7083)-product) date Sun Dec  4 23:05:15 2016*
%MOMM*%
%LPD*%
G01*
G04 APERTURE LIST*
%ADD10C,0.100000*%
%ADD11C,0.150000*%
%ADD12C,0.200000*%
%ADD13C,0.120000*%
G04 APERTURE END LIST*
D10*
X15750000Y14316667D02*
X15716666Y14350000D01*
X15650000Y14383334D01*
X15483333Y14383334D01*
X15416666Y14350000D01*
X15383333Y14316667D01*
X15350000Y14250000D01*
X15350000Y14183334D01*
X15383333Y14083334D01*
X15783333Y13683334D01*
X15350000Y13683334D01*
X14583333Y13683334D02*
X14216666Y14150000D01*
X14583333Y14150000D02*
X14216666Y13683334D01*
X46416666Y17950000D02*
X46416666Y17483334D01*
X46583333Y18216667D02*
X46750000Y17716667D01*
X46316666Y17716667D01*
X45583333Y17483334D02*
X45216666Y17950000D01*
X45583333Y17950000D02*
X45216666Y17483334D01*
X29350000Y66950000D02*
X29116666Y66950000D01*
X29016666Y66583334D02*
X29350000Y66583334D01*
X29350000Y67283334D01*
X29016666Y67283334D01*
X31483333Y66650000D02*
X31516666Y66616667D01*
X31616666Y66583334D01*
X31683333Y66583334D01*
X31783333Y66616667D01*
X31850000Y66683334D01*
X31883333Y66750000D01*
X31916666Y66883334D01*
X31916666Y66983334D01*
X31883333Y67116667D01*
X31850000Y67183334D01*
X31783333Y67250000D01*
X31683333Y67283334D01*
X31616666Y67283334D01*
X31516666Y67250000D01*
X31483333Y67216667D01*
X30350000Y65650000D02*
X30250000Y65616667D01*
X30216666Y65583334D01*
X30183333Y65516667D01*
X30183333Y65416667D01*
X30216666Y65350000D01*
X30250000Y65316667D01*
X30316666Y65283334D01*
X30583333Y65283334D01*
X30583333Y65983334D01*
X30350000Y65983334D01*
X30283333Y65950000D01*
X30250000Y65916667D01*
X30216666Y65850000D01*
X30216666Y65783334D01*
X30250000Y65716667D01*
X30283333Y65683334D01*
X30350000Y65650000D01*
X30583333Y65650000D01*
X32300000Y68316667D02*
X32266666Y68350000D01*
X32200000Y68383334D01*
X32033333Y68383334D01*
X31966666Y68350000D01*
X31933333Y68316667D01*
X31900000Y68250000D01*
X31900000Y68183334D01*
X31933333Y68083334D01*
X32333333Y67683334D01*
X31900000Y67683334D01*
X31600000Y67683334D02*
X31600000Y68383334D01*
X31200000Y67683334D01*
X31200000Y68383334D01*
X30933333Y68383334D02*
X30500000Y68383334D01*
X30733333Y68116667D01*
X30633333Y68116667D01*
X30566666Y68083334D01*
X30533333Y68050000D01*
X30500000Y67983334D01*
X30500000Y67816667D01*
X30533333Y67750000D01*
X30566666Y67716667D01*
X30633333Y67683334D01*
X30833333Y67683334D01*
X30900000Y67716667D01*
X30933333Y67750000D01*
X30166666Y67683334D02*
X30033333Y67683334D01*
X29966666Y67716667D01*
X29933333Y67750000D01*
X29866666Y67850000D01*
X29833333Y67983334D01*
X29833333Y68250000D01*
X29866666Y68316667D01*
X29900000Y68350000D01*
X29966666Y68383334D01*
X30100000Y68383334D01*
X30166666Y68350000D01*
X30200000Y68316667D01*
X30233333Y68250000D01*
X30233333Y68083334D01*
X30200000Y68016667D01*
X30166666Y67983334D01*
X30100000Y67950000D01*
X29966666Y67950000D01*
X29900000Y67983334D01*
X29866666Y68016667D01*
X29833333Y68083334D01*
X29400000Y68383334D02*
X29333333Y68383334D01*
X29266666Y68350000D01*
X29233333Y68316667D01*
X29200000Y68250000D01*
X29166666Y68116667D01*
X29166666Y67950000D01*
X29200000Y67816667D01*
X29233333Y67750000D01*
X29266666Y67716667D01*
X29333333Y67683334D01*
X29400000Y67683334D01*
X29466666Y67716667D01*
X29500000Y67750000D01*
X29533333Y67816667D01*
X29566666Y67950000D01*
X29566666Y68116667D01*
X29533333Y68250000D01*
X29500000Y68316667D01*
X29466666Y68350000D01*
X29400000Y68383334D01*
X28566666Y68150000D02*
X28566666Y67683334D01*
X28733333Y68416667D02*
X28900000Y67916667D01*
X28466666Y67916667D01*
X34300000Y98983334D02*
X34700000Y98983334D01*
X34500000Y98983334D02*
X34500000Y99683334D01*
X34566666Y99583334D01*
X34633333Y99516667D01*
X34700000Y99483334D01*
X34000000Y98983334D02*
X34000000Y99683334D01*
X33600000Y98983334D01*
X33600000Y99683334D01*
X32966666Y99450000D02*
X32966666Y98983334D01*
X33133333Y99716667D02*
X33300000Y99216667D01*
X32866666Y99216667D01*
X32466666Y99683334D02*
X32400000Y99683334D01*
X32333333Y99650000D01*
X32300000Y99616667D01*
X32266666Y99550000D01*
X32233333Y99416667D01*
X32233333Y99250000D01*
X32266666Y99116667D01*
X32300000Y99050000D01*
X32333333Y99016667D01*
X32400000Y98983334D01*
X32466666Y98983334D01*
X32533333Y99016667D01*
X32566666Y99050000D01*
X32600000Y99116667D01*
X32633333Y99250000D01*
X32633333Y99416667D01*
X32600000Y99550000D01*
X32566666Y99616667D01*
X32533333Y99650000D01*
X32466666Y99683334D01*
X31800000Y99683334D02*
X31733333Y99683334D01*
X31666666Y99650000D01*
X31633333Y99616667D01*
X31600000Y99550000D01*
X31566666Y99416667D01*
X31566666Y99250000D01*
X31600000Y99116667D01*
X31633333Y99050000D01*
X31666666Y99016667D01*
X31733333Y98983334D01*
X31800000Y98983334D01*
X31866666Y99016667D01*
X31900000Y99050000D01*
X31933333Y99116667D01*
X31966666Y99250000D01*
X31966666Y99416667D01*
X31933333Y99550000D01*
X31900000Y99616667D01*
X31866666Y99650000D01*
X31800000Y99683334D01*
X30900000Y98983334D02*
X31300000Y98983334D01*
X31100000Y98983334D02*
X31100000Y99683334D01*
X31166666Y99583334D01*
X31233333Y99516667D01*
X31300000Y99483334D01*
X30300000Y91083334D02*
X30700000Y91083334D01*
X30500000Y91083334D02*
X30500000Y91783334D01*
X30566666Y91683334D01*
X30633333Y91616667D01*
X30700000Y91583334D01*
X30000000Y91083334D02*
X30000000Y91783334D01*
X29600000Y91083334D01*
X29600000Y91783334D01*
X28966666Y91550000D02*
X28966666Y91083334D01*
X29133333Y91816667D02*
X29300000Y91316667D01*
X28866666Y91316667D01*
X28466666Y91783334D02*
X28400000Y91783334D01*
X28333333Y91750000D01*
X28300000Y91716667D01*
X28266666Y91650000D01*
X28233333Y91516667D01*
X28233333Y91350000D01*
X28266666Y91216667D01*
X28300000Y91150000D01*
X28333333Y91116667D01*
X28400000Y91083334D01*
X28466666Y91083334D01*
X28533333Y91116667D01*
X28566666Y91150000D01*
X28600000Y91216667D01*
X28633333Y91350000D01*
X28633333Y91516667D01*
X28600000Y91650000D01*
X28566666Y91716667D01*
X28533333Y91750000D01*
X28466666Y91783334D01*
X27800000Y91783334D02*
X27733333Y91783334D01*
X27666666Y91750000D01*
X27633333Y91716667D01*
X27600000Y91650000D01*
X27566666Y91516667D01*
X27566666Y91350000D01*
X27600000Y91216667D01*
X27633333Y91150000D01*
X27666666Y91116667D01*
X27733333Y91083334D01*
X27800000Y91083334D01*
X27866666Y91116667D01*
X27900000Y91150000D01*
X27933333Y91216667D01*
X27966666Y91350000D01*
X27966666Y91516667D01*
X27933333Y91650000D01*
X27900000Y91716667D01*
X27866666Y91750000D01*
X27800000Y91783334D01*
X26900000Y91083334D02*
X27300000Y91083334D01*
X27100000Y91083334D02*
X27100000Y91783334D01*
X27166666Y91683334D01*
X27233333Y91616667D01*
X27300000Y91583334D01*
X46128571Y67128572D02*
X46661904Y66976191D01*
X46280952Y66823810D01*
X46661904Y66671429D01*
X46128571Y66519048D01*
X46128571Y66290477D02*
X46661904Y66138096D01*
X46280952Y65985715D01*
X46661904Y65833334D01*
X46128571Y65680953D01*
X46128571Y65452381D02*
X46661904Y65300000D01*
X46280952Y65147620D01*
X46661904Y64995239D01*
X46128571Y64842858D01*
X46585714Y64538096D02*
X46623809Y64500000D01*
X46661904Y64538096D01*
X46623809Y64576191D01*
X46585714Y64538096D01*
X46661904Y64538096D01*
X46623809Y63852381D02*
X46661904Y63928572D01*
X46661904Y64080953D01*
X46623809Y64157143D01*
X46547619Y64195239D01*
X46242857Y64195239D01*
X46166666Y64157143D01*
X46128571Y64080953D01*
X46128571Y63928572D01*
X46166666Y63852381D01*
X46242857Y63814286D01*
X46319047Y63814286D01*
X46395238Y64195239D01*
X46661904Y63471429D02*
X46128571Y63471429D01*
X46280952Y63471429D02*
X46204761Y63433334D01*
X46166666Y63395239D01*
X46128571Y63319048D01*
X46128571Y63242858D01*
X46661904Y62976191D02*
X46128571Y62976191D01*
X45861904Y62976191D02*
X45900000Y63014286D01*
X45938095Y62976191D01*
X45900000Y62938096D01*
X45861904Y62976191D01*
X45938095Y62976191D01*
X46623809Y62252381D02*
X46661904Y62328572D01*
X46661904Y62480953D01*
X46623809Y62557143D01*
X46585714Y62595239D01*
X46509523Y62633334D01*
X46280952Y62633334D01*
X46204761Y62595239D01*
X46166666Y62557143D01*
X46128571Y62480953D01*
X46128571Y62328572D01*
X46166666Y62252381D01*
X46661904Y61566667D02*
X46242857Y61566667D01*
X46166666Y61604762D01*
X46128571Y61680953D01*
X46128571Y61833334D01*
X46166666Y61909524D01*
X46623809Y61566667D02*
X46661904Y61642858D01*
X46661904Y61833334D01*
X46623809Y61909524D01*
X46547619Y61947620D01*
X46471428Y61947620D01*
X46395238Y61909524D01*
X46357142Y61833334D01*
X46357142Y61642858D01*
X46319047Y61566667D01*
X46623809Y61223810D02*
X46661904Y61147620D01*
X46661904Y60995239D01*
X46623809Y60919048D01*
X46547619Y60880953D01*
X46509523Y60880953D01*
X46433333Y60919048D01*
X46395238Y60995239D01*
X46395238Y61109524D01*
X46357142Y61185715D01*
X46280952Y61223810D01*
X46242857Y61223810D01*
X46166666Y61185715D01*
X46128571Y61109524D01*
X46128571Y60995239D01*
X46166666Y60919048D01*
X46128571Y60614286D02*
X46661904Y60423810D01*
X46128571Y60233334D02*
X46661904Y60423810D01*
X46852380Y60500000D01*
X46890476Y60538096D01*
X46928571Y60614286D01*
X46128571Y59928572D02*
X46661904Y59928572D01*
X46204761Y59928572D02*
X46166666Y59890477D01*
X46128571Y59814286D01*
X46128571Y59700000D01*
X46166666Y59623810D01*
X46242857Y59585715D01*
X46661904Y59585715D01*
X46128571Y59319048D02*
X46128571Y59014286D01*
X45861904Y59204762D02*
X46547619Y59204762D01*
X46623809Y59166667D01*
X46661904Y59090477D01*
X46661904Y59014286D01*
X46661904Y58747620D02*
X45861904Y58747620D01*
X46661904Y58404762D02*
X46242857Y58404762D01*
X46166666Y58442858D01*
X46128571Y58519048D01*
X46128571Y58633334D01*
X46166666Y58709524D01*
X46204761Y58747620D01*
X46623809Y58061905D02*
X46661904Y57985715D01*
X46661904Y57833334D01*
X46623809Y57757143D01*
X46547619Y57719048D01*
X46509523Y57719048D01*
X46433333Y57757143D01*
X46395238Y57833334D01*
X46395238Y57947620D01*
X46357142Y58023810D01*
X46280952Y58061905D01*
X46242857Y58061905D01*
X46166666Y58023810D01*
X46128571Y57947620D01*
X46128571Y57833334D01*
X46166666Y57757143D01*
X46585714Y57376191D02*
X46623809Y57338096D01*
X46661904Y57376191D01*
X46623809Y57414286D01*
X46585714Y57376191D01*
X46661904Y57376191D01*
X46661904Y56880953D02*
X46623809Y56957143D01*
X46547619Y56995239D01*
X45861904Y56995239D01*
X46128571Y56652381D02*
X46661904Y56461905D01*
X46128571Y56271429D01*
D11*
X40692857Y51776191D02*
X40692857Y51442858D01*
X41478571Y51300000D02*
X41478571Y51776191D01*
X39978571Y51776191D01*
X39978571Y51300000D01*
X41478571Y50871429D02*
X40478571Y50871429D01*
X40764285Y50871429D02*
X40621428Y50823810D01*
X40550000Y50776191D01*
X40478571Y50680953D01*
X40478571Y50585715D01*
X41478571Y50252381D02*
X40478571Y50252381D01*
X39978571Y50252381D02*
X40050000Y50300000D01*
X40121428Y50252381D01*
X40050000Y50204762D01*
X39978571Y50252381D01*
X40121428Y50252381D01*
X41407142Y49347620D02*
X41478571Y49442858D01*
X41478571Y49633334D01*
X41407142Y49728572D01*
X41335714Y49776191D01*
X41192857Y49823810D01*
X40764285Y49823810D01*
X40621428Y49776191D01*
X40550000Y49728572D01*
X40478571Y49633334D01*
X40478571Y49442858D01*
X40550000Y49347620D01*
X41478571Y48490477D02*
X40692857Y48490477D01*
X40550000Y48538096D01*
X40478571Y48633334D01*
X40478571Y48823810D01*
X40550000Y48919048D01*
X41407142Y48490477D02*
X41478571Y48585715D01*
X41478571Y48823810D01*
X41407142Y48919048D01*
X41264285Y48966667D01*
X41121428Y48966667D01*
X40978571Y48919048D01*
X40907142Y48823810D01*
X40907142Y48585715D01*
X40835714Y48490477D01*
X41407142Y47300000D02*
X41478571Y47157143D01*
X41478571Y46919048D01*
X41407142Y46823810D01*
X41335714Y46776191D01*
X41192857Y46728572D01*
X41050000Y46728572D01*
X40907142Y46776191D01*
X40835714Y46823810D01*
X40764285Y46919048D01*
X40692857Y47109524D01*
X40621428Y47204762D01*
X40550000Y47252381D01*
X40407142Y47300000D01*
X40264285Y47300000D01*
X40121428Y47252381D01*
X40050000Y47204762D01*
X39978571Y47109524D01*
X39978571Y46871429D01*
X40050000Y46728572D01*
X40478571Y46395239D02*
X41478571Y46157143D01*
X40478571Y45919048D02*
X41478571Y46157143D01*
X41835714Y46252381D01*
X41907142Y46300000D01*
X41978571Y46395239D01*
X40478571Y45538096D02*
X41478571Y45538096D01*
X40621428Y45538096D02*
X40550000Y45490477D01*
X40478571Y45395239D01*
X40478571Y45252381D01*
X40550000Y45157143D01*
X40692857Y45109524D01*
X41478571Y45109524D01*
X40478571Y44776191D02*
X40478571Y44395239D01*
X39978571Y44633334D02*
X41264285Y44633334D01*
X41407142Y44585715D01*
X41478571Y44490477D01*
X41478571Y44395239D01*
X41478571Y44061905D02*
X39978571Y44061905D01*
X41478571Y43633334D02*
X40692857Y43633334D01*
X40550000Y43680953D01*
X40478571Y43776191D01*
X40478571Y43919048D01*
X40550000Y44014286D01*
X40621428Y44061905D01*
X41407142Y43204762D02*
X41478571Y43109524D01*
X41478571Y42919048D01*
X41407142Y42823810D01*
X41264285Y42776191D01*
X41192857Y42776191D01*
X41050000Y42823810D01*
X40978571Y42919048D01*
X40978571Y43061905D01*
X40907142Y43157143D01*
X40764285Y43204762D01*
X40692857Y43204762D01*
X40550000Y43157143D01*
X40478571Y43061905D01*
X40478571Y42919048D01*
X40550000Y42823810D01*
X43878571Y53847620D02*
X42378571Y53847620D01*
X42378571Y53466667D01*
X42450000Y53371429D01*
X42521428Y53323810D01*
X42664285Y53276191D01*
X42878571Y53276191D01*
X43021428Y53323810D01*
X43092857Y53371429D01*
X43164285Y53466667D01*
X43164285Y53847620D01*
X43878571Y52704762D02*
X43807142Y52800000D01*
X43735714Y52847620D01*
X43592857Y52895239D01*
X43164285Y52895239D01*
X43021428Y52847620D01*
X42950000Y52800000D01*
X42878571Y52704762D01*
X42878571Y52561905D01*
X42950000Y52466667D01*
X43021428Y52419048D01*
X43164285Y52371429D01*
X43592857Y52371429D01*
X43735714Y52419048D01*
X43807142Y52466667D01*
X43878571Y52561905D01*
X43878571Y52704762D01*
X43878571Y51800000D02*
X43807142Y51895239D01*
X43664285Y51942858D01*
X42378571Y51942858D01*
X43878571Y51419048D02*
X42878571Y51419048D01*
X42378571Y51419048D02*
X42450000Y51466667D01*
X42521428Y51419048D01*
X42450000Y51371429D01*
X42378571Y51419048D01*
X42521428Y51419048D01*
X42878571Y51038096D02*
X43878571Y50800000D01*
X42878571Y50561905D01*
X43878571Y50038096D02*
X43807142Y50133334D01*
X43735714Y50180953D01*
X43592857Y50228572D01*
X43164285Y50228572D01*
X43021428Y50180953D01*
X42950000Y50133334D01*
X42878571Y50038096D01*
X42878571Y49895239D01*
X42950000Y49800000D01*
X43021428Y49752381D01*
X43164285Y49704762D01*
X43592857Y49704762D01*
X43735714Y49752381D01*
X43807142Y49800000D01*
X43878571Y49895239D01*
X43878571Y50038096D01*
X43878571Y49276191D02*
X42378571Y49276191D01*
X43307142Y49180953D02*
X43878571Y48895239D01*
X42878571Y48895239D02*
X43450000Y49276191D01*
X43807142Y48514286D02*
X43878571Y48419048D01*
X43878571Y48228572D01*
X43807142Y48133334D01*
X43664285Y48085715D01*
X43592857Y48085715D01*
X43450000Y48133334D01*
X43378571Y48228572D01*
X43378571Y48371429D01*
X43307142Y48466667D01*
X43164285Y48514286D01*
X43092857Y48514286D01*
X42950000Y48466667D01*
X42878571Y48371429D01*
X42878571Y48228572D01*
X42950000Y48133334D01*
X42378571Y47038096D02*
X43878571Y46704762D01*
X42378571Y46371429D01*
X43735714Y45466667D02*
X43807142Y45514286D01*
X43878571Y45657143D01*
X43878571Y45752381D01*
X43807142Y45895239D01*
X43664285Y45990477D01*
X43521428Y46038096D01*
X43235714Y46085715D01*
X43021428Y46085715D01*
X42735714Y46038096D01*
X42592857Y45990477D01*
X42450000Y45895239D01*
X42378571Y45752381D01*
X42378571Y45657143D01*
X42450000Y45514286D01*
X42521428Y45466667D01*
X43092857Y44704762D02*
X43092857Y45038096D01*
X43878571Y45038096D02*
X42378571Y45038096D01*
X42378571Y44561905D01*
X42878571Y43514286D02*
X43878571Y43276191D01*
X42878571Y43038096D01*
X43878571Y42133334D02*
X43878571Y42704762D01*
X43878571Y42419048D02*
X42378571Y42419048D01*
X42592857Y42514286D01*
X42735714Y42609524D01*
X42807142Y42704762D01*
X43735714Y41704762D02*
X43807142Y41657143D01*
X43878571Y41704762D01*
X43807142Y41752381D01*
X43735714Y41704762D01*
X43878571Y41704762D01*
X42378571Y41038096D02*
X42378571Y40942858D01*
X42450000Y40847620D01*
X42521428Y40800000D01*
X42664285Y40752381D01*
X42950000Y40704762D01*
X43307142Y40704762D01*
X43592857Y40752381D01*
X43735714Y40800000D01*
X43807142Y40847620D01*
X43878571Y40942858D01*
X43878571Y41038096D01*
X43807142Y41133334D01*
X43735714Y41180953D01*
X43592857Y41228572D01*
X43307142Y41276191D01*
X42950000Y41276191D01*
X42664285Y41228572D01*
X42521428Y41180953D01*
X42450000Y41133334D01*
X42378571Y41038096D01*
X46278571Y50942858D02*
X44778571Y50942858D01*
X44778571Y50704762D01*
X44850000Y50561905D01*
X44992857Y50466667D01*
X45135714Y50419048D01*
X45421428Y50371429D01*
X45635714Y50371429D01*
X45921428Y50419048D01*
X46064285Y50466667D01*
X46207142Y50561905D01*
X46278571Y50704762D01*
X46278571Y50942858D01*
X46207142Y49561905D02*
X46278571Y49657143D01*
X46278571Y49847620D01*
X46207142Y49942858D01*
X46064285Y49990477D01*
X45492857Y49990477D01*
X45350000Y49942858D01*
X45278571Y49847620D01*
X45278571Y49657143D01*
X45350000Y49561905D01*
X45492857Y49514286D01*
X45635714Y49514286D01*
X45778571Y49990477D01*
X46207142Y48657143D02*
X46278571Y48752381D01*
X46278571Y48942858D01*
X46207142Y49038096D01*
X46135714Y49085715D01*
X45992857Y49133334D01*
X45564285Y49133334D01*
X45421428Y49085715D01*
X45350000Y49038096D01*
X45278571Y48942858D01*
X45278571Y48752381D01*
X45350000Y48657143D01*
X46135714Y48228572D02*
X46207142Y48180953D01*
X46278571Y48228572D01*
X46207142Y48276191D01*
X46135714Y48228572D01*
X46278571Y48228572D01*
X44921428Y47038096D02*
X44850000Y46990477D01*
X44778571Y46895239D01*
X44778571Y46657143D01*
X44850000Y46561905D01*
X44921428Y46514286D01*
X45064285Y46466667D01*
X45207142Y46466667D01*
X45421428Y46514286D01*
X46278571Y47085715D01*
X46278571Y46466667D01*
X44778571Y45847620D02*
X44778571Y45752381D01*
X44850000Y45657143D01*
X44921428Y45609524D01*
X45064285Y45561905D01*
X45350000Y45514286D01*
X45707142Y45514286D01*
X45992857Y45561905D01*
X46135714Y45609524D01*
X46207142Y45657143D01*
X46278571Y45752381D01*
X46278571Y45847620D01*
X46207142Y45942858D01*
X46135714Y45990477D01*
X45992857Y46038096D01*
X45707142Y46085715D01*
X45350000Y46085715D01*
X45064285Y46038096D01*
X44921428Y45990477D01*
X44850000Y45942858D01*
X44778571Y45847620D01*
X46278571Y44561905D02*
X46278571Y45133334D01*
X46278571Y44847620D02*
X44778571Y44847620D01*
X44992857Y44942858D01*
X45135714Y45038096D01*
X45207142Y45133334D01*
X44778571Y43704762D02*
X44778571Y43895239D01*
X44850000Y43990477D01*
X44921428Y44038096D01*
X45135714Y44133334D01*
X45421428Y44180953D01*
X45992857Y44180953D01*
X46135714Y44133334D01*
X46207142Y44085715D01*
X46278571Y43990477D01*
X46278571Y43800000D01*
X46207142Y43704762D01*
X46135714Y43657143D01*
X45992857Y43609524D01*
X45635714Y43609524D01*
X45492857Y43657143D01*
X45421428Y43704762D01*
X45350000Y43800000D01*
X45350000Y43990477D01*
X45421428Y44085715D01*
X45492857Y44133334D01*
X45635714Y44180953D01*
D12*
X47314285Y78957143D02*
X46400000Y78957143D01*
X45200000Y78195239D02*
X45885714Y78195239D01*
X45542857Y78195239D02*
X45542857Y80195239D01*
X45657142Y79909524D01*
X45771428Y79719048D01*
X45885714Y79623810D01*
X44742857Y80004762D02*
X44685714Y80100000D01*
X44571428Y80195239D01*
X44285714Y80195239D01*
X44171428Y80100000D01*
X44114285Y80004762D01*
X44057142Y79814286D01*
X44057142Y79623810D01*
X44114285Y79338096D01*
X44800000Y78195239D01*
X44057142Y78195239D01*
X43714285Y80195239D02*
X43314285Y78195239D01*
X42914285Y80195239D01*
X47314285Y103157143D02*
X46400000Y103157143D01*
X46857142Y102395239D02*
X46857142Y103919048D01*
X45200000Y102395239D02*
X45885714Y102395239D01*
X45542857Y102395239D02*
X45542857Y104395239D01*
X45657142Y104109524D01*
X45771428Y103919048D01*
X45885714Y103823810D01*
X44742857Y104204762D02*
X44685714Y104300000D01*
X44571428Y104395239D01*
X44285714Y104395239D01*
X44171428Y104300000D01*
X44114285Y104204762D01*
X44057142Y104014286D01*
X44057142Y103823810D01*
X44114285Y103538096D01*
X44800000Y102395239D01*
X44057142Y102395239D01*
X43714285Y104395239D02*
X43314285Y102395239D01*
X42914285Y104395239D01*
D10*
X15164610Y80748593D02*
G75*
G02X14250000Y80750000I-464610J-4748593D01*
G01*
X14255500Y80762500D02*
X14255500Y81905500D01*
X14255500Y81905500D02*
X15144500Y81905500D01*
X15144500Y81905500D02*
X15144500Y80762500D01*
X26351407Y76464610D02*
G75*
G02X26350000Y75550000I4748593J-464610D01*
G01*
X26337500Y75555500D02*
X25194500Y75555500D01*
X25194500Y75555500D02*
X25194500Y76444500D01*
X25194500Y76444500D02*
X26337500Y76444500D01*
X16965500Y92668000D02*
X16965500Y96732000D01*
X9218500Y91334500D02*
X15632000Y91334500D01*
X15632000Y98065500D02*
X9218500Y98065500D01*
X16965500Y92668000D02*
G75*
G02X15632000Y91334500I-1333500J0D01*
G01*
X15632000Y98065500D02*
G75*
G02X16965500Y96732000I0J-1333500D01*
G01*
X9218500Y91334500D02*
X9218500Y98065500D01*
X35053500Y105087500D02*
X42546500Y105087500D01*
X42546500Y105087500D02*
X42546500Y101912500D01*
X42546500Y101912500D02*
X35053500Y101912500D01*
X35053500Y101912500D02*
X35053500Y105087500D01*
X31737000Y99903000D02*
X30467000Y99903000D01*
X30467000Y99903000D02*
X30467000Y100157000D01*
X30467000Y100157000D02*
X25133000Y100157000D01*
X25133000Y100157000D02*
X25133000Y99903000D01*
X25133000Y99903000D02*
X23863000Y99903000D01*
X23863000Y99903000D02*
X23863000Y100792000D01*
X31737000Y100792000D02*
X31737000Y99903000D01*
X31737000Y102697000D02*
X31737000Y101808000D01*
X31737000Y102697000D02*
X30467000Y102697000D01*
X30467000Y102697000D02*
X30467000Y102443000D01*
X30467000Y102443000D02*
X25133000Y102443000D01*
X25133000Y102443000D02*
X25133000Y102697000D01*
X25133000Y102697000D02*
X23863000Y102697000D01*
X23863000Y102697000D02*
X23863000Y101808000D01*
X31737000Y102903000D02*
X30467000Y102903000D01*
X30467000Y102903000D02*
X30467000Y103157000D01*
X30467000Y103157000D02*
X25133000Y103157000D01*
X25133000Y103157000D02*
X25133000Y102903000D01*
X25133000Y102903000D02*
X23863000Y102903000D01*
X23863000Y102903000D02*
X23863000Y103792000D01*
X31737000Y103792000D02*
X31737000Y102903000D01*
X31737000Y105697000D02*
X31737000Y104808000D01*
X31737000Y105697000D02*
X30467000Y105697000D01*
X30467000Y105697000D02*
X30467000Y105443000D01*
X30467000Y105443000D02*
X25133000Y105443000D01*
X25133000Y105443000D02*
X25133000Y105697000D01*
X25133000Y105697000D02*
X23863000Y105697000D01*
X23863000Y105697000D02*
X23863000Y104808000D01*
G36*
X46326647Y74832782D02*
X46496201Y74834600D01*
X46799114Y74843211D01*
X47019056Y74858139D01*
X47174571Y74881599D01*
X47284205Y74915808D01*
X47319249Y74932933D01*
X47480858Y75074904D01*
X47597219Y75283932D01*
X47659154Y75532090D01*
X47657483Y75791451D01*
X47635856Y75896094D01*
X47562017Y76072284D01*
X47462363Y76186256D01*
X47353502Y76221279D01*
X47320746Y76213590D01*
X47256283Y76167970D01*
X47243587Y76086493D01*
X47282518Y75948178D01*
X47318367Y75858147D01*
X47368854Y75697118D01*
X47363346Y75553616D01*
X47343534Y75476969D01*
X47274317Y75307877D01*
X47175512Y75208097D01*
X47048329Y75154312D01*
X46974585Y75138476D01*
X46958657Y75171282D01*
X46989977Y75275603D01*
X46990970Y75278453D01*
X47029541Y75490241D01*
X47017489Y75721540D01*
X46960573Y75932546D01*
X46876197Y76071723D01*
X46760293Y76182417D01*
X46644259Y76252569D01*
X46496774Y76294327D01*
X46286516Y76319837D01*
X46223404Y76324878D01*
X45952595Y76328625D01*
X45768668Y76293144D01*
X45674697Y76219300D01*
X45662400Y76167000D01*
X45707433Y76078116D01*
X45844097Y76020088D01*
X46074736Y75992155D01*
X46209986Y75989200D01*
X46415238Y75982733D01*
X46545557Y75959621D01*
X46627008Y75914300D01*
X46645126Y75896300D01*
X46711000Y75759085D01*
X46727673Y75577161D01*
X46696022Y75394219D01*
X46632576Y75271531D01*
X46571079Y75210566D01*
X46490193Y75172227D01*
X46364103Y75149543D01*
X46166989Y75135542D01*
X46120852Y75133355D01*
X45898582Y75118168D01*
X45760834Y75094684D01*
X45690636Y75059210D01*
X45675822Y75036506D01*
X45667619Y74956496D01*
X45719470Y74898366D01*
X45840506Y74859868D01*
X46039855Y74838756D01*
X46326647Y74832782D01*
X46326647Y74832782D01*
X46326647Y74832782D01*
G37*
X46326647Y74832782D02*
X46496201Y74834600D01*
X46799114Y74843211D01*
X47019056Y74858139D01*
X47174571Y74881599D01*
X47284205Y74915808D01*
X47319249Y74932933D01*
X47480858Y75074904D01*
X47597219Y75283932D01*
X47659154Y75532090D01*
X47657483Y75791451D01*
X47635856Y75896094D01*
X47562017Y76072284D01*
X47462363Y76186256D01*
X47353502Y76221279D01*
X47320746Y76213590D01*
X47256283Y76167970D01*
X47243587Y76086493D01*
X47282518Y75948178D01*
X47318367Y75858147D01*
X47368854Y75697118D01*
X47363346Y75553616D01*
X47343534Y75476969D01*
X47274317Y75307877D01*
X47175512Y75208097D01*
X47048329Y75154312D01*
X46974585Y75138476D01*
X46958657Y75171282D01*
X46989977Y75275603D01*
X46990970Y75278453D01*
X47029541Y75490241D01*
X47017489Y75721540D01*
X46960573Y75932546D01*
X46876197Y76071723D01*
X46760293Y76182417D01*
X46644259Y76252569D01*
X46496774Y76294327D01*
X46286516Y76319837D01*
X46223404Y76324878D01*
X45952595Y76328625D01*
X45768668Y76293144D01*
X45674697Y76219300D01*
X45662400Y76167000D01*
X45707433Y76078116D01*
X45844097Y76020088D01*
X46074736Y75992155D01*
X46209986Y75989200D01*
X46415238Y75982733D01*
X46545557Y75959621D01*
X46627008Y75914300D01*
X46645126Y75896300D01*
X46711000Y75759085D01*
X46727673Y75577161D01*
X46696022Y75394219D01*
X46632576Y75271531D01*
X46571079Y75210566D01*
X46490193Y75172227D01*
X46364103Y75149543D01*
X46166989Y75135542D01*
X46120852Y75133355D01*
X45898582Y75118168D01*
X45760834Y75094684D01*
X45690636Y75059210D01*
X45675822Y75036506D01*
X45667619Y74956496D01*
X45719470Y74898366D01*
X45840506Y74859868D01*
X46039855Y74838756D01*
X46326647Y74832782D01*
X46326647Y74832782D01*
G36*
X46578314Y76396540D02*
X46755659Y76437640D01*
X46904916Y76558457D01*
X47007860Y76751750D01*
X47059485Y76997172D01*
X47054789Y77274375D01*
X47013096Y77484481D01*
X46937354Y77685880D01*
X46848694Y77805138D01*
X46754494Y77835285D01*
X46684401Y77794974D01*
X46636752Y77712723D01*
X46661946Y77605334D01*
X46665285Y77597897D01*
X46724403Y77418060D01*
X46754545Y77219601D01*
X46756867Y77026919D01*
X46732526Y76864411D01*
X46682679Y76756475D01*
X46623945Y76725800D01*
X46584268Y76752671D01*
X46555503Y76843205D01*
X46534097Y77012285D01*
X46524210Y77143571D01*
X46484952Y77452557D01*
X46411471Y77670889D01*
X46300636Y77804643D01*
X46155188Y77859232D01*
X45967368Y77837602D01*
X45820137Y77728602D01*
X45718976Y77540204D01*
X45669365Y77280380D01*
X45665267Y77146532D01*
X45685001Y76907706D01*
X45733517Y76705942D01*
X45802888Y76554542D01*
X45885192Y76466812D01*
X45972503Y76456054D01*
X46042144Y76513823D01*
X46082827Y76593803D01*
X46073448Y76687186D01*
X46039168Y76778892D01*
X45988692Y76956827D01*
X45968253Y77154357D01*
X45977484Y77338197D01*
X46016020Y77475063D01*
X46047271Y77516414D01*
X46124100Y77549825D01*
X46177202Y77498446D01*
X46208585Y77357349D01*
X46220259Y77121608D01*
X46220422Y77091578D01*
X46245642Y76799052D01*
X46316760Y76581961D01*
X46429182Y76445920D01*
X46578314Y76396540D01*
X46578314Y76396540D01*
X46578314Y76396540D01*
G37*
X46578314Y76396540D02*
X46755659Y76437640D01*
X46904916Y76558457D01*
X47007860Y76751750D01*
X47059485Y76997172D01*
X47054789Y77274375D01*
X47013096Y77484481D01*
X46937354Y77685880D01*
X46848694Y77805138D01*
X46754494Y77835285D01*
X46684401Y77794974D01*
X46636752Y77712723D01*
X46661946Y77605334D01*
X46665285Y77597897D01*
X46724403Y77418060D01*
X46754545Y77219601D01*
X46756867Y77026919D01*
X46732526Y76864411D01*
X46682679Y76756475D01*
X46623945Y76725800D01*
X46584268Y76752671D01*
X46555503Y76843205D01*
X46534097Y77012285D01*
X46524210Y77143571D01*
X46484952Y77452557D01*
X46411471Y77670889D01*
X46300636Y77804643D01*
X46155188Y77859232D01*
X45967368Y77837602D01*
X45820137Y77728602D01*
X45718976Y77540204D01*
X45669365Y77280380D01*
X45665267Y77146532D01*
X45685001Y76907706D01*
X45733517Y76705942D01*
X45802888Y76554542D01*
X45885192Y76466812D01*
X45972503Y76456054D01*
X46042144Y76513823D01*
X46082827Y76593803D01*
X46073448Y76687186D01*
X46039168Y76778892D01*
X45988692Y76956827D01*
X45968253Y77154357D01*
X45977484Y77338197D01*
X46016020Y77475063D01*
X46047271Y77516414D01*
X46124100Y77549825D01*
X46177202Y77498446D01*
X46208585Y77357349D01*
X46220259Y77121608D01*
X46220422Y77091578D01*
X46245642Y76799052D01*
X46316760Y76581961D01*
X46429182Y76445920D01*
X46578314Y76396540D01*
X46578314Y76396540D01*
G36*
X46578314Y69132140D02*
X46755659Y69173240D01*
X46905265Y69294428D01*
X47008218Y69489215D01*
X47058917Y69738263D01*
X47051763Y70022234D01*
X47033361Y70132136D01*
X46970149Y70362480D01*
X46892539Y70499864D01*
X46795532Y70552492D01*
X46776618Y70553600D01*
X46682778Y70526824D01*
X46647398Y70439751D01*
X46668637Y70282266D01*
X46704808Y70158840D01*
X46746518Y69970155D01*
X46756021Y69780537D01*
X46736205Y69615544D01*
X46689958Y69500735D01*
X46625993Y69461400D01*
X46585439Y69486172D01*
X46556519Y69571107D01*
X46535301Y69732131D01*
X46524616Y69872146D01*
X46489076Y70171067D01*
X46424137Y70382354D01*
X46324558Y70517056D01*
X46185977Y70586005D01*
X46009374Y70582646D01*
X45853307Y70492821D01*
X45741700Y70331607D01*
X45728767Y70297886D01*
X45679900Y70089213D01*
X45666515Y69870340D01*
X45683731Y69657494D01*
X45726665Y69466902D01*
X45790437Y69314790D01*
X45870163Y69217386D01*
X45960963Y69190916D01*
X46047017Y69240046D01*
X46097696Y69304980D01*
X46095628Y69374366D01*
X46047970Y69477962D01*
X45992582Y69646968D01*
X45970116Y69849975D01*
X45980866Y70047221D01*
X46025125Y70198943D01*
X46042434Y70226391D01*
X46115944Y70285170D01*
X46170475Y70245476D01*
X46205377Y70108766D01*
X46219999Y69876500D01*
X46220422Y69827178D01*
X46245642Y69534652D01*
X46316760Y69317561D01*
X46429182Y69181520D01*
X46578314Y69132140D01*
X46578314Y69132140D01*
X46578314Y69132140D01*
G37*
X46578314Y69132140D02*
X46755659Y69173240D01*
X46905265Y69294428D01*
X47008218Y69489215D01*
X47058917Y69738263D01*
X47051763Y70022234D01*
X47033361Y70132136D01*
X46970149Y70362480D01*
X46892539Y70499864D01*
X46795532Y70552492D01*
X46776618Y70553600D01*
X46682778Y70526824D01*
X46647398Y70439751D01*
X46668637Y70282266D01*
X46704808Y70158840D01*
X46746518Y69970155D01*
X46756021Y69780537D01*
X46736205Y69615544D01*
X46689958Y69500735D01*
X46625993Y69461400D01*
X46585439Y69486172D01*
X46556519Y69571107D01*
X46535301Y69732131D01*
X46524616Y69872146D01*
X46489076Y70171067D01*
X46424137Y70382354D01*
X46324558Y70517056D01*
X46185977Y70586005D01*
X46009374Y70582646D01*
X45853307Y70492821D01*
X45741700Y70331607D01*
X45728767Y70297886D01*
X45679900Y70089213D01*
X45666515Y69870340D01*
X45683731Y69657494D01*
X45726665Y69466902D01*
X45790437Y69314790D01*
X45870163Y69217386D01*
X45960963Y69190916D01*
X46047017Y69240046D01*
X46097696Y69304980D01*
X46095628Y69374366D01*
X46047970Y69477962D01*
X45992582Y69646968D01*
X45970116Y69849975D01*
X45980866Y70047221D01*
X46025125Y70198943D01*
X46042434Y70226391D01*
X46115944Y70285170D01*
X46170475Y70245476D01*
X46205377Y70108766D01*
X46219999Y69876500D01*
X46220422Y69827178D01*
X46245642Y69534652D01*
X46316760Y69317561D01*
X46429182Y69181520D01*
X46578314Y69132140D01*
X46578314Y69132140D01*
G36*
X46717171Y73196741D02*
X46899159Y73215202D01*
X46999402Y73265652D01*
X47025898Y73350219D01*
X47024597Y73362096D01*
X47008414Y73417757D01*
X46965227Y73453735D01*
X46874199Y73476644D01*
X46714489Y73493101D01*
X46583206Y73502230D01*
X46316411Y73532384D01*
X46135758Y73588907D01*
X46027053Y73682192D01*
X45976103Y73822630D01*
X45967200Y73953249D01*
X45992550Y74139952D01*
X46076331Y74264760D01*
X46230141Y74336223D01*
X46465574Y74362890D01*
X46523824Y74363600D01*
X46759291Y74368740D01*
X46910669Y74388272D01*
X46995136Y74428367D01*
X47029869Y74495193D01*
X47034000Y74546836D01*
X47034000Y74668400D01*
X46372005Y74668400D01*
X46092879Y74666460D01*
X45899723Y74659486D01*
X45776963Y74645746D01*
X45709024Y74623510D01*
X45680522Y74591554D01*
X45684457Y74490461D01*
X45711041Y74442401D01*
X45744522Y74348288D01*
X45716725Y74268587D01*
X45669538Y74098584D01*
X45668740Y73886349D01*
X45711342Y73678449D01*
X45761764Y73566261D01*
X45898876Y73394408D01*
X46073936Y73284204D01*
X46310931Y73223085D01*
X46445441Y73208146D01*
X46717171Y73196741D01*
X46717171Y73196741D01*
X46717171Y73196741D01*
G37*
X46717171Y73196741D02*
X46899159Y73215202D01*
X46999402Y73265652D01*
X47025898Y73350219D01*
X47024597Y73362096D01*
X47008414Y73417757D01*
X46965227Y73453735D01*
X46874199Y73476644D01*
X46714489Y73493101D01*
X46583206Y73502230D01*
X46316411Y73532384D01*
X46135758Y73588907D01*
X46027053Y73682192D01*
X45976103Y73822630D01*
X45967200Y73953249D01*
X45992550Y74139952D01*
X46076331Y74264760D01*
X46230141Y74336223D01*
X46465574Y74362890D01*
X46523824Y74363600D01*
X46759291Y74368740D01*
X46910669Y74388272D01*
X46995136Y74428367D01*
X47029869Y74495193D01*
X47034000Y74546836D01*
X47034000Y74668400D01*
X46372005Y74668400D01*
X46092879Y74666460D01*
X45899723Y74659486D01*
X45776963Y74645746D01*
X45709024Y74623510D01*
X45680522Y74591554D01*
X45684457Y74490461D01*
X45711041Y74442401D01*
X45744522Y74348288D01*
X45716725Y74268587D01*
X45669538Y74098584D01*
X45668740Y73886349D01*
X45711342Y73678449D01*
X45761764Y73566261D01*
X45898876Y73394408D01*
X46073936Y73284204D01*
X46310931Y73223085D01*
X46445441Y73208146D01*
X46717171Y73196741D01*
X46717171Y73196741D01*
G36*
X46856439Y72255988D02*
X46951361Y72259959D01*
X47012703Y72331953D01*
X47034652Y72462098D01*
X47018147Y72615295D01*
X46964126Y72756444D01*
X46937040Y72795873D01*
X46875209Y72856975D01*
X46792986Y72896325D01*
X46664956Y72921014D01*
X46465704Y72938136D01*
X46416340Y72941200D01*
X46205878Y72956865D01*
X46079132Y72976019D01*
X46018221Y73003345D01*
X46005269Y73043529D01*
X46005970Y73048724D01*
X45980166Y73152216D01*
X45893517Y73217582D01*
X45798809Y73217182D01*
X45727788Y73146765D01*
X45703470Y73076605D01*
X45681487Y73013504D01*
X45621804Y72975582D01*
X45500001Y72952509D01*
X45383446Y72941200D01*
X45206669Y72920370D01*
X45108560Y72889496D01*
X45066198Y72839986D01*
X45060948Y72820288D01*
X45071928Y72726146D01*
X45155177Y72668005D01*
X45321282Y72640790D01*
X45442966Y72637178D01*
X45599296Y72631716D01*
X45681085Y72609145D01*
X45715210Y72558396D01*
X45722366Y72522100D01*
X45770127Y72424727D01*
X45853126Y72386499D01*
X45934441Y72411553D01*
X45975971Y72493682D01*
X45992118Y72555190D01*
X46034127Y72590364D01*
X46125135Y72606499D01*
X46288280Y72610884D01*
X46348200Y72611000D01*
X46534230Y72609140D01*
X46641831Y72597902D01*
X46694169Y72568802D01*
X46714411Y72513357D01*
X46719515Y72475018D01*
X46766842Y72330559D01*
X46856439Y72255988D01*
X46856439Y72255988D01*
X46856439Y72255988D01*
G37*
X46856439Y72255988D02*
X46951361Y72259959D01*
X47012703Y72331953D01*
X47034652Y72462098D01*
X47018147Y72615295D01*
X46964126Y72756444D01*
X46937040Y72795873D01*
X46875209Y72856975D01*
X46792986Y72896325D01*
X46664956Y72921014D01*
X46465704Y72938136D01*
X46416340Y72941200D01*
X46205878Y72956865D01*
X46079132Y72976019D01*
X46018221Y73003345D01*
X46005269Y73043529D01*
X46005970Y73048724D01*
X45980166Y73152216D01*
X45893517Y73217582D01*
X45798809Y73217182D01*
X45727788Y73146765D01*
X45703470Y73076605D01*
X45681487Y73013504D01*
X45621804Y72975582D01*
X45500001Y72952509D01*
X45383446Y72941200D01*
X45206669Y72920370D01*
X45108560Y72889496D01*
X45066198Y72839986D01*
X45060948Y72820288D01*
X45071928Y72726146D01*
X45155177Y72668005D01*
X45321282Y72640790D01*
X45442966Y72637178D01*
X45599296Y72631716D01*
X45681085Y72609145D01*
X45715210Y72558396D01*
X45722366Y72522100D01*
X45770127Y72424727D01*
X45853126Y72386499D01*
X45934441Y72411553D01*
X45975971Y72493682D01*
X45992118Y72555190D01*
X46034127Y72590364D01*
X46125135Y72606499D01*
X46288280Y72610884D01*
X46348200Y72611000D01*
X46534230Y72609140D01*
X46641831Y72597902D01*
X46694169Y72568802D01*
X46714411Y72513357D01*
X46719515Y72475018D01*
X46766842Y72330559D01*
X46856439Y72255988D01*
X46856439Y72255988D01*
G36*
X46736541Y70676506D02*
X46913706Y70706134D01*
X47009902Y70770940D01*
X47034000Y70854263D01*
X47007634Y70926666D01*
X46919985Y70974320D01*
X46758221Y71000885D01*
X46509513Y71010024D01*
X46487900Y71010107D01*
X46244706Y71030264D01*
X46084728Y71095531D01*
X45996185Y71214992D01*
X45967294Y71397730D01*
X45967200Y71411573D01*
X45985520Y71594425D01*
X46050123Y71721569D01*
X46175470Y71803819D01*
X46376024Y71851988D01*
X46583206Y71872171D01*
X46792430Y71888120D01*
X46920820Y71906882D01*
X46989080Y71934821D01*
X47017914Y71978301D01*
X47023985Y72007635D01*
X47002063Y72111068D01*
X46956331Y72147335D01*
X46879130Y72158137D01*
X46719558Y72167372D01*
X46496840Y72174363D01*
X46230202Y72178437D01*
X46048954Y72179200D01*
X45689120Y72175747D01*
X45420644Y72163875D01*
X45233471Y72141315D01*
X45117547Y72105798D01*
X45062815Y72055056D01*
X45059221Y71986819D01*
X45068351Y71957947D01*
X45108847Y71910910D01*
X45199446Y71884900D01*
X45361960Y71874983D01*
X45437640Y71874400D01*
X45616479Y71871736D01*
X45712925Y71859925D01*
X45746126Y71833244D01*
X45735233Y71785968D01*
X45735024Y71785500D01*
X45684089Y71586005D01*
X45679029Y71353091D01*
X45718832Y71138402D01*
X45749142Y71065212D01*
X45864184Y70891266D01*
X46007421Y70777439D01*
X46202579Y70711044D01*
X46470388Y70679570D01*
X46736541Y70676506D01*
X46736541Y70676506D01*
X46736541Y70676506D01*
G37*
X46736541Y70676506D02*
X46913706Y70706134D01*
X47009902Y70770940D01*
X47034000Y70854263D01*
X47007634Y70926666D01*
X46919985Y70974320D01*
X46758221Y71000885D01*
X46509513Y71010024D01*
X46487900Y71010107D01*
X46244706Y71030264D01*
X46084728Y71095531D01*
X45996185Y71214992D01*
X45967294Y71397730D01*
X45967200Y71411573D01*
X45985520Y71594425D01*
X46050123Y71721569D01*
X46175470Y71803819D01*
X46376024Y71851988D01*
X46583206Y71872171D01*
X46792430Y71888120D01*
X46920820Y71906882D01*
X46989080Y71934821D01*
X47017914Y71978301D01*
X47023985Y72007635D01*
X47002063Y72111068D01*
X46956331Y72147335D01*
X46879130Y72158137D01*
X46719558Y72167372D01*
X46496840Y72174363D01*
X46230202Y72178437D01*
X46048954Y72179200D01*
X45689120Y72175747D01*
X45420644Y72163875D01*
X45233471Y72141315D01*
X45117547Y72105798D01*
X45062815Y72055056D01*
X45059221Y71986819D01*
X45068351Y71957947D01*
X45108847Y71910910D01*
X45199446Y71884900D01*
X45361960Y71874983D01*
X45437640Y71874400D01*
X45616479Y71871736D01*
X45712925Y71859925D01*
X45746126Y71833244D01*
X45735233Y71785968D01*
X45735024Y71785500D01*
X45684089Y71586005D01*
X45679029Y71353091D01*
X45718832Y71138402D01*
X45749142Y71065212D01*
X45864184Y70891266D01*
X46007421Y70777439D01*
X46202579Y70711044D01*
X46470388Y70679570D01*
X46736541Y70676506D01*
X46736541Y70676506D01*
G36*
X43679879Y75350361D02*
X43829233Y75353241D01*
X43977205Y75414353D01*
X44079110Y75530528D01*
X44120031Y75651723D01*
X43807553Y75651723D01*
X43706995Y75654502D01*
X43631983Y75733214D01*
X43586545Y75864496D01*
X43574708Y76024986D01*
X43600499Y76191322D01*
X43667944Y76340140D01*
X43684887Y76363350D01*
X43769578Y76454771D01*
X43833793Y76496884D01*
X43837287Y76497200D01*
X43859126Y76450415D01*
X43875589Y76326050D01*
X43883907Y76148092D01*
X43884400Y76089206D01*
X43879926Y75873104D01*
X43864328Y75739711D01*
X43834341Y75670442D01*
X43807553Y75651723D01*
X44120031Y75651723D01*
X44141442Y75715135D01*
X44170697Y75981541D01*
X44173589Y76061883D01*
X44186917Y76297625D01*
X44214138Y76436650D01*
X44257752Y76483201D01*
X44320258Y76441521D01*
X44363023Y76383399D01*
X44465379Y76141266D01*
X44468067Y75879578D01*
X44420597Y75710056D01*
X44367494Y75534043D01*
X44374969Y75429442D01*
X44445949Y75384007D01*
X44499590Y75379600D01*
X44594274Y75425865D01*
X44668976Y75549198D01*
X44720164Y75726408D01*
X44744304Y75934304D01*
X44737866Y76149696D01*
X44697316Y76349391D01*
X44661136Y76440229D01*
X44518565Y76626381D01*
X44322519Y76746118D01*
X44096431Y76799182D01*
X43863733Y76785318D01*
X43647859Y76704268D01*
X43472241Y76555776D01*
X43405719Y76453980D01*
X43319325Y76216427D01*
X43294628Y75977291D01*
X43324980Y75753844D01*
X43403736Y75563359D01*
X43524251Y75423107D01*
X43679879Y75350361D01*
X43679879Y75350361D01*
X43679879Y75350361D01*
G37*
X43679879Y75350361D02*
X43829233Y75353241D01*
X43977205Y75414353D01*
X44079110Y75530528D01*
X44120031Y75651723D01*
X43807553Y75651723D01*
X43706995Y75654502D01*
X43631983Y75733214D01*
X43586545Y75864496D01*
X43574708Y76024986D01*
X43600499Y76191322D01*
X43667944Y76340140D01*
X43684887Y76363350D01*
X43769578Y76454771D01*
X43833793Y76496884D01*
X43837287Y76497200D01*
X43859126Y76450415D01*
X43875589Y76326050D01*
X43883907Y76148092D01*
X43884400Y76089206D01*
X43879926Y75873104D01*
X43864328Y75739711D01*
X43834341Y75670442D01*
X43807553Y75651723D01*
X44120031Y75651723D01*
X44141442Y75715135D01*
X44170697Y75981541D01*
X44173589Y76061883D01*
X44186917Y76297625D01*
X44214138Y76436650D01*
X44257752Y76483201D01*
X44320258Y76441521D01*
X44363023Y76383399D01*
X44465379Y76141266D01*
X44468067Y75879578D01*
X44420597Y75710056D01*
X44367494Y75534043D01*
X44374969Y75429442D01*
X44445949Y75384007D01*
X44499590Y75379600D01*
X44594274Y75425865D01*
X44668976Y75549198D01*
X44720164Y75726408D01*
X44744304Y75934304D01*
X44737866Y76149696D01*
X44697316Y76349391D01*
X44661136Y76440229D01*
X44518565Y76626381D01*
X44322519Y76746118D01*
X44096431Y76799182D01*
X43863733Y76785318D01*
X43647859Y76704268D01*
X43472241Y76555776D01*
X43405719Y76453980D01*
X43319325Y76216427D01*
X43294628Y75977291D01*
X43324980Y75753844D01*
X43403736Y75563359D01*
X43524251Y75423107D01*
X43679879Y75350361D01*
X43679879Y75350361D01*
G36*
X43565910Y73764635D02*
X43625459Y73780991D01*
X43661951Y73814581D01*
X43710667Y73878579D01*
X43706875Y73949275D01*
X43660370Y74049962D01*
X43598399Y74241789D01*
X43588435Y74451050D01*
X43625307Y74648787D01*
X43703846Y74806038D01*
X43810475Y74890844D01*
X43903410Y74907835D01*
X44060102Y74919566D01*
X44206054Y74923094D01*
X44393747Y74928366D01*
X44554784Y74941282D01*
X44633700Y74954419D01*
X44722663Y75018066D01*
X44749472Y75117171D01*
X44714133Y75193334D01*
X44653367Y75205897D01*
X44510984Y75216351D01*
X44306960Y75223737D01*
X44061272Y75227096D01*
X44008368Y75227200D01*
X43731910Y75225768D01*
X43540512Y75220104D01*
X43417658Y75208158D01*
X43346833Y75187881D01*
X43311519Y75157223D01*
X43302870Y75139641D01*
X43310967Y75036573D01*
X43352250Y74991404D01*
X43407266Y74914081D01*
X43386314Y74837664D01*
X43315734Y74625458D01*
X43296946Y74382195D01*
X43326655Y74140997D01*
X43401566Y73934984D01*
X43487377Y73821714D01*
X43565910Y73764635D01*
X43565910Y73764635D01*
X43565910Y73764635D01*
G37*
X43565910Y73764635D02*
X43625459Y73780991D01*
X43661951Y73814581D01*
X43710667Y73878579D01*
X43706875Y73949275D01*
X43660370Y74049962D01*
X43598399Y74241789D01*
X43588435Y74451050D01*
X43625307Y74648787D01*
X43703846Y74806038D01*
X43810475Y74890844D01*
X43903410Y74907835D01*
X44060102Y74919566D01*
X44206054Y74923094D01*
X44393747Y74928366D01*
X44554784Y74941282D01*
X44633700Y74954419D01*
X44722663Y75018066D01*
X44749472Y75117171D01*
X44714133Y75193334D01*
X44653367Y75205897D01*
X44510984Y75216351D01*
X44306960Y75223737D01*
X44061272Y75227096D01*
X44008368Y75227200D01*
X43731910Y75225768D01*
X43540512Y75220104D01*
X43417658Y75208158D01*
X43346833Y75187881D01*
X43311519Y75157223D01*
X43302870Y75139641D01*
X43310967Y75036573D01*
X43352250Y74991404D01*
X43407266Y74914081D01*
X43386314Y74837664D01*
X43315734Y74625458D01*
X43296946Y74382195D01*
X43326655Y74140997D01*
X43401566Y73934984D01*
X43487377Y73821714D01*
X43565910Y73764635D01*
X43565910Y73764635D01*
G36*
X43610083Y73405181D02*
X43830775Y73406150D01*
X44030070Y73409706D01*
X44307364Y73416145D01*
X44499274Y73424076D01*
X44622008Y73436286D01*
X44691772Y73455565D01*
X44724775Y73484699D01*
X44737224Y73526478D01*
X44737965Y73531479D01*
X44717462Y73627471D01*
X44636365Y73670485D01*
X44537745Y73683672D01*
X44364997Y73694265D01*
X44145582Y73700919D01*
X43983009Y73702507D01*
X43681318Y73695618D01*
X43471600Y73672187D01*
X43345166Y73629427D01*
X43293323Y73564550D01*
X43303405Y73484566D01*
X43326491Y73448849D01*
X43374356Y73424840D01*
X43463416Y73410848D01*
X43610083Y73405181D01*
X43610083Y73405181D01*
X43610083Y73405181D01*
G37*
X43610083Y73405181D02*
X43830775Y73406150D01*
X44030070Y73409706D01*
X44307364Y73416145D01*
X44499274Y73424076D01*
X44622008Y73436286D01*
X44691772Y73455565D01*
X44724775Y73484699D01*
X44737224Y73526478D01*
X44737965Y73531479D01*
X44717462Y73627471D01*
X44636365Y73670485D01*
X44537745Y73683672D01*
X44364997Y73694265D01*
X44145582Y73700919D01*
X43983009Y73702507D01*
X43681318Y73695618D01*
X43471600Y73672187D01*
X43345166Y73629427D01*
X43293323Y73564550D01*
X43303405Y73484566D01*
X43326491Y73448849D01*
X43374356Y73424840D01*
X43463416Y73410848D01*
X43610083Y73405181D01*
X43610083Y73405181D01*
G36*
X44499590Y71874400D02*
X44594685Y71920534D01*
X44669834Y72042933D01*
X44721488Y72217595D01*
X44746103Y72420518D01*
X44740130Y72627699D01*
X44700022Y72815137D01*
X44653483Y72915800D01*
X44507531Y73109924D01*
X44346509Y73223569D01*
X44139130Y73276555D01*
X44074112Y73282814D01*
X43798935Y73261757D01*
X43579156Y73157893D01*
X43420240Y72976896D01*
X43327651Y72724442D01*
X43304992Y72484000D01*
X43325956Y72244334D01*
X43384199Y72050527D01*
X43471609Y71922699D01*
X43547282Y71882958D01*
X43661882Y71890105D01*
X43704103Y71964159D01*
X43670673Y72097547D01*
X43654468Y72130976D01*
X43600001Y72310858D01*
X43590431Y72522371D01*
X43623061Y72724727D01*
X43695201Y72877139D01*
X43704459Y72888036D01*
X43864211Y73000187D01*
X44043315Y73027170D01*
X44217686Y72975667D01*
X44363238Y72852356D01*
X44451067Y72680975D01*
X44484410Y72534047D01*
X44478814Y72404587D01*
X44431341Y72240575D01*
X44425196Y72223137D01*
X44371766Y72041095D01*
X44372364Y71932368D01*
X44430105Y71882350D01*
X44499590Y71874400D01*
X44499590Y71874400D01*
X44499590Y71874400D01*
G37*
X44499590Y71874400D02*
X44594685Y71920534D01*
X44669834Y72042933D01*
X44721488Y72217595D01*
X44746103Y72420518D01*
X44740130Y72627699D01*
X44700022Y72815137D01*
X44653483Y72915800D01*
X44507531Y73109924D01*
X44346509Y73223569D01*
X44139130Y73276555D01*
X44074112Y73282814D01*
X43798935Y73261757D01*
X43579156Y73157893D01*
X43420240Y72976896D01*
X43327651Y72724442D01*
X43304992Y72484000D01*
X43325956Y72244334D01*
X43384199Y72050527D01*
X43471609Y71922699D01*
X43547282Y71882958D01*
X43661882Y71890105D01*
X43704103Y71964159D01*
X43670673Y72097547D01*
X43654468Y72130976D01*
X43600001Y72310858D01*
X43590431Y72522371D01*
X43623061Y72724727D01*
X43695201Y72877139D01*
X43704459Y72888036D01*
X43864211Y73000187D01*
X44043315Y73027170D01*
X44217686Y72975667D01*
X44363238Y72852356D01*
X44451067Y72680975D01*
X44484410Y72534047D01*
X44478814Y72404587D01*
X44431341Y72240575D01*
X44425196Y72223137D01*
X44371766Y72041095D01*
X44372364Y71932368D01*
X44430105Y71882350D01*
X44499590Y71874400D01*
X44499590Y71874400D01*
G36*
X43929798Y70190176D02*
X44164927Y70191600D01*
X44385671Y70201780D01*
X44568910Y70220682D01*
X44691526Y70248271D01*
X44729877Y70274847D01*
X44725334Y70374647D01*
X44695414Y70428752D01*
X44673210Y70479337D01*
X43973060Y70479337D01*
X43802666Y70536488D01*
X43667906Y70666610D01*
X43645335Y70706000D01*
X43582143Y70913718D01*
X43586815Y71125321D01*
X43649929Y71318164D01*
X43762065Y71469603D01*
X43913802Y71556989D01*
X44004612Y71569600D01*
X44212968Y71526677D01*
X44368565Y71408853D01*
X44463172Y71232554D01*
X44488558Y71014200D01*
X44436493Y70770216D01*
X44422716Y70735331D01*
X44310619Y70579798D01*
X44151556Y70494121D01*
X43973060Y70479337D01*
X44673210Y70479337D01*
X44657299Y70515589D01*
X44688385Y70630727D01*
X44689731Y70633695D01*
X44727803Y70784602D01*
X44742727Y70989592D01*
X44734434Y71203806D01*
X44702856Y71382382D01*
X44690928Y71417174D01*
X44552202Y71634351D01*
X44343911Y71784350D01*
X44226357Y71827274D01*
X43968271Y71856012D01*
X43736154Y71790566D01*
X43554222Y71664405D01*
X43409635Y71475509D01*
X43322358Y71231308D01*
X43297369Y70963585D01*
X43339648Y70704123D01*
X43385984Y70590501D01*
X43397043Y70483829D01*
X43355587Y70423931D01*
X43305463Y70330497D01*
X43307793Y70272730D01*
X43369280Y70238785D01*
X43508856Y70213734D01*
X43703401Y70197543D01*
X43929798Y70190176D01*
X43929798Y70190176D01*
X43929798Y70190176D01*
G37*
X43929798Y70190176D02*
X44164927Y70191600D01*
X44385671Y70201780D01*
X44568910Y70220682D01*
X44691526Y70248271D01*
X44729877Y70274847D01*
X44725334Y70374647D01*
X44695414Y70428752D01*
X44673210Y70479337D01*
X43973060Y70479337D01*
X43802666Y70536488D01*
X43667906Y70666610D01*
X43645335Y70706000D01*
X43582143Y70913718D01*
X43586815Y71125321D01*
X43649929Y71318164D01*
X43762065Y71469603D01*
X43913802Y71556989D01*
X44004612Y71569600D01*
X44212968Y71526677D01*
X44368565Y71408853D01*
X44463172Y71232554D01*
X44488558Y71014200D01*
X44436493Y70770216D01*
X44422716Y70735331D01*
X44310619Y70579798D01*
X44151556Y70494121D01*
X43973060Y70479337D01*
X44673210Y70479337D01*
X44657299Y70515589D01*
X44688385Y70630727D01*
X44689731Y70633695D01*
X44727803Y70784602D01*
X44742727Y70989592D01*
X44734434Y71203806D01*
X44702856Y71382382D01*
X44690928Y71417174D01*
X44552202Y71634351D01*
X44343911Y71784350D01*
X44226357Y71827274D01*
X43968271Y71856012D01*
X43736154Y71790566D01*
X43554222Y71664405D01*
X43409635Y71475509D01*
X43322358Y71231308D01*
X43297369Y70963585D01*
X43339648Y70704123D01*
X43385984Y70590501D01*
X43397043Y70483829D01*
X43355587Y70423931D01*
X43305463Y70330497D01*
X43307793Y70272730D01*
X43369280Y70238785D01*
X43508856Y70213734D01*
X43703401Y70197543D01*
X43929798Y70190176D01*
X43929798Y70190176D01*
G36*
X42871738Y73402311D02*
X42964975Y73441946D01*
X42989964Y73478755D01*
X43016526Y73557082D01*
X42999422Y73601833D01*
X42959840Y73642240D01*
X42856289Y73692823D01*
X42756099Y73669098D01*
X42691890Y73590929D01*
X42695158Y73481039D01*
X42765191Y73415471D01*
X42871738Y73402311D01*
X42871738Y73402311D01*
X42871738Y73402311D01*
G37*
X42871738Y73402311D02*
X42964975Y73441946D01*
X42989964Y73478755D01*
X43016526Y73557082D01*
X42999422Y73601833D01*
X42959840Y73642240D01*
X42856289Y73692823D01*
X42756099Y73669098D01*
X42691890Y73590929D01*
X42695158Y73481039D01*
X42765191Y73415471D01*
X42871738Y73402311D01*
X42871738Y73402311D01*
G36*
X37596190Y71136490D02*
X38035029Y71146312D01*
X38145560Y71163483D01*
X38557902Y71283955D01*
X38925707Y71482429D01*
X39051520Y71590717D01*
X37920937Y71590717D01*
X37586216Y71643320D01*
X37262915Y71763527D01*
X36974717Y71946452D01*
X36857922Y72052912D01*
X36626195Y72361098D01*
X36460268Y72729563D01*
X36362253Y73139424D01*
X36334267Y73571797D01*
X36378423Y74007799D01*
X36496835Y74428545D01*
X36572418Y74602768D01*
X36778291Y74924732D01*
X37039462Y75176141D01*
X37341256Y75353974D01*
X37669000Y75455208D01*
X38008019Y75476823D01*
X38343640Y75415797D01*
X38661189Y75269109D01*
X38898839Y75081775D01*
X39211582Y74717359D01*
X39435213Y74325249D01*
X39567565Y73915198D01*
X39606473Y73496963D01*
X39549770Y73080299D01*
X39421578Y72727926D01*
X39262317Y72450510D01*
X39059568Y72179137D01*
X38836238Y71940011D01*
X38615233Y71759336D01*
X38529917Y71707871D01*
X38243398Y71610605D01*
X37920937Y71590717D01*
X39051520Y71590717D01*
X39234632Y71748321D01*
X39470335Y72071046D01*
X39527276Y72183116D01*
X39595117Y72321536D01*
X39647949Y72412355D01*
X39667789Y72433200D01*
X39703932Y72392305D01*
X39768981Y72287325D01*
X39819054Y72196669D01*
X39925714Y72010658D01*
X40044990Y71823634D01*
X40085985Y71764869D01*
X40188083Y71641423D01*
X40283174Y71584204D01*
X40411766Y71569633D01*
X40421463Y71569600D01*
X40616332Y71611389D01*
X40759317Y71724678D01*
X40830900Y71891351D01*
X40835533Y71953875D01*
X40809196Y72080732D01*
X40742466Y72246827D01*
X40684000Y72357000D01*
X40602248Y72501698D01*
X40547174Y72612324D01*
X40532466Y72655314D01*
X40578903Y72672585D01*
X40703820Y72681199D01*
X40884381Y72680083D01*
X40976100Y72676204D01*
X41258118Y72651513D01*
X41473261Y72607154D01*
X41655470Y72536039D01*
X41661522Y72533051D01*
X41878048Y72455365D01*
X42053913Y72464953D01*
X42205077Y72564730D01*
X42272927Y72644678D01*
X42336629Y72789808D01*
X40553206Y72789808D01*
X40352004Y72792024D01*
X40172080Y72805785D01*
X40044019Y72831359D01*
X40020260Y72841388D01*
X39978808Y72872350D01*
X39950906Y72924729D01*
X39933926Y73016604D01*
X39925238Y73166054D01*
X39922214Y73391157D01*
X39922000Y73517028D01*
X39927361Y73838455D01*
X39943491Y74059624D01*
X39970459Y74181311D01*
X39982960Y74201041D01*
X40058412Y74227655D01*
X40205692Y74247550D01*
X40395195Y74259812D01*
X40597314Y74263528D01*
X40782443Y74257783D01*
X40920976Y74241665D01*
X40959245Y74231165D01*
X40993188Y74203382D01*
X41016262Y74139915D01*
X41030400Y74024521D01*
X41037534Y73840953D01*
X41039595Y73572966D01*
X41039600Y73555525D01*
X41034600Y73230649D01*
X41019494Y73005039D01*
X40994123Y72876849D01*
X40978640Y72849761D01*
X40897108Y72818944D01*
X40745102Y72798870D01*
X40553206Y72789808D01*
X42336629Y72789808D01*
X42346182Y72811571D01*
X42323515Y72976836D01*
X42210452Y73133254D01*
X42012517Y73273609D01*
X41735235Y73390681D01*
X41691312Y73404525D01*
X41500859Y73470581D01*
X41381903Y73528877D01*
X41341914Y73573460D01*
X41388361Y73598375D01*
X41444094Y73601600D01*
X41610714Y73630286D01*
X41815455Y73704153D01*
X42018591Y73804913D01*
X42180396Y73914282D01*
X42231291Y73963959D01*
X42330884Y74113732D01*
X42350671Y74253458D01*
X42309245Y74398380D01*
X42204222Y74539997D01*
X42042100Y74606447D01*
X41836647Y74595367D01*
X41623800Y74516000D01*
X41488518Y74461324D01*
X41328037Y74429532D01*
X41112061Y74415892D01*
X40973209Y74414400D01*
X40521901Y74414400D01*
X40679150Y74693031D01*
X40797780Y74953706D01*
X40830212Y75164604D01*
X40776738Y75329252D01*
X40736092Y75378308D01*
X40575113Y75496019D01*
X40416633Y75520784D01*
X40256664Y75450729D01*
X40091217Y75283980D01*
X39916301Y75018663D01*
X39896600Y74983896D01*
X39800086Y74816591D01*
X39721602Y74690149D01*
X39674324Y74625474D01*
X39668000Y74621234D01*
X39634581Y74663570D01*
X39574321Y74772580D01*
X39518488Y74886383D01*
X39302463Y75232657D01*
X39016010Y75516281D01*
X38673132Y75731121D01*
X38287831Y75871043D01*
X37874110Y75929914D01*
X37445971Y75901599D01*
X37281254Y75866408D01*
X36877221Y75712277D01*
X36523565Y75474042D01*
X36229133Y75160324D01*
X36002768Y74779743D01*
X35903609Y74523849D01*
X35822912Y74180936D01*
X35776407Y73788000D01*
X35765906Y73385074D01*
X35793222Y73012193D01*
X35826768Y72826900D01*
X35978815Y72365637D01*
X36198684Y71968524D01*
X36478364Y71641308D01*
X36809848Y71389733D01*
X37185126Y71219546D01*
X37596190Y71136490D01*
X37596190Y71136490D01*
X37596190Y71136490D01*
G37*
X37596190Y71136490D02*
X38035029Y71146312D01*
X38145560Y71163483D01*
X38557902Y71283955D01*
X38925707Y71482429D01*
X39051520Y71590717D01*
X37920937Y71590717D01*
X37586216Y71643320D01*
X37262915Y71763527D01*
X36974717Y71946452D01*
X36857922Y72052912D01*
X36626195Y72361098D01*
X36460268Y72729563D01*
X36362253Y73139424D01*
X36334267Y73571797D01*
X36378423Y74007799D01*
X36496835Y74428545D01*
X36572418Y74602768D01*
X36778291Y74924732D01*
X37039462Y75176141D01*
X37341256Y75353974D01*
X37669000Y75455208D01*
X38008019Y75476823D01*
X38343640Y75415797D01*
X38661189Y75269109D01*
X38898839Y75081775D01*
X39211582Y74717359D01*
X39435213Y74325249D01*
X39567565Y73915198D01*
X39606473Y73496963D01*
X39549770Y73080299D01*
X39421578Y72727926D01*
X39262317Y72450510D01*
X39059568Y72179137D01*
X38836238Y71940011D01*
X38615233Y71759336D01*
X38529917Y71707871D01*
X38243398Y71610605D01*
X37920937Y71590717D01*
X39051520Y71590717D01*
X39234632Y71748321D01*
X39470335Y72071046D01*
X39527276Y72183116D01*
X39595117Y72321536D01*
X39647949Y72412355D01*
X39667789Y72433200D01*
X39703932Y72392305D01*
X39768981Y72287325D01*
X39819054Y72196669D01*
X39925714Y72010658D01*
X40044990Y71823634D01*
X40085985Y71764869D01*
X40188083Y71641423D01*
X40283174Y71584204D01*
X40411766Y71569633D01*
X40421463Y71569600D01*
X40616332Y71611389D01*
X40759317Y71724678D01*
X40830900Y71891351D01*
X40835533Y71953875D01*
X40809196Y72080732D01*
X40742466Y72246827D01*
X40684000Y72357000D01*
X40602248Y72501698D01*
X40547174Y72612324D01*
X40532466Y72655314D01*
X40578903Y72672585D01*
X40703820Y72681199D01*
X40884381Y72680083D01*
X40976100Y72676204D01*
X41258118Y72651513D01*
X41473261Y72607154D01*
X41655470Y72536039D01*
X41661522Y72533051D01*
X41878048Y72455365D01*
X42053913Y72464953D01*
X42205077Y72564730D01*
X42272927Y72644678D01*
X42336629Y72789808D01*
X40553206Y72789808D01*
X40352004Y72792024D01*
X40172080Y72805785D01*
X40044019Y72831359D01*
X40020260Y72841388D01*
X39978808Y72872350D01*
X39950906Y72924729D01*
X39933926Y73016604D01*
X39925238Y73166054D01*
X39922214Y73391157D01*
X39922000Y73517028D01*
X39927361Y73838455D01*
X39943491Y74059624D01*
X39970459Y74181311D01*
X39982960Y74201041D01*
X40058412Y74227655D01*
X40205692Y74247550D01*
X40395195Y74259812D01*
X40597314Y74263528D01*
X40782443Y74257783D01*
X40920976Y74241665D01*
X40959245Y74231165D01*
X40993188Y74203382D01*
X41016262Y74139915D01*
X41030400Y74024521D01*
X41037534Y73840953D01*
X41039595Y73572966D01*
X41039600Y73555525D01*
X41034600Y73230649D01*
X41019494Y73005039D01*
X40994123Y72876849D01*
X40978640Y72849761D01*
X40897108Y72818944D01*
X40745102Y72798870D01*
X40553206Y72789808D01*
X42336629Y72789808D01*
X42346182Y72811571D01*
X42323515Y72976836D01*
X42210452Y73133254D01*
X42012517Y73273609D01*
X41735235Y73390681D01*
X41691312Y73404525D01*
X41500859Y73470581D01*
X41381903Y73528877D01*
X41341914Y73573460D01*
X41388361Y73598375D01*
X41444094Y73601600D01*
X41610714Y73630286D01*
X41815455Y73704153D01*
X42018591Y73804913D01*
X42180396Y73914282D01*
X42231291Y73963959D01*
X42330884Y74113732D01*
X42350671Y74253458D01*
X42309245Y74398380D01*
X42204222Y74539997D01*
X42042100Y74606447D01*
X41836647Y74595367D01*
X41623800Y74516000D01*
X41488518Y74461324D01*
X41328037Y74429532D01*
X41112061Y74415892D01*
X40973209Y74414400D01*
X40521901Y74414400D01*
X40679150Y74693031D01*
X40797780Y74953706D01*
X40830212Y75164604D01*
X40776738Y75329252D01*
X40736092Y75378308D01*
X40575113Y75496019D01*
X40416633Y75520784D01*
X40256664Y75450729D01*
X40091217Y75283980D01*
X39916301Y75018663D01*
X39896600Y74983896D01*
X39800086Y74816591D01*
X39721602Y74690149D01*
X39674324Y74625474D01*
X39668000Y74621234D01*
X39634581Y74663570D01*
X39574321Y74772580D01*
X39518488Y74886383D01*
X39302463Y75232657D01*
X39016010Y75516281D01*
X38673132Y75731121D01*
X38287831Y75871043D01*
X37874110Y75929914D01*
X37445971Y75901599D01*
X37281254Y75866408D01*
X36877221Y75712277D01*
X36523565Y75474042D01*
X36229133Y75160324D01*
X36002768Y74779743D01*
X35903609Y74523849D01*
X35822912Y74180936D01*
X35776407Y73788000D01*
X35765906Y73385074D01*
X35793222Y73012193D01*
X35826768Y72826900D01*
X35978815Y72365637D01*
X36198684Y71968524D01*
X36478364Y71641308D01*
X36809848Y71389733D01*
X37185126Y71219546D01*
X37596190Y71136490D01*
X37596190Y71136490D01*
G36*
X39204884Y73373420D02*
X39237209Y73380417D01*
X39321235Y73456427D01*
X39323317Y73569168D01*
X39290856Y73630317D01*
X39198794Y73689242D01*
X39097314Y73665574D01*
X39023593Y73570007D01*
X39033557Y73478360D01*
X39106376Y73401837D01*
X39204884Y73373420D01*
X39204884Y73373420D01*
X39204884Y73373420D01*
G37*
X39204884Y73373420D02*
X39237209Y73380417D01*
X39321235Y73456427D01*
X39323317Y73569168D01*
X39290856Y73630317D01*
X39198794Y73689242D01*
X39097314Y73665574D01*
X39023593Y73570007D01*
X39033557Y73478360D01*
X39106376Y73401837D01*
X39204884Y73373420D01*
X39204884Y73373420D01*
G36*
X38330472Y73948981D02*
X38533293Y74004308D01*
X38573640Y74027314D01*
X38682257Y74149150D01*
X38703359Y74301577D01*
X38637803Y74465056D01*
X38549990Y74567183D01*
X38313220Y74729322D01*
X38032494Y74829990D01*
X37739766Y74862659D01*
X37466986Y74820797D01*
X37410663Y74800038D01*
X37258221Y74700285D01*
X37201373Y74566753D01*
X37239122Y74396616D01*
X37255995Y74361675D01*
X37384660Y74211149D01*
X37584723Y74087439D01*
X37827903Y73997723D01*
X38085914Y73949178D01*
X38330472Y73948981D01*
X38330472Y73948981D01*
X38330472Y73948981D01*
G37*
X38330472Y73948981D02*
X38533293Y74004308D01*
X38573640Y74027314D01*
X38682257Y74149150D01*
X38703359Y74301577D01*
X38637803Y74465056D01*
X38549990Y74567183D01*
X38313220Y74729322D01*
X38032494Y74829990D01*
X37739766Y74862659D01*
X37466986Y74820797D01*
X37410663Y74800038D01*
X37258221Y74700285D01*
X37201373Y74566753D01*
X37239122Y74396616D01*
X37255995Y74361675D01*
X37384660Y74211149D01*
X37584723Y74087439D01*
X37827903Y73997723D01*
X38085914Y73949178D01*
X38330472Y73948981D01*
X38330472Y73948981D01*
G36*
X37693540Y72209535D02*
X38053451Y72249838D01*
X38355252Y72369170D01*
X38529357Y72494641D01*
X38661368Y72654901D01*
X38702706Y72815832D01*
X38651255Y72962939D01*
X38605142Y73013832D01*
X38437174Y73102663D01*
X38217840Y73131312D01*
X37971789Y73107013D01*
X37723667Y73037000D01*
X37498120Y72928508D01*
X37319795Y72788769D01*
X37213339Y72625019D01*
X37206329Y72603277D01*
X37216879Y72475057D01*
X37297997Y72351091D01*
X37386308Y72265193D01*
X37484275Y72222815D01*
X37631423Y72209812D01*
X37693540Y72209535D01*
X37693540Y72209535D01*
X37693540Y72209535D01*
G37*
X37693540Y72209535D02*
X38053451Y72249838D01*
X38355252Y72369170D01*
X38529357Y72494641D01*
X38661368Y72654901D01*
X38702706Y72815832D01*
X38651255Y72962939D01*
X38605142Y73013832D01*
X38437174Y73102663D01*
X38217840Y73131312D01*
X37971789Y73107013D01*
X37723667Y73037000D01*
X37498120Y72928508D01*
X37319795Y72788769D01*
X37213339Y72625019D01*
X37206329Y72603277D01*
X37216879Y72475057D01*
X37297997Y72351091D01*
X37386308Y72265193D01*
X37484275Y72222815D01*
X37631423Y72209812D01*
X37693540Y72209535D01*
X37693540Y72209535D01*
X38028000Y81829000D02*
X39044000Y80813000D01*
X38028000Y101387000D02*
X38028000Y81829000D01*
X47172000Y80813000D02*
X39044000Y80813000D01*
X47172000Y101387000D02*
X38028000Y101387000D01*
X47172000Y80813000D02*
X47172000Y101387000D01*
D11*
X18700000Y43500000D02*
G75*
G03X18700000Y43500000I-900000J0D01*
G01*
X19200000Y81100000D02*
G75*
G03X19200000Y81100000I-900000J0D01*
G01*
X35200000Y39800000D02*
G75*
G03X35200000Y39800000I-900000J0D01*
G01*
X8323908Y26600000D02*
G75*
G03X8323908Y26600000I-3323908J0D01*
G01*
D10*
X15700000Y46200000D02*
X17200000Y46200000D01*
X15300000Y46200000D02*
X13800000Y46200000D01*
X15300000Y46800000D02*
X15300000Y45600000D01*
X15700000Y46800000D02*
X15700000Y45600000D01*
X18800000Y47100000D02*
X12200000Y47100000D01*
X12200000Y47100000D02*
X12200000Y45300000D01*
X12200000Y45300000D02*
X18800000Y45300000D01*
X18800000Y45300000D02*
X18800000Y47100000D01*
X14968500Y104376500D02*
X11031500Y104376500D01*
X16180710Y101900000D02*
G75*
G03X16180710Y101900000I-3180710J0D01*
G01*
X4431500Y99423500D02*
X8368500Y99423500D01*
X9580710Y101900000D02*
G75*
G03X9580710Y101900000I-3180710J0D01*
G01*
X17500000Y101700000D02*
X17500000Y100200000D01*
X17500000Y102100000D02*
X17500000Y103600000D01*
X18100000Y102100000D02*
X16900000Y102100000D01*
X18100000Y101700000D02*
X16900000Y101700000D01*
X18400000Y98600000D02*
X18400000Y105200000D01*
X18400000Y105200000D02*
X16600000Y105200000D01*
X16600000Y105200000D02*
X16600000Y98600000D01*
X16600000Y98600000D02*
X18400000Y98600000D01*
X2100000Y102100000D02*
X2100000Y103600000D01*
X2100000Y101700000D02*
X2100000Y100200000D01*
X1500000Y101700000D02*
X2700000Y101700000D01*
X1500000Y102100000D02*
X2700000Y102100000D01*
X1200000Y105200000D02*
X1200000Y98600000D01*
X1200000Y98600000D02*
X3000000Y98600000D01*
X3000000Y98600000D02*
X3000000Y105200000D01*
X3000000Y105200000D02*
X1200000Y105200000D01*
X33100000Y48400000D02*
X31600000Y48400000D01*
X33500000Y48400000D02*
X35000000Y48400000D01*
X33500000Y47800000D02*
X33500000Y49000000D01*
X33100000Y47800000D02*
X33100000Y49000000D01*
X30000000Y47500000D02*
X36600000Y47500000D01*
X36600000Y47500000D02*
X36600000Y49300000D01*
X36600000Y49300000D02*
X30000000Y49300000D01*
X30000000Y49300000D02*
X30000000Y47500000D01*
X15300000Y48400000D02*
X13800000Y48400000D01*
X15700000Y48400000D02*
X17200000Y48400000D01*
X15700000Y47800000D02*
X15700000Y49000000D01*
X15300000Y47800000D02*
X15300000Y49000000D01*
X12200000Y47500000D02*
X18800000Y47500000D01*
X18800000Y47500000D02*
X18800000Y49300000D01*
X18800000Y49300000D02*
X12200000Y49300000D01*
X12200000Y49300000D02*
X12200000Y47500000D01*
X19200000Y30300000D02*
X19200000Y28800000D01*
X19200000Y30700000D02*
X19200000Y32200000D01*
X19800000Y30700000D02*
X18600000Y30700000D01*
X19800000Y30300000D02*
X18600000Y30300000D01*
X20100000Y27200000D02*
X20100000Y33800000D01*
X20100000Y33800000D02*
X18300000Y33800000D01*
X18300000Y33800000D02*
X18300000Y27200000D01*
X18300000Y27200000D02*
X20100000Y27200000D01*
X26600000Y17400000D02*
X25100000Y17400000D01*
X27000000Y17400000D02*
X28500000Y17400000D01*
X27000000Y16800000D02*
X27000000Y18000000D01*
X26600000Y16800000D02*
X26600000Y18000000D01*
X23500000Y16500000D02*
X30100000Y16500000D01*
X30100000Y16500000D02*
X30100000Y18300000D01*
X30100000Y18300000D02*
X23500000Y18300000D01*
X23500000Y18300000D02*
X23500000Y16500000D01*
X41476500Y63531500D02*
X41476500Y67468500D01*
X42180710Y65500000D02*
G75*
G03X42180710Y65500000I-3180710J0D01*
G01*
X14076500Y82631500D02*
X14076500Y86568500D01*
X14780710Y84600000D02*
G75*
G03X14780710Y84600000I-3180710J0D01*
G01*
D11*
X47123908Y36800000D02*
G75*
G03X47123908Y36800000I-3323908J0D01*
G01*
D10*
X24998500Y57417000D02*
X28872000Y57417000D01*
X28872000Y57417000D02*
X29507000Y56782000D01*
X29507000Y56782000D02*
X29507000Y39383000D01*
X23601500Y57417000D02*
X19093000Y57417000D01*
X24998500Y57417000D02*
G75*
G02X24300000Y56718500I-698500J0D01*
G01*
X24300000Y56718500D02*
G75*
G02X23601500Y57417000I0J698500D01*
G01*
X19093000Y39383000D02*
X29507000Y39383000D01*
X19093000Y39383000D02*
X19093000Y57417000D01*
X16670000Y15547500D02*
X16670000Y17452500D01*
X16987500Y15547500D02*
X16987500Y17452500D01*
X13177500Y16500000D02*
X12500000Y16500000D01*
X17622500Y16500000D02*
X18300000Y16500000D01*
X13177500Y15547500D02*
X17622500Y15547500D01*
X17622500Y15547500D02*
X17622500Y17452500D01*
X17622500Y17452500D02*
X13177500Y17452500D01*
X13177500Y17452500D02*
X13177500Y15547500D01*
X34330000Y17452500D02*
X34330000Y15547500D01*
X34012500Y17452500D02*
X34012500Y15547500D01*
X37822500Y16500000D02*
X38500000Y16500000D01*
X33377500Y16500000D02*
X32700000Y16500000D01*
X37822500Y17452500D02*
X33377500Y17452500D01*
X33377500Y17452500D02*
X33377500Y15547500D01*
X33377500Y15547500D02*
X37822500Y15547500D01*
X37822500Y15547500D02*
X37822500Y17452500D01*
X35392000Y98067000D02*
X34503000Y98067000D01*
X37297000Y98067000D02*
X36408000Y98067000D01*
X35392000Y92733000D02*
X34503000Y92733000D01*
X37297000Y92733000D02*
X36408000Y92733000D01*
X37297000Y97178000D02*
X34503000Y97178000D01*
X37297000Y97432000D02*
X34503000Y97432000D01*
X37297000Y92733000D02*
X37297000Y98067000D01*
X34503000Y98067000D02*
X34503000Y92733000D01*
X32808000Y89433000D02*
X33697000Y89433000D01*
X30903000Y89433000D02*
X31792000Y89433000D01*
X32808000Y94767000D02*
X33697000Y94767000D01*
X30903000Y94767000D02*
X31792000Y94767000D01*
X30903000Y90322000D02*
X33697000Y90322000D01*
X30903000Y90068000D02*
X33697000Y90068000D01*
X30903000Y94767000D02*
X30903000Y89433000D01*
X33697000Y89433000D02*
X33697000Y94767000D01*
X14130000Y19652500D02*
X14130000Y17747500D01*
X13812500Y19652500D02*
X13812500Y17747500D01*
X17622500Y18700000D02*
X18300000Y18700000D01*
X13177500Y18700000D02*
X12500000Y18700000D01*
X17622500Y19652500D02*
X13177500Y19652500D01*
X13177500Y19652500D02*
X13177500Y17747500D01*
X13177500Y17747500D02*
X17622500Y17747500D01*
X17622500Y17747500D02*
X17622500Y19652500D01*
X36870000Y17747500D02*
X36870000Y19652500D01*
X37187500Y17747500D02*
X37187500Y19652500D01*
X33377500Y18700000D02*
X32700000Y18700000D01*
X37822500Y18700000D02*
X38500000Y18700000D01*
X33377500Y17747500D02*
X37822500Y17747500D01*
X37822500Y17747500D02*
X37822500Y19652500D01*
X37822500Y19652500D02*
X33377500Y19652500D01*
X33377500Y19652500D02*
X33377500Y17747500D01*
X8770000Y39547500D02*
X8770000Y41452500D01*
X9087500Y39547500D02*
X9087500Y41452500D01*
X5277500Y40500000D02*
X4600000Y40500000D01*
X9722500Y40500000D02*
X10400000Y40500000D01*
X5277500Y39547500D02*
X9722500Y39547500D01*
X9722500Y39547500D02*
X9722500Y41452500D01*
X9722500Y41452500D02*
X5277500Y41452500D01*
X5277500Y41452500D02*
X5277500Y39547500D01*
X6230000Y43652500D02*
X6230000Y41747500D01*
X5912500Y43652500D02*
X5912500Y41747500D01*
X9722500Y42700000D02*
X10400000Y42700000D01*
X5277500Y42700000D02*
X4600000Y42700000D01*
X9722500Y43652500D02*
X5277500Y43652500D01*
X5277500Y43652500D02*
X5277500Y41747500D01*
X5277500Y41747500D02*
X9722500Y41747500D01*
X9722500Y41747500D02*
X9722500Y43652500D01*
X43370000Y21747500D02*
X43370000Y23652500D01*
X43687500Y21747500D02*
X43687500Y23652500D01*
X39877500Y22700000D02*
X39200000Y22700000D01*
X44322500Y22700000D02*
X45000000Y22700000D01*
X39877500Y21747500D02*
X44322500Y21747500D01*
X44322500Y21747500D02*
X44322500Y23652500D01*
X44322500Y23652500D02*
X39877500Y23652500D01*
X39877500Y23652500D02*
X39877500Y21747500D01*
X40830000Y21552500D02*
X40830000Y19647500D01*
X40512500Y21552500D02*
X40512500Y19647500D01*
X44322500Y20600000D02*
X45000000Y20600000D01*
X39877500Y20600000D02*
X39200000Y20600000D01*
X44322500Y21552500D02*
X39877500Y21552500D01*
X39877500Y21552500D02*
X39877500Y19647500D01*
X39877500Y19647500D02*
X44322500Y19647500D01*
X44322500Y19647500D02*
X44322500Y21552500D01*
X37587500Y88246500D02*
X37587500Y80753500D01*
X37587500Y80753500D02*
X34412500Y80753500D01*
X34412500Y80753500D02*
X34412500Y88246500D01*
X34412500Y88246500D02*
X37587500Y88246500D01*
X28595000Y67570000D02*
X32405000Y67570000D01*
X32402339Y67573983D02*
G75*
G02X28595000Y67570000I-1902339J-1273983D01*
G01*
X33400000Y70200000D02*
X31900000Y70200000D01*
X33800000Y70200000D02*
X35300000Y70200000D01*
X33800000Y69600000D02*
X33800000Y70800000D01*
X33400000Y69600000D02*
X33400000Y70800000D01*
X30300000Y69300000D02*
X36900000Y69300000D01*
X36900000Y69300000D02*
X36900000Y71100000D01*
X36900000Y71100000D02*
X30300000Y71100000D01*
X30300000Y71100000D02*
X30300000Y69300000D01*
X39400000Y78500000D02*
X40900000Y78500000D01*
X39000000Y78500000D02*
X37500000Y78500000D01*
X39000000Y79100000D02*
X39000000Y77900000D01*
X39400000Y79100000D02*
X39400000Y77900000D01*
X42500000Y79400000D02*
X35900000Y79400000D01*
X35900000Y79400000D02*
X35900000Y77600000D01*
X35900000Y77600000D02*
X42500000Y77600000D01*
X42500000Y77600000D02*
X42500000Y79400000D01*
X9400000Y70400000D02*
X9400000Y71900000D01*
X9400000Y70000000D02*
X9400000Y68500000D01*
X8800000Y70000000D02*
X10000000Y70000000D01*
X8800000Y70400000D02*
X10000000Y70400000D01*
X8500000Y73500000D02*
X8500000Y66900000D01*
X8500000Y66900000D02*
X10300000Y66900000D01*
X10300000Y66900000D02*
X10300000Y73500000D01*
X10300000Y73500000D02*
X8500000Y73500000D01*
X21000000Y71000000D02*
X22500000Y71000000D01*
X20600000Y71000000D02*
X19100000Y71000000D01*
X20600000Y71600000D02*
X20600000Y70400000D01*
X21000000Y71600000D02*
X21000000Y70400000D01*
X24100000Y71900000D02*
X17500000Y71900000D01*
X17500000Y71900000D02*
X17500000Y70100000D01*
X17500000Y70100000D02*
X24100000Y70100000D01*
X24100000Y70100000D02*
X24100000Y71900000D01*
X30008500Y28843500D02*
X30643500Y28208500D01*
X30643500Y28208500D02*
X30643500Y18556500D01*
X26198500Y28843500D02*
X30008500Y28843500D01*
X24801500Y28843500D02*
X20356500Y28843500D01*
X25500000Y28145000D02*
G75*
G02X24801500Y28843500I0J698500D01*
G01*
X26198500Y28843500D02*
G75*
G02X25500000Y28145000I-698500J0D01*
G01*
X20356500Y18556500D02*
X30643500Y18556500D01*
X20356500Y18556500D02*
X20356500Y28843500D01*
D13*
X15600000Y89400000D02*
X16000000Y89400000D01*
X15600000Y89400000D02*
G75*
G03X15600000Y89400000I-1400000J0D01*
G01*
X24900000Y84800000D02*
X25300000Y84800000D01*
X24900000Y84800000D02*
G75*
G03X24900000Y84800000I-1400000J0D01*
G01*
X18700000Y84800000D02*
X18300000Y84800000D01*
X21500000Y84800000D02*
G75*
G03X21500000Y84800000I-1400000J0D01*
G01*
X5000000Y20100000D02*
X5000000Y19700000D01*
X6400000Y21500000D02*
G75*
G03X6400000Y21500000I-1400000J0D01*
G01*
X8800000Y21200000D02*
X8800000Y21600000D01*
X10200000Y19800000D02*
G75*
G03X10200000Y19800000I-1400000J0D01*
G01*
X34200000Y22200000D02*
X34600000Y22200000D01*
X34200000Y22200000D02*
G75*
G03X34200000Y22200000I-1400000J0D01*
G01*
X10500000Y47100000D02*
X10500000Y47500000D01*
X11900000Y45700000D02*
G75*
G03X11900000Y45700000I-1400000J0D01*
G01*
X14200000Y22000000D02*
X13800000Y22000000D01*
X17000000Y22000000D02*
G75*
G03X17000000Y22000000I-1400000J0D01*
G01*
X26500000Y34400000D02*
X26900000Y34400000D01*
X26500000Y34400000D02*
G75*
G03X26500000Y34400000I-1400000J0D01*
G01*
X18500000Y23600000D02*
X18500000Y23200000D01*
X19900000Y25000000D02*
G75*
G03X19900000Y25000000I-1400000J0D01*
G01*
X26700000Y31400000D02*
X26300000Y31400000D01*
X29500000Y31400000D02*
G75*
G03X29500000Y31400000I-1400000J0D01*
G01*
X22700000Y60900000D02*
X22700000Y60500000D01*
X24100000Y62300000D02*
G75*
G03X24100000Y62300000I-1400000J0D01*
G01*
X20400000Y37700000D02*
X20000000Y37700000D01*
X23200000Y37700000D02*
G75*
G03X23200000Y37700000I-1400000J0D01*
G01*
X21800000Y33000000D02*
X21800000Y32600000D01*
X23200000Y34400000D02*
G75*
G03X23200000Y34400000I-1400000J0D01*
G01*
X26500000Y37700000D02*
X26900000Y37700000D01*
X26500000Y37700000D02*
G75*
G03X26500000Y37700000I-1400000J0D01*
G01*
X19800000Y60700000D02*
X19800000Y61100000D01*
X21200000Y59300000D02*
G75*
G03X21200000Y59300000I-1400000J0D01*
G01*
X28700000Y60900000D02*
X28700000Y60500000D01*
X30100000Y62300000D02*
G75*
G03X30100000Y62300000I-1400000J0D01*
G01*
X25800000Y60700000D02*
X25800000Y61100000D01*
X27200000Y59300000D02*
G75*
G03X27200000Y59300000I-1400000J0D01*
G01*
X18800000Y66100000D02*
X18400000Y66100000D01*
X21600000Y66100000D02*
G75*
G03X21600000Y66100000I-1400000J0D01*
G01*
X24700000Y66100000D02*
X24300000Y66100000D01*
X27500000Y66100000D02*
G75*
G03X27500000Y66100000I-1400000J0D01*
G01*
X22400000Y81100000D02*
X22800000Y81100000D01*
X22400000Y81100000D02*
G75*
G03X22400000Y81100000I-1400000J0D01*
G01*
X30000000Y82400000D02*
X30400000Y82400000D01*
X30000000Y82400000D02*
G75*
G03X30000000Y82400000I-1400000J0D01*
G01*
X25900000Y70600000D02*
X25900000Y70200000D01*
X27300000Y72000000D02*
G75*
G03X27300000Y72000000I-1400000J0D01*
G01*
X22600000Y74600000D02*
X23000000Y74600000D01*
X22600000Y74600000D02*
G75*
G03X22600000Y74600000I-1400000J0D01*
G01*
X22600000Y78100000D02*
X22200000Y78100000D01*
X25400000Y78100000D02*
G75*
G03X25400000Y78100000I-1400000J0D01*
G01*
X13400000Y68100000D02*
X13400000Y68500000D01*
X14800000Y66700000D02*
G75*
G03X14800000Y66700000I-1400000J0D01*
G01*
X34300000Y66100000D02*
X34300000Y65700000D01*
X35700000Y67500000D02*
G75*
G03X35700000Y67500000I-1400000J0D01*
G01*
X6000000Y86000000D02*
X6000000Y86400000D01*
X7400000Y84600000D02*
G75*
G03X7400000Y84600000I-1400000J0D01*
G01*
X6000000Y70300000D02*
X6000000Y70700000D01*
X7400000Y68900000D02*
G75*
G03X7400000Y68900000I-1400000J0D01*
G01*
X32800000Y45700000D02*
X33200000Y45700000D01*
X32800000Y45700000D02*
G75*
G03X32800000Y45700000I-1400000J0D01*
G01*
X31400000Y41200000D02*
X31400000Y41600000D01*
X32800000Y39800000D02*
G75*
G03X32800000Y39800000I-1400000J0D01*
G01*
X44500000Y28800000D02*
X44100000Y28800000D01*
X47300000Y28800000D02*
G75*
G03X47300000Y28800000I-1400000J0D01*
G01*
X44300000Y25700000D02*
X44700000Y25700000D01*
X44300000Y25700000D02*
G75*
G03X44300000Y25700000I-1400000J0D01*
G01*
D10*
X17266666Y75683334D02*
X17266666Y76383334D01*
X16866666Y75683334D02*
X17166666Y76083334D01*
X16866666Y76383334D02*
X17266666Y75983334D01*
X16200000Y75683334D02*
X16600000Y75683334D01*
X16400000Y75683334D02*
X16400000Y76383334D01*
X16466666Y76283334D01*
X16533333Y76216667D01*
X16600000Y76183334D01*
X15600000Y76150000D02*
X15600000Y75683334D01*
X15766666Y76416667D02*
X15933333Y75916667D01*
X15500000Y75916667D01*
X15100000Y76383334D02*
X15033333Y76383334D01*
X14966666Y76350000D01*
X14933333Y76316667D01*
X14900000Y76250000D01*
X14866666Y76116667D01*
X14866666Y75950000D01*
X14900000Y75816667D01*
X14933333Y75750000D01*
X14966666Y75716667D01*
X15033333Y75683334D01*
X15100000Y75683334D01*
X15166666Y75716667D01*
X15200000Y75750000D01*
X15233333Y75816667D01*
X15266666Y75950000D01*
X15266666Y76116667D01*
X15233333Y76250000D01*
X15200000Y76316667D01*
X15166666Y76350000D01*
X15100000Y76383334D01*
X14566666Y76383334D02*
X14566666Y75816667D01*
X14533333Y75750000D01*
X14500000Y75716667D01*
X14433333Y75683334D01*
X14300000Y75683334D01*
X14233333Y75716667D01*
X14200000Y75750000D01*
X14166666Y75816667D01*
X14166666Y76383334D01*
X13833333Y75683334D02*
X13833333Y76383334D01*
X13666666Y76383334D01*
X13566666Y76350000D01*
X13500000Y76283334D01*
X13466666Y76216667D01*
X13433333Y76083334D01*
X13433333Y75983334D01*
X13466666Y75850000D01*
X13500000Y75783334D01*
X13566666Y75716667D01*
X13666666Y75683334D01*
X13833333Y75683334D01*
X12766666Y75683334D02*
X13166666Y75683334D01*
X12966666Y75683334D02*
X12966666Y76383334D01*
X13033333Y76283334D01*
X13100000Y76216667D01*
X13166666Y76183334D01*
X12500000Y76316667D02*
X12466666Y76350000D01*
X12400000Y76383334D01*
X12233333Y76383334D01*
X12166666Y76350000D01*
X12133333Y76316667D01*
X12100000Y76250000D01*
X12100000Y76183334D01*
X12133333Y76083334D01*
X12533333Y75683334D01*
X12100000Y75683334D01*
X10616666Y78983334D02*
X10616666Y79683334D01*
X10450000Y79683334D01*
X10350000Y79650000D01*
X10283333Y79583334D01*
X10250000Y79516667D01*
X10216666Y79383334D01*
X10216666Y79283334D01*
X10250000Y79150000D01*
X10283333Y79083334D01*
X10350000Y79016667D01*
X10450000Y78983334D01*
X10616666Y78983334D01*
X9950000Y79183334D02*
X9616666Y79183334D01*
X10016666Y78983334D02*
X9783333Y79683334D01*
X9550000Y78983334D01*
X9016666Y79450000D02*
X9016666Y78983334D01*
X9183333Y79716667D02*
X9350000Y79216667D01*
X8916666Y79216667D01*
X33666666Y75583334D02*
X33666666Y76283334D01*
X33266666Y75583334D02*
X33566666Y75983334D01*
X33266666Y76283334D02*
X33666666Y75883334D01*
X32600000Y75583334D02*
X33000000Y75583334D01*
X32800000Y75583334D02*
X32800000Y76283334D01*
X32866666Y76183334D01*
X32933333Y76116667D01*
X33000000Y76083334D01*
X32000000Y76050000D02*
X32000000Y75583334D01*
X32166666Y76316667D02*
X32333333Y75816667D01*
X31900000Y75816667D01*
X31500000Y76283334D02*
X31433333Y76283334D01*
X31366666Y76250000D01*
X31333333Y76216667D01*
X31300000Y76150000D01*
X31266666Y76016667D01*
X31266666Y75850000D01*
X31300000Y75716667D01*
X31333333Y75650000D01*
X31366666Y75616667D01*
X31433333Y75583334D01*
X31500000Y75583334D01*
X31566666Y75616667D01*
X31600000Y75650000D01*
X31633333Y75716667D01*
X31666666Y75850000D01*
X31666666Y76016667D01*
X31633333Y76150000D01*
X31600000Y76216667D01*
X31566666Y76250000D01*
X31500000Y76283334D01*
X30966666Y76283334D02*
X30966666Y75716667D01*
X30933333Y75650000D01*
X30900000Y75616667D01*
X30833333Y75583334D01*
X30700000Y75583334D01*
X30633333Y75616667D01*
X30600000Y75650000D01*
X30566666Y75716667D01*
X30566666Y76283334D01*
X30233333Y75583334D02*
X30233333Y76283334D01*
X30066666Y76283334D01*
X29966666Y76250000D01*
X29900000Y76183334D01*
X29866666Y76116667D01*
X29833333Y75983334D01*
X29833333Y75883334D01*
X29866666Y75750000D01*
X29900000Y75683334D01*
X29966666Y75616667D01*
X30066666Y75583334D01*
X30233333Y75583334D01*
X29166666Y75583334D02*
X29566666Y75583334D01*
X29366666Y75583334D02*
X29366666Y76283334D01*
X29433333Y76183334D01*
X29500000Y76116667D01*
X29566666Y76083334D01*
X28900000Y76216667D02*
X28866666Y76250000D01*
X28800000Y76283334D01*
X28633333Y76283334D01*
X28566666Y76250000D01*
X28533333Y76216667D01*
X28500000Y76150000D01*
X28500000Y76083334D01*
X28533333Y75983334D01*
X28933333Y75583334D01*
X28500000Y75583334D01*
X34116666Y80683334D02*
X34116666Y81383334D01*
X33950000Y81383334D01*
X33850000Y81350000D01*
X33783333Y81283334D01*
X33750000Y81216667D01*
X33716666Y81083334D01*
X33716666Y80983334D01*
X33750000Y80850000D01*
X33783333Y80783334D01*
X33850000Y80716667D01*
X33950000Y80683334D01*
X34116666Y80683334D01*
X33450000Y80883334D02*
X33116666Y80883334D01*
X33516666Y80683334D02*
X33283333Y81383334D01*
X33050000Y80683334D01*
X32883333Y81383334D02*
X32450000Y81383334D01*
X32683333Y81116667D01*
X32583333Y81116667D01*
X32516666Y81083334D01*
X32483333Y81050000D01*
X32450000Y80983334D01*
X32450000Y80816667D01*
X32483333Y80750000D01*
X32516666Y80716667D01*
X32583333Y80683334D01*
X32783333Y80683334D01*
X32850000Y80716667D01*
X32883333Y80750000D01*
X8650000Y93083334D02*
X8983333Y93083334D01*
X9016666Y92750000D01*
X8983333Y92783334D01*
X8916666Y92816667D01*
X8750000Y92816667D01*
X8683333Y92783334D01*
X8650000Y92750000D01*
X8616666Y92683334D01*
X8616666Y92516667D01*
X8650000Y92450000D01*
X8683333Y92416667D01*
X8750000Y92383334D01*
X8916666Y92383334D01*
X8983333Y92416667D01*
X9016666Y92450000D01*
X8183333Y93083334D02*
X8116666Y93083334D01*
X8050000Y93050000D01*
X8016666Y93016667D01*
X7983333Y92950000D01*
X7950000Y92816667D01*
X7950000Y92650000D01*
X7983333Y92516667D01*
X8016666Y92450000D01*
X8050000Y92416667D01*
X8116666Y92383334D01*
X8183333Y92383334D01*
X8250000Y92416667D01*
X8283333Y92450000D01*
X8316666Y92516667D01*
X8350000Y92650000D01*
X8350000Y92816667D01*
X8316666Y92950000D01*
X8283333Y93016667D01*
X8250000Y93050000D01*
X8183333Y93083334D01*
X7650000Y92383334D02*
X7650000Y93083334D01*
X7583333Y92650000D02*
X7383333Y92383334D01*
X7383333Y92850000D02*
X7650000Y92583334D01*
X8316666Y93283334D02*
X8550000Y93616667D01*
X8716666Y93283334D02*
X8716666Y93983334D01*
X8450000Y93983334D01*
X8383333Y93950000D01*
X8350000Y93916667D01*
X8316666Y93850000D01*
X8316666Y93750000D01*
X8350000Y93683334D01*
X8383333Y93650000D01*
X8450000Y93616667D01*
X8716666Y93616667D01*
X7650000Y93283334D02*
X8050000Y93283334D01*
X7850000Y93283334D02*
X7850000Y93983334D01*
X7916666Y93883334D01*
X7983333Y93816667D01*
X8050000Y93783334D01*
X44616666Y105383334D02*
X44383333Y104683334D01*
X44150000Y105383334D01*
X43516666Y104683334D02*
X43750000Y105016667D01*
X43916666Y104683334D02*
X43916666Y105383334D01*
X43650000Y105383334D01*
X43583333Y105350000D01*
X43550000Y105316667D01*
X43516666Y105250000D01*
X43516666Y105150000D01*
X43550000Y105083334D01*
X43583333Y105050000D01*
X43650000Y105016667D01*
X43916666Y105016667D01*
X42850000Y104683334D02*
X43250000Y104683334D01*
X43050000Y104683334D02*
X43050000Y105383334D01*
X43116666Y105283334D01*
X43183333Y105216667D01*
X43250000Y105183334D01*
X28950000Y99283334D02*
X29350000Y99283334D01*
X29150000Y99283334D02*
X29150000Y99983334D01*
X29216666Y99883334D01*
X29283333Y99816667D01*
X29350000Y99783334D01*
X28516666Y99983334D02*
X28450000Y99983334D01*
X28383333Y99950000D01*
X28350000Y99916667D01*
X28316666Y99850000D01*
X28283333Y99716667D01*
X28283333Y99550000D01*
X28316666Y99416667D01*
X28350000Y99350000D01*
X28383333Y99316667D01*
X28450000Y99283334D01*
X28516666Y99283334D01*
X28583333Y99316667D01*
X28616666Y99350000D01*
X28650000Y99416667D01*
X28683333Y99550000D01*
X28683333Y99716667D01*
X28650000Y99850000D01*
X28616666Y99916667D01*
X28583333Y99950000D01*
X28516666Y99983334D01*
X27850000Y99983334D02*
X27783333Y99983334D01*
X27716666Y99950000D01*
X27683333Y99916667D01*
X27650000Y99850000D01*
X27616666Y99716667D01*
X27616666Y99550000D01*
X27650000Y99416667D01*
X27683333Y99350000D01*
X27716666Y99316667D01*
X27783333Y99283334D01*
X27850000Y99283334D01*
X27916666Y99316667D01*
X27950000Y99350000D01*
X27983333Y99416667D01*
X28016666Y99550000D01*
X28016666Y99716667D01*
X27983333Y99850000D01*
X27950000Y99916667D01*
X27916666Y99950000D01*
X27850000Y99983334D01*
X27016666Y99750000D02*
X27016666Y99283334D01*
X27316666Y99750000D02*
X27316666Y99383334D01*
X27283333Y99316667D01*
X27216666Y99283334D01*
X27116666Y99283334D01*
X27050000Y99316667D01*
X27016666Y99350000D01*
X26683333Y99283334D02*
X26683333Y99983334D01*
X26683333Y99650000D02*
X26283333Y99650000D01*
X26283333Y99283334D02*
X26283333Y99983334D01*
X27916666Y100983334D02*
X28250000Y100983334D01*
X28250000Y101683334D01*
X27716666Y101616667D02*
X27683333Y101650000D01*
X27616666Y101683334D01*
X27450000Y101683334D01*
X27383333Y101650000D01*
X27350000Y101616667D01*
X27316666Y101550000D01*
X27316666Y101483334D01*
X27350000Y101383334D01*
X27750000Y100983334D01*
X27316666Y100983334D01*
X23250000Y102483334D02*
X23650000Y102483334D01*
X23450000Y102483334D02*
X23450000Y103183334D01*
X23516666Y103083334D01*
X23583333Y103016667D01*
X23650000Y102983334D01*
X22816666Y103183334D02*
X22750000Y103183334D01*
X22683333Y103150000D01*
X22650000Y103116667D01*
X22616666Y103050000D01*
X22583333Y102916667D01*
X22583333Y102750000D01*
X22616666Y102616667D01*
X22650000Y102550000D01*
X22683333Y102516667D01*
X22750000Y102483334D01*
X22816666Y102483334D01*
X22883333Y102516667D01*
X22916666Y102550000D01*
X22950000Y102616667D01*
X22983333Y102750000D01*
X22983333Y102916667D01*
X22950000Y103050000D01*
X22916666Y103116667D01*
X22883333Y103150000D01*
X22816666Y103183334D01*
X22150000Y103183334D02*
X22083333Y103183334D01*
X22016666Y103150000D01*
X21983333Y103116667D01*
X21950000Y103050000D01*
X21916666Y102916667D01*
X21916666Y102750000D01*
X21950000Y102616667D01*
X21983333Y102550000D01*
X22016666Y102516667D01*
X22083333Y102483334D01*
X22150000Y102483334D01*
X22216666Y102516667D01*
X22250000Y102550000D01*
X22283333Y102616667D01*
X22316666Y102750000D01*
X22316666Y102916667D01*
X22283333Y103050000D01*
X22250000Y103116667D01*
X22216666Y103150000D01*
X22150000Y103183334D01*
X21316666Y102950000D02*
X21316666Y102483334D01*
X21616666Y102950000D02*
X21616666Y102583334D01*
X21583333Y102516667D01*
X21516666Y102483334D01*
X21416666Y102483334D01*
X21350000Y102516667D01*
X21316666Y102550000D01*
X20983333Y102483334D02*
X20983333Y103183334D01*
X20983333Y102850000D02*
X20583333Y102850000D01*
X20583333Y102483334D02*
X20583333Y103183334D01*
X27916666Y103983334D02*
X28250000Y103983334D01*
X28250000Y104683334D01*
X27316666Y103983334D02*
X27716666Y103983334D01*
X27516666Y103983334D02*
X27516666Y104683334D01*
X27583333Y104583334D01*
X27650000Y104516667D01*
X27716666Y104483334D01*
X37616666Y89083334D02*
X37150000Y88383334D01*
X37150000Y89083334D02*
X37616666Y88383334D01*
X36883333Y88383334D02*
X36883333Y89083334D01*
X36616666Y89083334D01*
X36550000Y89050000D01*
X36516666Y89016667D01*
X36483333Y88950000D01*
X36483333Y88850000D01*
X36516666Y88783334D01*
X36550000Y88750000D01*
X36616666Y88716667D01*
X36883333Y88716667D01*
X35816666Y88383334D02*
X36216666Y88383334D01*
X36016666Y88383334D02*
X36016666Y89083334D01*
X36083333Y88983334D01*
X36150000Y88916667D01*
X36216666Y88883334D01*
X18583333Y42383334D02*
X18183333Y42383334D01*
X18383333Y41683334D02*
X18383333Y42383334D01*
X17950000Y41683334D02*
X17950000Y42383334D01*
X17683333Y42383334D01*
X17616666Y42350000D01*
X17583333Y42316667D01*
X17550000Y42250000D01*
X17550000Y42150000D01*
X17583333Y42083334D01*
X17616666Y42050000D01*
X17683333Y42016667D01*
X17950000Y42016667D01*
X16883333Y41683334D02*
X17283333Y41683334D01*
X17083333Y41683334D02*
X17083333Y42383334D01*
X17150000Y42283334D01*
X17216666Y42216667D01*
X17283333Y42183334D01*
X18483333Y82983334D02*
X18083333Y82983334D01*
X18283333Y82283334D02*
X18283333Y82983334D01*
X17850000Y82283334D02*
X17850000Y82983334D01*
X17583333Y82983334D01*
X17516666Y82950000D01*
X17483333Y82916667D01*
X17450000Y82850000D01*
X17450000Y82750000D01*
X17483333Y82683334D01*
X17516666Y82650000D01*
X17583333Y82616667D01*
X17850000Y82616667D01*
X17183333Y82916667D02*
X17150000Y82950000D01*
X17083333Y82983334D01*
X16916666Y82983334D01*
X16850000Y82950000D01*
X16816666Y82916667D01*
X16783333Y82850000D01*
X16783333Y82783334D01*
X16816666Y82683334D01*
X17216666Y82283334D01*
X16783333Y82283334D01*
X36707333Y39167334D02*
X36307333Y39167334D01*
X36507333Y38467334D02*
X36507333Y39167334D01*
X36074000Y38467334D02*
X36074000Y39167334D01*
X35807333Y39167334D01*
X35740666Y39134000D01*
X35707333Y39100667D01*
X35674000Y39034000D01*
X35674000Y38934000D01*
X35707333Y38867334D01*
X35740666Y38834000D01*
X35807333Y38800667D01*
X36074000Y38800667D01*
X35440666Y39167334D02*
X35007333Y39167334D01*
X35240666Y38900667D01*
X35140666Y38900667D01*
X35074000Y38867334D01*
X35040666Y38834000D01*
X35007333Y38767334D01*
X35007333Y38600667D01*
X35040666Y38534000D01*
X35074000Y38500667D01*
X35140666Y38467334D01*
X35340666Y38467334D01*
X35407333Y38500667D01*
X35440666Y38534000D01*
X12900000Y27283334D02*
X13300000Y27283334D01*
X13100000Y27283334D02*
X13100000Y27983334D01*
X13166666Y27883334D01*
X13233333Y27816667D01*
X13300000Y27783334D01*
X12466666Y27983334D02*
X12400000Y27983334D01*
X12333333Y27950000D01*
X12300000Y27916667D01*
X12266666Y27850000D01*
X12233333Y27716667D01*
X12233333Y27550000D01*
X12266666Y27416667D01*
X12300000Y27350000D01*
X12333333Y27316667D01*
X12400000Y27283334D01*
X12466666Y27283334D01*
X12533333Y27316667D01*
X12566666Y27350000D01*
X12600000Y27416667D01*
X12633333Y27550000D01*
X12633333Y27716667D01*
X12600000Y27850000D01*
X12566666Y27916667D01*
X12533333Y27950000D01*
X12466666Y27983334D01*
X11633333Y27750000D02*
X11633333Y27283334D01*
X11933333Y27750000D02*
X11933333Y27383334D01*
X11900000Y27316667D01*
X11833333Y27283334D01*
X11733333Y27283334D01*
X11666666Y27316667D01*
X11633333Y27350000D01*
X11066666Y27650000D02*
X11300000Y27650000D01*
X11300000Y27283334D02*
X11300000Y27983334D01*
X10966666Y27983334D01*
X10766666Y27283334D02*
X10400000Y27750000D01*
X10766666Y27750000D02*
X10400000Y27283334D01*
X10166666Y27916667D02*
X10133333Y27950000D01*
X10066666Y27983334D01*
X9900000Y27983334D01*
X9833333Y27950000D01*
X9800000Y27916667D01*
X9766666Y27850000D01*
X9766666Y27783334D01*
X9800000Y27683334D01*
X10200000Y27283334D01*
X9766666Y27283334D01*
X9133333Y27983334D02*
X9466666Y27983334D01*
X9500000Y27650000D01*
X9466666Y27683334D01*
X9400000Y27716667D01*
X9233333Y27716667D01*
X9166666Y27683334D01*
X9133333Y27650000D01*
X9100000Y27583334D01*
X9100000Y27416667D01*
X9133333Y27350000D01*
X9166666Y27316667D01*
X9233333Y27283334D01*
X9400000Y27283334D01*
X9466666Y27316667D01*
X9500000Y27350000D01*
X8900000Y27983334D02*
X8666666Y27283334D01*
X8433333Y27983334D01*
X9216666Y28450000D02*
X9250000Y28416667D01*
X9350000Y28383334D01*
X9416666Y28383334D01*
X9516666Y28416667D01*
X9583333Y28483334D01*
X9616666Y28550000D01*
X9650000Y28683334D01*
X9650000Y28783334D01*
X9616666Y28916667D01*
X9583333Y28983334D01*
X9516666Y29050000D01*
X9416666Y29083334D01*
X9350000Y29083334D01*
X9250000Y29050000D01*
X9216666Y29016667D01*
X8550000Y28383334D02*
X8950000Y28383334D01*
X8750000Y28383334D02*
X8750000Y29083334D01*
X8816666Y28983334D01*
X8883333Y28916667D01*
X8950000Y28883334D01*
X15050000Y45183334D02*
X14983333Y45183334D01*
X14916666Y45150000D01*
X14883333Y45116667D01*
X14850000Y45050000D01*
X14816666Y44916667D01*
X14816666Y44750000D01*
X14850000Y44616667D01*
X14883333Y44550000D01*
X14916666Y44516667D01*
X14983333Y44483334D01*
X15050000Y44483334D01*
X15116666Y44516667D01*
X15150000Y44550000D01*
X15183333Y44616667D01*
X15216666Y44750000D01*
X15216666Y44916667D01*
X15183333Y45050000D01*
X15150000Y45116667D01*
X15116666Y45150000D01*
X15050000Y45183334D01*
X14516666Y44550000D02*
X14483333Y44516667D01*
X14516666Y44483334D01*
X14550000Y44516667D01*
X14516666Y44550000D01*
X14516666Y44483334D01*
X13816666Y44483334D02*
X14216666Y44483334D01*
X14016666Y44483334D02*
X14016666Y45183334D01*
X14083333Y45083334D01*
X14150000Y45016667D01*
X14216666Y44983334D01*
X13216666Y44950000D02*
X13216666Y44483334D01*
X13516666Y44950000D02*
X13516666Y44583334D01*
X13483333Y44516667D01*
X13416666Y44483334D01*
X13316666Y44483334D01*
X13250000Y44516667D01*
X13216666Y44550000D01*
X12650000Y44850000D02*
X12883333Y44850000D01*
X12883333Y44483334D02*
X12883333Y45183334D01*
X12550000Y45183334D01*
X16916666Y44550000D02*
X16950000Y44516667D01*
X17050000Y44483334D01*
X17116666Y44483334D01*
X17216666Y44516667D01*
X17283333Y44583334D01*
X17316666Y44650000D01*
X17350000Y44783334D01*
X17350000Y44883334D01*
X17316666Y45016667D01*
X17283333Y45083334D01*
X17216666Y45150000D01*
X17116666Y45183334D01*
X17050000Y45183334D01*
X16950000Y45150000D01*
X16916666Y45116667D01*
X16650000Y45116667D02*
X16616666Y45150000D01*
X16550000Y45183334D01*
X16383333Y45183334D01*
X16316666Y45150000D01*
X16283333Y45116667D01*
X16250000Y45050000D01*
X16250000Y44983334D01*
X16283333Y44883334D01*
X16683333Y44483334D01*
X16250000Y44483334D01*
X11550000Y103966667D02*
X12016666Y103966667D01*
X11283333Y104133334D02*
X11783333Y104300000D01*
X11783333Y103866667D01*
X11316666Y103666667D02*
X11316666Y103200000D01*
X12016666Y103500000D01*
X11550000Y102633334D02*
X12016666Y102633334D01*
X11550000Y102933334D02*
X11916666Y102933334D01*
X11983333Y102900000D01*
X12016666Y102833334D01*
X12016666Y102733334D01*
X11983333Y102666667D01*
X11950000Y102633334D01*
X11650000Y102066667D02*
X11650000Y102300000D01*
X12016666Y102300000D02*
X11316666Y102300000D01*
X11316666Y101966667D01*
X12016666Y101766667D02*
X11550000Y101400000D01*
X11550000Y101766667D02*
X12016666Y101400000D01*
X11383333Y101166667D02*
X11350000Y101133334D01*
X11316666Y101066667D01*
X11316666Y100900000D01*
X11350000Y100833334D01*
X11383333Y100800000D01*
X11450000Y100766667D01*
X11516666Y100766667D01*
X11616666Y100800000D01*
X12016666Y101200000D01*
X12016666Y100766667D01*
X11316666Y100133334D02*
X11316666Y100466667D01*
X11650000Y100500000D01*
X11616666Y100466667D01*
X11583333Y100400000D01*
X11583333Y100233334D01*
X11616666Y100166667D01*
X11650000Y100133334D01*
X11716666Y100100000D01*
X11883333Y100100000D01*
X11950000Y100133334D01*
X11983333Y100166667D01*
X12016666Y100233334D01*
X12016666Y100400000D01*
X11983333Y100466667D01*
X11950000Y100500000D01*
X11316666Y99900000D02*
X12016666Y99666667D01*
X11316666Y99433334D01*
X10516666Y98550000D02*
X10550000Y98516667D01*
X10650000Y98483334D01*
X10716666Y98483334D01*
X10816666Y98516667D01*
X10883333Y98583334D01*
X10916666Y98650000D01*
X10950000Y98783334D01*
X10950000Y98883334D01*
X10916666Y99016667D01*
X10883333Y99083334D01*
X10816666Y99150000D01*
X10716666Y99183334D01*
X10650000Y99183334D01*
X10550000Y99150000D01*
X10516666Y99116667D01*
X10283333Y99183334D02*
X9850000Y99183334D01*
X10083333Y98916667D01*
X9983333Y98916667D01*
X9916666Y98883334D01*
X9883333Y98850000D01*
X9850000Y98783334D01*
X9850000Y98616667D01*
X9883333Y98550000D01*
X9916666Y98516667D01*
X9983333Y98483334D01*
X10183333Y98483334D01*
X10250000Y98516667D01*
X10283333Y98550000D01*
X8666666Y97350000D02*
X8666666Y96883334D01*
X8833333Y97616667D02*
X9000000Y97116667D01*
X8566666Y97116667D01*
X8366666Y97583334D02*
X7900000Y97583334D01*
X8200000Y96883334D01*
X7333333Y97350000D02*
X7333333Y96883334D01*
X7633333Y97350000D02*
X7633333Y96983334D01*
X7600000Y96916667D01*
X7533333Y96883334D01*
X7433333Y96883334D01*
X7366666Y96916667D01*
X7333333Y96950000D01*
X6766666Y97250000D02*
X7000000Y97250000D01*
X7000000Y96883334D02*
X7000000Y97583334D01*
X6666666Y97583334D01*
X6466666Y96883334D02*
X6100000Y97350000D01*
X6466666Y97350000D02*
X6100000Y96883334D01*
X5866666Y97516667D02*
X5833333Y97550000D01*
X5766666Y97583334D01*
X5600000Y97583334D01*
X5533333Y97550000D01*
X5500000Y97516667D01*
X5466666Y97450000D01*
X5466666Y97383334D01*
X5500000Y97283334D01*
X5900000Y96883334D01*
X5466666Y96883334D01*
X4833333Y97583334D02*
X5166666Y97583334D01*
X5200000Y97250000D01*
X5166666Y97283334D01*
X5100000Y97316667D01*
X4933333Y97316667D01*
X4866666Y97283334D01*
X4833333Y97250000D01*
X4800000Y97183334D01*
X4800000Y97016667D01*
X4833333Y96950000D01*
X4866666Y96916667D01*
X4933333Y96883334D01*
X5100000Y96883334D01*
X5166666Y96916667D01*
X5200000Y96950000D01*
X4600000Y97583334D02*
X4366666Y96883334D01*
X4133333Y97583334D01*
X6616666Y97750000D02*
X6650000Y97716667D01*
X6750000Y97683334D01*
X6816666Y97683334D01*
X6916666Y97716667D01*
X6983333Y97783334D01*
X7016666Y97850000D01*
X7050000Y97983334D01*
X7050000Y98083334D01*
X7016666Y98216667D01*
X6983333Y98283334D01*
X6916666Y98350000D01*
X6816666Y98383334D01*
X6750000Y98383334D01*
X6650000Y98350000D01*
X6616666Y98316667D01*
X6016666Y98150000D02*
X6016666Y97683334D01*
X6183333Y98416667D02*
X6350000Y97916667D01*
X5916666Y97916667D01*
X21050000Y102183334D02*
X20983333Y102183334D01*
X20916666Y102150000D01*
X20883333Y102116667D01*
X20850000Y102050000D01*
X20816666Y101916667D01*
X20816666Y101750000D01*
X20850000Y101616667D01*
X20883333Y101550000D01*
X20916666Y101516667D01*
X20983333Y101483334D01*
X21050000Y101483334D01*
X21116666Y101516667D01*
X21150000Y101550000D01*
X21183333Y101616667D01*
X21216666Y101750000D01*
X21216666Y101916667D01*
X21183333Y102050000D01*
X21150000Y102116667D01*
X21116666Y102150000D01*
X21050000Y102183334D01*
X20516666Y101550000D02*
X20483333Y101516667D01*
X20516666Y101483334D01*
X20550000Y101516667D01*
X20516666Y101550000D01*
X20516666Y101483334D01*
X19816666Y101483334D02*
X20216666Y101483334D01*
X20016666Y101483334D02*
X20016666Y102183334D01*
X20083333Y102083334D01*
X20150000Y102016667D01*
X20216666Y101983334D01*
X19216666Y101950000D02*
X19216666Y101483334D01*
X19516666Y101950000D02*
X19516666Y101583334D01*
X19483333Y101516667D01*
X19416666Y101483334D01*
X19316666Y101483334D01*
X19250000Y101516667D01*
X19216666Y101550000D01*
X18650000Y101850000D02*
X18883333Y101850000D01*
X18883333Y101483334D02*
X18883333Y102183334D01*
X18550000Y102183334D01*
X19516666Y102550000D02*
X19550000Y102516667D01*
X19650000Y102483334D01*
X19716666Y102483334D01*
X19816666Y102516667D01*
X19883333Y102583334D01*
X19916666Y102650000D01*
X19950000Y102783334D01*
X19950000Y102883334D01*
X19916666Y103016667D01*
X19883333Y103083334D01*
X19816666Y103150000D01*
X19716666Y103183334D01*
X19650000Y103183334D01*
X19550000Y103150000D01*
X19516666Y103116667D01*
X18883333Y103183334D02*
X19216666Y103183334D01*
X19250000Y102850000D01*
X19216666Y102883334D01*
X19150000Y102916667D01*
X18983333Y102916667D01*
X18916666Y102883334D01*
X18883333Y102850000D01*
X18850000Y102783334D01*
X18850000Y102616667D01*
X18883333Y102550000D01*
X18916666Y102516667D01*
X18983333Y102483334D01*
X19150000Y102483334D01*
X19216666Y102516667D01*
X19250000Y102550000D01*
X3250000Y97583334D02*
X3183333Y97583334D01*
X3116666Y97550000D01*
X3083333Y97516667D01*
X3050000Y97450000D01*
X3016666Y97316667D01*
X3016666Y97150000D01*
X3050000Y97016667D01*
X3083333Y96950000D01*
X3116666Y96916667D01*
X3183333Y96883334D01*
X3250000Y96883334D01*
X3316666Y96916667D01*
X3350000Y96950000D01*
X3383333Y97016667D01*
X3416666Y97150000D01*
X3416666Y97316667D01*
X3383333Y97450000D01*
X3350000Y97516667D01*
X3316666Y97550000D01*
X3250000Y97583334D01*
X2716666Y96950000D02*
X2683333Y96916667D01*
X2716666Y96883334D01*
X2750000Y96916667D01*
X2716666Y96950000D01*
X2716666Y96883334D01*
X2016666Y96883334D02*
X2416666Y96883334D01*
X2216666Y96883334D02*
X2216666Y97583334D01*
X2283333Y97483334D01*
X2350000Y97416667D01*
X2416666Y97383334D01*
X1416666Y97350000D02*
X1416666Y96883334D01*
X1716666Y97350000D02*
X1716666Y96983334D01*
X1683333Y96916667D01*
X1616666Y96883334D01*
X1516666Y96883334D01*
X1450000Y96916667D01*
X1416666Y96950000D01*
X850000Y97250000D02*
X1083333Y97250000D01*
X1083333Y96883334D02*
X1083333Y97583334D01*
X750000Y97583334D01*
X2116666Y97750000D02*
X2150000Y97716667D01*
X2250000Y97683334D01*
X2316666Y97683334D01*
X2416666Y97716667D01*
X2483333Y97783334D01*
X2516666Y97850000D01*
X2550000Y97983334D01*
X2550000Y98083334D01*
X2516666Y98216667D01*
X2483333Y98283334D01*
X2416666Y98350000D01*
X2316666Y98383334D01*
X2250000Y98383334D01*
X2150000Y98350000D01*
X2116666Y98316667D01*
X1516666Y98383334D02*
X1650000Y98383334D01*
X1716666Y98350000D01*
X1750000Y98316667D01*
X1816666Y98216667D01*
X1850000Y98083334D01*
X1850000Y97816667D01*
X1816666Y97750000D01*
X1783333Y97716667D01*
X1716666Y97683334D01*
X1583333Y97683334D01*
X1516666Y97716667D01*
X1483333Y97750000D01*
X1450000Y97816667D01*
X1450000Y97983334D01*
X1483333Y98050000D01*
X1516666Y98083334D01*
X1583333Y98116667D01*
X1716666Y98116667D01*
X1783333Y98083334D01*
X1816666Y98050000D01*
X1850000Y97983334D01*
X39350000Y48683334D02*
X39283333Y48683334D01*
X39216666Y48650000D01*
X39183333Y48616667D01*
X39150000Y48550000D01*
X39116666Y48416667D01*
X39116666Y48250000D01*
X39150000Y48116667D01*
X39183333Y48050000D01*
X39216666Y48016667D01*
X39283333Y47983334D01*
X39350000Y47983334D01*
X39416666Y48016667D01*
X39450000Y48050000D01*
X39483333Y48116667D01*
X39516666Y48250000D01*
X39516666Y48416667D01*
X39483333Y48550000D01*
X39450000Y48616667D01*
X39416666Y48650000D01*
X39350000Y48683334D01*
X38816666Y48050000D02*
X38783333Y48016667D01*
X38816666Y47983334D01*
X38850000Y48016667D01*
X38816666Y48050000D01*
X38816666Y47983334D01*
X38116666Y47983334D02*
X38516666Y47983334D01*
X38316666Y47983334D02*
X38316666Y48683334D01*
X38383333Y48583334D01*
X38450000Y48516667D01*
X38516666Y48483334D01*
X37516666Y48450000D02*
X37516666Y47983334D01*
X37816666Y48450000D02*
X37816666Y48083334D01*
X37783333Y48016667D01*
X37716666Y47983334D01*
X37616666Y47983334D01*
X37550000Y48016667D01*
X37516666Y48050000D01*
X36950000Y48350000D02*
X37183333Y48350000D01*
X37183333Y47983334D02*
X37183333Y48683334D01*
X36850000Y48683334D01*
X37716666Y48950000D02*
X37750000Y48916667D01*
X37850000Y48883334D01*
X37916666Y48883334D01*
X38016666Y48916667D01*
X38083333Y48983334D01*
X38116666Y49050000D01*
X38150000Y49183334D01*
X38150000Y49283334D01*
X38116666Y49416667D01*
X38083333Y49483334D01*
X38016666Y49550000D01*
X37916666Y49583334D01*
X37850000Y49583334D01*
X37750000Y49550000D01*
X37716666Y49516667D01*
X37483333Y49583334D02*
X37016666Y49583334D01*
X37316666Y48883334D01*
X15050000Y50083334D02*
X14983333Y50083334D01*
X14916666Y50050000D01*
X14883333Y50016667D01*
X14850000Y49950000D01*
X14816666Y49816667D01*
X14816666Y49650000D01*
X14850000Y49516667D01*
X14883333Y49450000D01*
X14916666Y49416667D01*
X14983333Y49383334D01*
X15050000Y49383334D01*
X15116666Y49416667D01*
X15150000Y49450000D01*
X15183333Y49516667D01*
X15216666Y49650000D01*
X15216666Y49816667D01*
X15183333Y49950000D01*
X15150000Y50016667D01*
X15116666Y50050000D01*
X15050000Y50083334D01*
X14516666Y49450000D02*
X14483333Y49416667D01*
X14516666Y49383334D01*
X14550000Y49416667D01*
X14516666Y49450000D01*
X14516666Y49383334D01*
X13816666Y49383334D02*
X14216666Y49383334D01*
X14016666Y49383334D02*
X14016666Y50083334D01*
X14083333Y49983334D01*
X14150000Y49916667D01*
X14216666Y49883334D01*
X13216666Y49850000D02*
X13216666Y49383334D01*
X13516666Y49850000D02*
X13516666Y49483334D01*
X13483333Y49416667D01*
X13416666Y49383334D01*
X13316666Y49383334D01*
X13250000Y49416667D01*
X13216666Y49450000D01*
X12650000Y49750000D02*
X12883333Y49750000D01*
X12883333Y49383334D02*
X12883333Y50083334D01*
X12550000Y50083334D01*
X17816666Y49550000D02*
X17850000Y49516667D01*
X17950000Y49483334D01*
X18016666Y49483334D01*
X18116666Y49516667D01*
X18183333Y49583334D01*
X18216666Y49650000D01*
X18250000Y49783334D01*
X18250000Y49883334D01*
X18216666Y50016667D01*
X18183333Y50083334D01*
X18116666Y50150000D01*
X18016666Y50183334D01*
X17950000Y50183334D01*
X17850000Y50150000D01*
X17816666Y50116667D01*
X17416666Y49883334D02*
X17483333Y49916667D01*
X17516666Y49950000D01*
X17550000Y50016667D01*
X17550000Y50050000D01*
X17516666Y50116667D01*
X17483333Y50150000D01*
X17416666Y50183334D01*
X17283333Y50183334D01*
X17216666Y50150000D01*
X17183333Y50116667D01*
X17150000Y50050000D01*
X17150000Y50016667D01*
X17183333Y49950000D01*
X17216666Y49916667D01*
X17283333Y49883334D01*
X17416666Y49883334D01*
X17483333Y49850000D01*
X17516666Y49816667D01*
X17550000Y49750000D01*
X17550000Y49616667D01*
X17516666Y49550000D01*
X17483333Y49516667D01*
X17416666Y49483334D01*
X17283333Y49483334D01*
X17216666Y49516667D01*
X17183333Y49550000D01*
X17150000Y49616667D01*
X17150000Y49750000D01*
X17183333Y49816667D01*
X17216666Y49850000D01*
X17283333Y49883334D01*
X17750000Y28483334D02*
X17683333Y28483334D01*
X17616666Y28450000D01*
X17583333Y28416667D01*
X17550000Y28350000D01*
X17516666Y28216667D01*
X17516666Y28050000D01*
X17550000Y27916667D01*
X17583333Y27850000D01*
X17616666Y27816667D01*
X17683333Y27783334D01*
X17750000Y27783334D01*
X17816666Y27816667D01*
X17850000Y27850000D01*
X17883333Y27916667D01*
X17916666Y28050000D01*
X17916666Y28216667D01*
X17883333Y28350000D01*
X17850000Y28416667D01*
X17816666Y28450000D01*
X17750000Y28483334D01*
X17216666Y27850000D02*
X17183333Y27816667D01*
X17216666Y27783334D01*
X17250000Y27816667D01*
X17216666Y27850000D01*
X17216666Y27783334D01*
X16516666Y27783334D02*
X16916666Y27783334D01*
X16716666Y27783334D02*
X16716666Y28483334D01*
X16783333Y28383334D01*
X16850000Y28316667D01*
X16916666Y28283334D01*
X15916666Y28250000D02*
X15916666Y27783334D01*
X16216666Y28250000D02*
X16216666Y27883334D01*
X16183333Y27816667D01*
X16116666Y27783334D01*
X16016666Y27783334D01*
X15950000Y27816667D01*
X15916666Y27850000D01*
X15350000Y28150000D02*
X15583333Y28150000D01*
X15583333Y27783334D02*
X15583333Y28483334D01*
X15250000Y28483334D01*
X17516666Y28850000D02*
X17550000Y28816667D01*
X17650000Y28783334D01*
X17716666Y28783334D01*
X17816666Y28816667D01*
X17883333Y28883334D01*
X17916666Y28950000D01*
X17950000Y29083334D01*
X17950000Y29183334D01*
X17916666Y29316667D01*
X17883333Y29383334D01*
X17816666Y29450000D01*
X17716666Y29483334D01*
X17650000Y29483334D01*
X17550000Y29450000D01*
X17516666Y29416667D01*
X17183333Y28783334D02*
X17050000Y28783334D01*
X16983333Y28816667D01*
X16950000Y28850000D01*
X16883333Y28950000D01*
X16850000Y29083334D01*
X16850000Y29350000D01*
X16883333Y29416667D01*
X16916666Y29450000D01*
X16983333Y29483334D01*
X17116666Y29483334D01*
X17183333Y29450000D01*
X17216666Y29416667D01*
X17250000Y29350000D01*
X17250000Y29183334D01*
X17216666Y29116667D01*
X17183333Y29083334D01*
X17116666Y29050000D01*
X16983333Y29050000D01*
X16916666Y29083334D01*
X16883333Y29116667D01*
X16850000Y29183334D01*
X29664500Y16386334D02*
X29597833Y16386334D01*
X29531166Y16353000D01*
X29497833Y16319667D01*
X29464500Y16253000D01*
X29431166Y16119667D01*
X29431166Y15953000D01*
X29464500Y15819667D01*
X29497833Y15753000D01*
X29531166Y15719667D01*
X29597833Y15686334D01*
X29664500Y15686334D01*
X29731166Y15719667D01*
X29764500Y15753000D01*
X29797833Y15819667D01*
X29831166Y15953000D01*
X29831166Y16119667D01*
X29797833Y16253000D01*
X29764500Y16319667D01*
X29731166Y16353000D01*
X29664500Y16386334D01*
X29131166Y15753000D02*
X29097833Y15719667D01*
X29131166Y15686334D01*
X29164500Y15719667D01*
X29131166Y15753000D01*
X29131166Y15686334D01*
X28431166Y15686334D02*
X28831166Y15686334D01*
X28631166Y15686334D02*
X28631166Y16386334D01*
X28697833Y16286334D01*
X28764500Y16219667D01*
X28831166Y16186334D01*
X27831166Y16153000D02*
X27831166Y15686334D01*
X28131166Y16153000D02*
X28131166Y15786334D01*
X28097833Y15719667D01*
X28031166Y15686334D01*
X27931166Y15686334D01*
X27864500Y15719667D01*
X27831166Y15753000D01*
X27264500Y16053000D02*
X27497833Y16053000D01*
X27497833Y15686334D02*
X27497833Y16386334D01*
X27164500Y16386334D01*
X25027500Y15753000D02*
X25060833Y15719667D01*
X25160833Y15686334D01*
X25227500Y15686334D01*
X25327500Y15719667D01*
X25394166Y15786334D01*
X25427500Y15853000D01*
X25460833Y15986334D01*
X25460833Y16086334D01*
X25427500Y16219667D01*
X25394166Y16286334D01*
X25327500Y16353000D01*
X25227500Y16386334D01*
X25160833Y16386334D01*
X25060833Y16353000D01*
X25027500Y16319667D01*
X24360833Y15686334D02*
X24760833Y15686334D01*
X24560833Y15686334D02*
X24560833Y16386334D01*
X24627500Y16286334D01*
X24694166Y16219667D01*
X24760833Y16186334D01*
X23927500Y16386334D02*
X23860833Y16386334D01*
X23794166Y16353000D01*
X23760833Y16319667D01*
X23727500Y16253000D01*
X23694166Y16119667D01*
X23694166Y15953000D01*
X23727500Y15819667D01*
X23760833Y15753000D01*
X23794166Y15719667D01*
X23860833Y15686334D01*
X23927500Y15686334D01*
X23994166Y15719667D01*
X24027500Y15753000D01*
X24060833Y15819667D01*
X24094166Y15953000D01*
X24094166Y16119667D01*
X24060833Y16253000D01*
X24027500Y16319667D01*
X23994166Y16353000D01*
X23927500Y16386334D01*
X41200000Y60483334D02*
X41600000Y60483334D01*
X41400000Y60483334D02*
X41400000Y61183334D01*
X41466666Y61083334D01*
X41533333Y61016667D01*
X41600000Y60983334D01*
X40766666Y61183334D02*
X40700000Y61183334D01*
X40633333Y61150000D01*
X40600000Y61116667D01*
X40566666Y61050000D01*
X40533333Y60916667D01*
X40533333Y60750000D01*
X40566666Y60616667D01*
X40600000Y60550000D01*
X40633333Y60516667D01*
X40700000Y60483334D01*
X40766666Y60483334D01*
X40833333Y60516667D01*
X40866666Y60550000D01*
X40900000Y60616667D01*
X40933333Y60750000D01*
X40933333Y60916667D01*
X40900000Y61050000D01*
X40866666Y61116667D01*
X40833333Y61150000D01*
X40766666Y61183334D01*
X39933333Y60950000D02*
X39933333Y60483334D01*
X40233333Y60950000D02*
X40233333Y60583334D01*
X40200000Y60516667D01*
X40133333Y60483334D01*
X40033333Y60483334D01*
X39966666Y60516667D01*
X39933333Y60550000D01*
X39366666Y60850000D02*
X39600000Y60850000D01*
X39600000Y60483334D02*
X39600000Y61183334D01*
X39266666Y61183334D01*
X39066666Y60483334D02*
X38700000Y60950000D01*
X39066666Y60950000D02*
X38700000Y60483334D01*
X38466666Y61116667D02*
X38433333Y61150000D01*
X38366666Y61183334D01*
X38200000Y61183334D01*
X38133333Y61150000D01*
X38100000Y61116667D01*
X38066666Y61050000D01*
X38066666Y60983334D01*
X38100000Y60883334D01*
X38500000Y60483334D01*
X38066666Y60483334D01*
X37433333Y61183334D02*
X37766666Y61183334D01*
X37800000Y60850000D01*
X37766666Y60883334D01*
X37700000Y60916667D01*
X37533333Y60916667D01*
X37466666Y60883334D01*
X37433333Y60850000D01*
X37400000Y60783334D01*
X37400000Y60616667D01*
X37433333Y60550000D01*
X37466666Y60516667D01*
X37533333Y60483334D01*
X37700000Y60483334D01*
X37766666Y60516667D01*
X37800000Y60550000D01*
X37200000Y61183334D02*
X36966666Y60483334D01*
X36733333Y61183334D01*
X39450000Y61450000D02*
X39483333Y61416667D01*
X39583333Y61383334D01*
X39650000Y61383334D01*
X39750000Y61416667D01*
X39816666Y61483334D01*
X39850000Y61550000D01*
X39883333Y61683334D01*
X39883333Y61783334D01*
X39850000Y61916667D01*
X39816666Y61983334D01*
X39750000Y62050000D01*
X39650000Y62083334D01*
X39583333Y62083334D01*
X39483333Y62050000D01*
X39450000Y62016667D01*
X38783333Y61383334D02*
X39183333Y61383334D01*
X38983333Y61383334D02*
X38983333Y62083334D01*
X39050000Y61983334D01*
X39116666Y61916667D01*
X39183333Y61883334D01*
X38116666Y61383334D02*
X38516666Y61383334D01*
X38316666Y61383334D02*
X38316666Y62083334D01*
X38383333Y61983334D01*
X38450000Y61916667D01*
X38516666Y61883334D01*
X12000000Y88083334D02*
X12400000Y88083334D01*
X12200000Y88083334D02*
X12200000Y88783334D01*
X12266666Y88683334D01*
X12333333Y88616667D01*
X12400000Y88583334D01*
X11566666Y88783334D02*
X11500000Y88783334D01*
X11433333Y88750000D01*
X11400000Y88716667D01*
X11366666Y88650000D01*
X11333333Y88516667D01*
X11333333Y88350000D01*
X11366666Y88216667D01*
X11400000Y88150000D01*
X11433333Y88116667D01*
X11500000Y88083334D01*
X11566666Y88083334D01*
X11633333Y88116667D01*
X11666666Y88150000D01*
X11700000Y88216667D01*
X11733333Y88350000D01*
X11733333Y88516667D01*
X11700000Y88650000D01*
X11666666Y88716667D01*
X11633333Y88750000D01*
X11566666Y88783334D01*
X10733333Y88550000D02*
X10733333Y88083334D01*
X11033333Y88550000D02*
X11033333Y88183334D01*
X11000000Y88116667D01*
X10933333Y88083334D01*
X10833333Y88083334D01*
X10766666Y88116667D01*
X10733333Y88150000D01*
X10166666Y88450000D02*
X10400000Y88450000D01*
X10400000Y88083334D02*
X10400000Y88783334D01*
X10066666Y88783334D01*
X9866666Y88083334D02*
X9500000Y88550000D01*
X9866666Y88550000D02*
X9500000Y88083334D01*
X9266666Y88716667D02*
X9233333Y88750000D01*
X9166666Y88783334D01*
X9000000Y88783334D01*
X8933333Y88750000D01*
X8900000Y88716667D01*
X8866666Y88650000D01*
X8866666Y88583334D01*
X8900000Y88483334D01*
X9300000Y88083334D01*
X8866666Y88083334D01*
X8233333Y88783334D02*
X8566666Y88783334D01*
X8600000Y88450000D01*
X8566666Y88483334D01*
X8500000Y88516667D01*
X8333333Y88516667D01*
X8266666Y88483334D01*
X8233333Y88450000D01*
X8200000Y88383334D01*
X8200000Y88216667D01*
X8233333Y88150000D01*
X8266666Y88116667D01*
X8333333Y88083334D01*
X8500000Y88083334D01*
X8566666Y88116667D01*
X8600000Y88150000D01*
X8000000Y88783334D02*
X7766666Y88083334D01*
X7533333Y88783334D01*
X10850000Y89050000D02*
X10883333Y89016667D01*
X10983333Y88983334D01*
X11050000Y88983334D01*
X11150000Y89016667D01*
X11216666Y89083334D01*
X11250000Y89150000D01*
X11283333Y89283334D01*
X11283333Y89383334D01*
X11250000Y89516667D01*
X11216666Y89583334D01*
X11150000Y89650000D01*
X11050000Y89683334D01*
X10983333Y89683334D01*
X10883333Y89650000D01*
X10850000Y89616667D01*
X10183333Y88983334D02*
X10583333Y88983334D01*
X10383333Y88983334D02*
X10383333Y89683334D01*
X10450000Y89583334D01*
X10516666Y89516667D01*
X10583333Y89483334D01*
X9916666Y89616667D02*
X9883333Y89650000D01*
X9816666Y89683334D01*
X9650000Y89683334D01*
X9583333Y89650000D01*
X9550000Y89616667D01*
X9516666Y89550000D01*
X9516666Y89483334D01*
X9550000Y89383334D01*
X9950000Y88983334D01*
X9516666Y88983334D01*
X39900000Y35683334D02*
X40300000Y35683334D01*
X40100000Y35683334D02*
X40100000Y36383334D01*
X40166666Y36283334D01*
X40233333Y36216667D01*
X40300000Y36183334D01*
X39466666Y36383334D02*
X39400000Y36383334D01*
X39333333Y36350000D01*
X39300000Y36316667D01*
X39266666Y36250000D01*
X39233333Y36116667D01*
X39233333Y35950000D01*
X39266666Y35816667D01*
X39300000Y35750000D01*
X39333333Y35716667D01*
X39400000Y35683334D01*
X39466666Y35683334D01*
X39533333Y35716667D01*
X39566666Y35750000D01*
X39600000Y35816667D01*
X39633333Y35950000D01*
X39633333Y36116667D01*
X39600000Y36250000D01*
X39566666Y36316667D01*
X39533333Y36350000D01*
X39466666Y36383334D01*
X38633333Y36150000D02*
X38633333Y35683334D01*
X38933333Y36150000D02*
X38933333Y35783334D01*
X38900000Y35716667D01*
X38833333Y35683334D01*
X38733333Y35683334D01*
X38666666Y35716667D01*
X38633333Y35750000D01*
X38066666Y36050000D02*
X38300000Y36050000D01*
X38300000Y35683334D02*
X38300000Y36383334D01*
X37966666Y36383334D01*
X37766666Y35683334D02*
X37400000Y36150000D01*
X37766666Y36150000D02*
X37400000Y35683334D01*
X37166666Y36316667D02*
X37133333Y36350000D01*
X37066666Y36383334D01*
X36900000Y36383334D01*
X36833333Y36350000D01*
X36800000Y36316667D01*
X36766666Y36250000D01*
X36766666Y36183334D01*
X36800000Y36083334D01*
X37200000Y35683334D01*
X36766666Y35683334D01*
X36133333Y36383334D02*
X36466666Y36383334D01*
X36500000Y36050000D01*
X36466666Y36083334D01*
X36400000Y36116667D01*
X36233333Y36116667D01*
X36166666Y36083334D01*
X36133333Y36050000D01*
X36100000Y35983334D01*
X36100000Y35816667D01*
X36133333Y35750000D01*
X36166666Y35716667D01*
X36233333Y35683334D01*
X36400000Y35683334D01*
X36466666Y35716667D01*
X36500000Y35750000D01*
X35900000Y36383334D02*
X35666666Y35683334D01*
X35433333Y36383334D01*
X39850000Y36650000D02*
X39883333Y36616667D01*
X39983333Y36583334D01*
X40050000Y36583334D01*
X40150000Y36616667D01*
X40216666Y36683334D01*
X40250000Y36750000D01*
X40283333Y36883334D01*
X40283333Y36983334D01*
X40250000Y37116667D01*
X40216666Y37183334D01*
X40150000Y37250000D01*
X40050000Y37283334D01*
X39983333Y37283334D01*
X39883333Y37250000D01*
X39850000Y37216667D01*
X39183333Y36583334D02*
X39583333Y36583334D01*
X39383333Y36583334D02*
X39383333Y37283334D01*
X39450000Y37183334D01*
X39516666Y37116667D01*
X39583333Y37083334D01*
X38950000Y37283334D02*
X38516666Y37283334D01*
X38750000Y37016667D01*
X38650000Y37016667D01*
X38583333Y36983334D01*
X38550000Y36950000D01*
X38516666Y36883334D01*
X38516666Y36716667D01*
X38550000Y36650000D01*
X38583333Y36616667D01*
X38650000Y36583334D01*
X38850000Y36583334D01*
X38916666Y36616667D01*
X38950000Y36650000D01*
X32683333Y53183334D02*
X32283333Y53183334D01*
X32483333Y52483334D02*
X32483333Y53183334D01*
X31716666Y52483334D02*
X32050000Y52483334D01*
X32050000Y53183334D01*
X31350000Y53183334D02*
X31283333Y53183334D01*
X31216666Y53150000D01*
X31183333Y53116667D01*
X31150000Y53050000D01*
X31116666Y52916667D01*
X31116666Y52750000D01*
X31150000Y52616667D01*
X31183333Y52550000D01*
X31216666Y52516667D01*
X31283333Y52483334D01*
X31350000Y52483334D01*
X31416666Y52516667D01*
X31450000Y52550000D01*
X31483333Y52616667D01*
X31516666Y52750000D01*
X31516666Y52916667D01*
X31483333Y53050000D01*
X31450000Y53116667D01*
X31416666Y53150000D01*
X31350000Y53183334D01*
X30883333Y53183334D02*
X30416666Y53183334D01*
X30716666Y52483334D01*
X29850000Y52950000D02*
X29850000Y52483334D01*
X30016666Y53216667D02*
X30183333Y52716667D01*
X29750000Y52716667D01*
X31316666Y53583334D02*
X31316666Y54283334D01*
X31150000Y54283334D01*
X31050000Y54250000D01*
X30983333Y54183334D01*
X30950000Y54116667D01*
X30916666Y53983334D01*
X30916666Y53883334D01*
X30950000Y53750000D01*
X30983333Y53683334D01*
X31050000Y53616667D01*
X31150000Y53583334D01*
X31316666Y53583334D01*
X30650000Y53783334D02*
X30316666Y53783334D01*
X30716666Y53583334D02*
X30483333Y54283334D01*
X30250000Y53583334D01*
X29650000Y53583334D02*
X30050000Y53583334D01*
X29850000Y53583334D02*
X29850000Y54283334D01*
X29916666Y54183334D01*
X29983333Y54116667D01*
X30050000Y54083334D01*
X13200000Y13683334D02*
X13600000Y13683334D01*
X13400000Y13683334D02*
X13400000Y14383334D01*
X13466666Y14283334D01*
X13533333Y14216667D01*
X13600000Y14183334D01*
X12900000Y13683334D02*
X12900000Y14383334D01*
X12500000Y13683334D01*
X12500000Y14383334D01*
X11866666Y14150000D02*
X11866666Y13683334D01*
X12033333Y14416667D02*
X12200000Y13916667D01*
X11766666Y13916667D01*
X11133333Y13683334D02*
X11533333Y13683334D01*
X11333333Y13683334D02*
X11333333Y14383334D01*
X11400000Y14283334D01*
X11466666Y14216667D01*
X11533333Y14183334D01*
X10533333Y14150000D02*
X10533333Y13683334D01*
X10700000Y14416667D02*
X10866666Y13916667D01*
X10433333Y13916667D01*
X10066666Y14083334D02*
X10133333Y14116667D01*
X10166666Y14150000D01*
X10200000Y14216667D01*
X10200000Y14250000D01*
X10166666Y14316667D01*
X10133333Y14350000D01*
X10066666Y14383334D01*
X9933333Y14383334D01*
X9866666Y14350000D01*
X9833333Y14316667D01*
X9800000Y14250000D01*
X9800000Y14216667D01*
X9833333Y14150000D01*
X9866666Y14116667D01*
X9933333Y14083334D01*
X10066666Y14083334D01*
X10133333Y14050000D01*
X10166666Y14016667D01*
X10200000Y13950000D01*
X10200000Y13816667D01*
X10166666Y13750000D01*
X10133333Y13716667D01*
X10066666Y13683334D01*
X9933333Y13683334D01*
X9866666Y13716667D01*
X9833333Y13750000D01*
X9800000Y13816667D01*
X9800000Y13950000D01*
X9833333Y14016667D01*
X9866666Y14050000D01*
X9933333Y14083334D01*
X16216666Y15383334D02*
X15983333Y14683334D01*
X15750000Y15383334D01*
X15516666Y14683334D02*
X15516666Y15383334D01*
X15350000Y15383334D01*
X15250000Y15350000D01*
X15183333Y15283334D01*
X15150000Y15216667D01*
X15116666Y15083334D01*
X15116666Y14983334D01*
X15150000Y14850000D01*
X15183333Y14783334D01*
X15250000Y14716667D01*
X15350000Y14683334D01*
X15516666Y14683334D01*
X14450000Y14683334D02*
X14850000Y14683334D01*
X14650000Y14683334D02*
X14650000Y15383334D01*
X14716666Y15283334D01*
X14783333Y15216667D01*
X14850000Y15183334D01*
X36416666Y15383334D02*
X36183333Y14683334D01*
X35950000Y15383334D01*
X35716666Y14683334D02*
X35716666Y15383334D01*
X35550000Y15383334D01*
X35450000Y15350000D01*
X35383333Y15283334D01*
X35350000Y15216667D01*
X35316666Y15083334D01*
X35316666Y14983334D01*
X35350000Y14850000D01*
X35383333Y14783334D01*
X35450000Y14716667D01*
X35550000Y14683334D01*
X35716666Y14683334D01*
X35050000Y15316667D02*
X35016666Y15350000D01*
X34950000Y15383334D01*
X34783333Y15383334D01*
X34716666Y15350000D01*
X34683333Y15316667D01*
X34650000Y15250000D01*
X34650000Y15183334D01*
X34683333Y15083334D01*
X35083333Y14683334D01*
X34650000Y14683334D01*
X34816666Y98883334D02*
X34583333Y98183334D01*
X34350000Y98883334D01*
X34116666Y98183334D02*
X34116666Y98883334D01*
X33950000Y98883334D01*
X33850000Y98850000D01*
X33783333Y98783334D01*
X33750000Y98716667D01*
X33716666Y98583334D01*
X33716666Y98483334D01*
X33750000Y98350000D01*
X33783333Y98283334D01*
X33850000Y98216667D01*
X33950000Y98183334D01*
X34116666Y98183334D01*
X33483333Y98883334D02*
X33050000Y98883334D01*
X33283333Y98616667D01*
X33183333Y98616667D01*
X33116666Y98583334D01*
X33083333Y98550000D01*
X33050000Y98483334D01*
X33050000Y98316667D01*
X33083333Y98250000D01*
X33116666Y98216667D01*
X33183333Y98183334D01*
X33383333Y98183334D01*
X33450000Y98216667D01*
X33483333Y98250000D01*
X30716666Y93183334D02*
X30483333Y92483334D01*
X30250000Y93183334D01*
X30016666Y92483334D02*
X30016666Y93183334D01*
X29850000Y93183334D01*
X29750000Y93150000D01*
X29683333Y93083334D01*
X29650000Y93016667D01*
X29616666Y92883334D01*
X29616666Y92783334D01*
X29650000Y92650000D01*
X29683333Y92583334D01*
X29750000Y92516667D01*
X29850000Y92483334D01*
X30016666Y92483334D01*
X29016666Y92950000D02*
X29016666Y92483334D01*
X29183333Y93216667D02*
X29350000Y92716667D01*
X28916666Y92716667D01*
X19316666Y20483334D02*
X19083333Y19783334D01*
X18850000Y20483334D01*
X18616666Y19783334D02*
X18616666Y20483334D01*
X18450000Y20483334D01*
X18350000Y20450000D01*
X18283333Y20383334D01*
X18250000Y20316667D01*
X18216666Y20183334D01*
X18216666Y20083334D01*
X18250000Y19950000D01*
X18283333Y19883334D01*
X18350000Y19816667D01*
X18450000Y19783334D01*
X18616666Y19783334D01*
X17583333Y20483334D02*
X17916666Y20483334D01*
X17950000Y20150000D01*
X17916666Y20183334D01*
X17850000Y20216667D01*
X17683333Y20216667D01*
X17616666Y20183334D01*
X17583333Y20150000D01*
X17550000Y20083334D01*
X17550000Y19916667D01*
X17583333Y19850000D01*
X17616666Y19816667D01*
X17683333Y19783334D01*
X17850000Y19783334D01*
X17916666Y19816667D01*
X17950000Y19850000D01*
X36516666Y20583334D02*
X36283333Y19883334D01*
X36050000Y20583334D01*
X35816666Y19883334D02*
X35816666Y20583334D01*
X35650000Y20583334D01*
X35550000Y20550000D01*
X35483333Y20483334D01*
X35450000Y20416667D01*
X35416666Y20283334D01*
X35416666Y20183334D01*
X35450000Y20050000D01*
X35483333Y19983334D01*
X35550000Y19916667D01*
X35650000Y19883334D01*
X35816666Y19883334D01*
X34816666Y20583334D02*
X34950000Y20583334D01*
X35016666Y20550000D01*
X35050000Y20516667D01*
X35116666Y20416667D01*
X35150000Y20283334D01*
X35150000Y20016667D01*
X35116666Y19950000D01*
X35083333Y19916667D01*
X35016666Y19883334D01*
X34883333Y19883334D01*
X34816666Y19916667D01*
X34783333Y19950000D01*
X34750000Y20016667D01*
X34750000Y20183334D01*
X34783333Y20250000D01*
X34816666Y20283334D01*
X34883333Y20316667D01*
X35016666Y20316667D01*
X35083333Y20283334D01*
X35116666Y20250000D01*
X35150000Y20183334D01*
X9000000Y37683334D02*
X9400000Y37683334D01*
X9200000Y37683334D02*
X9200000Y38383334D01*
X9266666Y38283334D01*
X9333333Y38216667D01*
X9400000Y38183334D01*
X8700000Y37683334D02*
X8700000Y38383334D01*
X8300000Y37683334D01*
X8300000Y38383334D01*
X7666666Y38150000D02*
X7666666Y37683334D01*
X7833333Y38416667D02*
X8000000Y37916667D01*
X7566666Y37916667D01*
X6933333Y37683334D02*
X7333333Y37683334D01*
X7133333Y37683334D02*
X7133333Y38383334D01*
X7200000Y38283334D01*
X7266666Y38216667D01*
X7333333Y38183334D01*
X6333333Y38150000D02*
X6333333Y37683334D01*
X6500000Y38416667D02*
X6666666Y37916667D01*
X6233333Y37916667D01*
X5866666Y38083334D02*
X5933333Y38116667D01*
X5966666Y38150000D01*
X6000000Y38216667D01*
X6000000Y38250000D01*
X5966666Y38316667D01*
X5933333Y38350000D01*
X5866666Y38383334D01*
X5733333Y38383334D01*
X5666666Y38350000D01*
X5633333Y38316667D01*
X5600000Y38250000D01*
X5600000Y38216667D01*
X5633333Y38150000D01*
X5666666Y38116667D01*
X5733333Y38083334D01*
X5866666Y38083334D01*
X5933333Y38050000D01*
X5966666Y38016667D01*
X6000000Y37950000D01*
X6000000Y37816667D01*
X5966666Y37750000D01*
X5933333Y37716667D01*
X5866666Y37683334D01*
X5733333Y37683334D01*
X5666666Y37716667D01*
X5633333Y37750000D01*
X5600000Y37816667D01*
X5600000Y37950000D01*
X5633333Y38016667D01*
X5666666Y38050000D01*
X5733333Y38083334D01*
X8716666Y39283334D02*
X8483333Y38583334D01*
X8250000Y39283334D01*
X8016666Y38583334D02*
X8016666Y39283334D01*
X7850000Y39283334D01*
X7750000Y39250000D01*
X7683333Y39183334D01*
X7650000Y39116667D01*
X7616666Y38983334D01*
X7616666Y38883334D01*
X7650000Y38750000D01*
X7683333Y38683334D01*
X7750000Y38616667D01*
X7850000Y38583334D01*
X8016666Y38583334D01*
X7383333Y39283334D02*
X6916666Y39283334D01*
X7216666Y38583334D01*
X8200000Y43883334D02*
X8600000Y43883334D01*
X8400000Y43883334D02*
X8400000Y44583334D01*
X8466666Y44483334D01*
X8533333Y44416667D01*
X8600000Y44383334D01*
X7900000Y43883334D02*
X7900000Y44583334D01*
X7500000Y43883334D01*
X7500000Y44583334D01*
X6866666Y44350000D02*
X6866666Y43883334D01*
X7033333Y44616667D02*
X7200000Y44116667D01*
X6766666Y44116667D01*
X6133333Y43883334D02*
X6533333Y43883334D01*
X6333333Y43883334D02*
X6333333Y44583334D01*
X6400000Y44483334D01*
X6466666Y44416667D01*
X6533333Y44383334D01*
X5533333Y44350000D02*
X5533333Y43883334D01*
X5700000Y44616667D02*
X5866666Y44116667D01*
X5433333Y44116667D01*
X5066666Y44283334D02*
X5133333Y44316667D01*
X5166666Y44350000D01*
X5200000Y44416667D01*
X5200000Y44450000D01*
X5166666Y44516667D01*
X5133333Y44550000D01*
X5066666Y44583334D01*
X4933333Y44583334D01*
X4866666Y44550000D01*
X4833333Y44516667D01*
X4800000Y44450000D01*
X4800000Y44416667D01*
X4833333Y44350000D01*
X4866666Y44316667D01*
X4933333Y44283334D01*
X5066666Y44283334D01*
X5133333Y44250000D01*
X5166666Y44216667D01*
X5200000Y44150000D01*
X5200000Y44016667D01*
X5166666Y43950000D01*
X5133333Y43916667D01*
X5066666Y43883334D01*
X4933333Y43883334D01*
X4866666Y43916667D01*
X4833333Y43950000D01*
X4800000Y44016667D01*
X4800000Y44150000D01*
X4833333Y44216667D01*
X4866666Y44250000D01*
X4933333Y44283334D01*
X7516666Y45383334D02*
X7283333Y44683334D01*
X7050000Y45383334D01*
X6816666Y44683334D02*
X6816666Y45383334D01*
X6650000Y45383334D01*
X6550000Y45350000D01*
X6483333Y45283334D01*
X6450000Y45216667D01*
X6416666Y45083334D01*
X6416666Y44983334D01*
X6450000Y44850000D01*
X6483333Y44783334D01*
X6550000Y44716667D01*
X6650000Y44683334D01*
X6816666Y44683334D01*
X6016666Y45083334D02*
X6083333Y45116667D01*
X6116666Y45150000D01*
X6150000Y45216667D01*
X6150000Y45250000D01*
X6116666Y45316667D01*
X6083333Y45350000D01*
X6016666Y45383334D01*
X5883333Y45383334D01*
X5816666Y45350000D01*
X5783333Y45316667D01*
X5750000Y45250000D01*
X5750000Y45216667D01*
X5783333Y45150000D01*
X5816666Y45116667D01*
X5883333Y45083334D01*
X6016666Y45083334D01*
X6083333Y45050000D01*
X6116666Y45016667D01*
X6150000Y44950000D01*
X6150000Y44816667D01*
X6116666Y44750000D01*
X6083333Y44716667D01*
X6016666Y44683334D01*
X5883333Y44683334D01*
X5816666Y44716667D01*
X5783333Y44750000D01*
X5750000Y44816667D01*
X5750000Y44950000D01*
X5783333Y45016667D01*
X5816666Y45050000D01*
X5883333Y45083334D01*
X43016666Y19483334D02*
X42783333Y18783334D01*
X42550000Y19483334D01*
X42316666Y18783334D02*
X42316666Y19483334D01*
X42150000Y19483334D01*
X42050000Y19450000D01*
X41983333Y19383334D01*
X41950000Y19316667D01*
X41916666Y19183334D01*
X41916666Y19083334D01*
X41950000Y18950000D01*
X41983333Y18883334D01*
X42050000Y18816667D01*
X42150000Y18783334D01*
X42316666Y18783334D01*
X41583333Y18783334D02*
X41450000Y18783334D01*
X41383333Y18816667D01*
X41350000Y18850000D01*
X41283333Y18950000D01*
X41250000Y19083334D01*
X41250000Y19350000D01*
X41283333Y19416667D01*
X41316666Y19450000D01*
X41383333Y19483334D01*
X41516666Y19483334D01*
X41583333Y19450000D01*
X41616666Y19416667D01*
X41650000Y19350000D01*
X41650000Y19183334D01*
X41616666Y19116667D01*
X41583333Y19083334D01*
X41516666Y19050000D01*
X41383333Y19050000D01*
X41316666Y19083334D01*
X41283333Y19116667D01*
X41250000Y19183334D01*
X44200000Y17483334D02*
X44600000Y17483334D01*
X44400000Y17483334D02*
X44400000Y18183334D01*
X44466666Y18083334D01*
X44533333Y18016667D01*
X44600000Y17983334D01*
X43900000Y17483334D02*
X43900000Y18183334D01*
X43500000Y17483334D01*
X43500000Y18183334D01*
X42866666Y17950000D02*
X42866666Y17483334D01*
X43033333Y18216667D02*
X43200000Y17716667D01*
X42766666Y17716667D01*
X42133333Y17483334D02*
X42533333Y17483334D01*
X42333333Y17483334D02*
X42333333Y18183334D01*
X42400000Y18083334D01*
X42466666Y18016667D01*
X42533333Y17983334D01*
X41533333Y17950000D02*
X41533333Y17483334D01*
X41700000Y18216667D02*
X41866666Y17716667D01*
X41433333Y17716667D01*
X41066666Y17883334D02*
X41133333Y17916667D01*
X41166666Y17950000D01*
X41200000Y18016667D01*
X41200000Y18050000D01*
X41166666Y18116667D01*
X41133333Y18150000D01*
X41066666Y18183334D01*
X40933333Y18183334D01*
X40866666Y18150000D01*
X40833333Y18116667D01*
X40800000Y18050000D01*
X40800000Y18016667D01*
X40833333Y17950000D01*
X40866666Y17916667D01*
X40933333Y17883334D01*
X41066666Y17883334D01*
X41133333Y17850000D01*
X41166666Y17816667D01*
X41200000Y17750000D01*
X41200000Y17616667D01*
X41166666Y17550000D01*
X41133333Y17516667D01*
X41066666Y17483334D01*
X40933333Y17483334D01*
X40866666Y17516667D01*
X40833333Y17550000D01*
X40800000Y17616667D01*
X40800000Y17750000D01*
X40833333Y17816667D01*
X40866666Y17850000D01*
X40933333Y17883334D01*
X41650000Y24483334D02*
X41416666Y23783334D01*
X41183333Y24483334D01*
X40950000Y23783334D02*
X40950000Y24483334D01*
X40783333Y24483334D01*
X40683333Y24450000D01*
X40616666Y24383334D01*
X40583333Y24316667D01*
X40550000Y24183334D01*
X40550000Y24083334D01*
X40583333Y23950000D01*
X40616666Y23883334D01*
X40683333Y23816667D01*
X40783333Y23783334D01*
X40950000Y23783334D01*
X39883333Y23783334D02*
X40283333Y23783334D01*
X40083333Y23783334D02*
X40083333Y24483334D01*
X40150000Y24383334D01*
X40216666Y24316667D01*
X40283333Y24283334D01*
X39450000Y24483334D02*
X39383333Y24483334D01*
X39316666Y24450000D01*
X39283333Y24416667D01*
X39250000Y24350000D01*
X39216666Y24216667D01*
X39216666Y24050000D01*
X39250000Y23916667D01*
X39283333Y23850000D01*
X39316666Y23816667D01*
X39383333Y23783334D01*
X39450000Y23783334D01*
X39516666Y23816667D01*
X39550000Y23850000D01*
X39583333Y23916667D01*
X39616666Y24050000D01*
X39616666Y24216667D01*
X39583333Y24350000D01*
X39550000Y24416667D01*
X39516666Y24450000D01*
X39450000Y24483334D01*
X34216666Y85583334D02*
X33983333Y84883334D01*
X33750000Y85583334D01*
X33116666Y84883334D02*
X33350000Y85216667D01*
X33516666Y84883334D02*
X33516666Y85583334D01*
X33250000Y85583334D01*
X33183333Y85550000D01*
X33150000Y85516667D01*
X33116666Y85450000D01*
X33116666Y85350000D01*
X33150000Y85283334D01*
X33183333Y85250000D01*
X33250000Y85216667D01*
X33516666Y85216667D01*
X32850000Y85516667D02*
X32816666Y85550000D01*
X32750000Y85583334D01*
X32583333Y85583334D01*
X32516666Y85550000D01*
X32483333Y85516667D01*
X32450000Y85450000D01*
X32450000Y85383334D01*
X32483333Y85283334D01*
X32883333Y84883334D01*
X32450000Y84883334D01*
X31333333Y69183334D02*
X31100000Y68483334D01*
X30866666Y69183334D01*
X30733333Y69183334D02*
X30333333Y69183334D01*
X30533333Y68483334D02*
X30533333Y69183334D01*
X29733333Y68483334D02*
X30133333Y68483334D01*
X29933333Y68483334D02*
X29933333Y69183334D01*
X30000000Y69083334D01*
X30066666Y69016667D01*
X30133333Y68983334D01*
X39650000Y69883334D02*
X39583333Y69883334D01*
X39516666Y69850000D01*
X39483333Y69816667D01*
X39450000Y69750000D01*
X39416666Y69616667D01*
X39416666Y69450000D01*
X39450000Y69316667D01*
X39483333Y69250000D01*
X39516666Y69216667D01*
X39583333Y69183334D01*
X39650000Y69183334D01*
X39716666Y69216667D01*
X39750000Y69250000D01*
X39783333Y69316667D01*
X39816666Y69450000D01*
X39816666Y69616667D01*
X39783333Y69750000D01*
X39750000Y69816667D01*
X39716666Y69850000D01*
X39650000Y69883334D01*
X39116666Y69250000D02*
X39083333Y69216667D01*
X39116666Y69183334D01*
X39150000Y69216667D01*
X39116666Y69250000D01*
X39116666Y69183334D01*
X38416666Y69183334D02*
X38816666Y69183334D01*
X38616666Y69183334D02*
X38616666Y69883334D01*
X38683333Y69783334D01*
X38750000Y69716667D01*
X38816666Y69683334D01*
X37816666Y69650000D02*
X37816666Y69183334D01*
X38116666Y69650000D02*
X38116666Y69283334D01*
X38083333Y69216667D01*
X38016666Y69183334D01*
X37916666Y69183334D01*
X37850000Y69216667D01*
X37816666Y69250000D01*
X37250000Y69550000D02*
X37483333Y69550000D01*
X37483333Y69183334D02*
X37483333Y69883334D01*
X37150000Y69883334D01*
X38450000Y70250000D02*
X38483333Y70216667D01*
X38583333Y70183334D01*
X38650000Y70183334D01*
X38750000Y70216667D01*
X38816666Y70283334D01*
X38850000Y70350000D01*
X38883333Y70483334D01*
X38883333Y70583334D01*
X38850000Y70716667D01*
X38816666Y70783334D01*
X38750000Y70850000D01*
X38650000Y70883334D01*
X38583333Y70883334D01*
X38483333Y70850000D01*
X38450000Y70816667D01*
X37783333Y70183334D02*
X38183333Y70183334D01*
X37983333Y70183334D02*
X37983333Y70883334D01*
X38050000Y70783334D01*
X38116666Y70716667D01*
X38183333Y70683334D01*
X37183333Y70650000D02*
X37183333Y70183334D01*
X37350000Y70916667D02*
X37516666Y70416667D01*
X37083333Y70416667D01*
X38635500Y80280334D02*
X38568833Y80280334D01*
X38502166Y80247000D01*
X38468833Y80213667D01*
X38435500Y80147000D01*
X38402166Y80013667D01*
X38402166Y79847000D01*
X38435500Y79713667D01*
X38468833Y79647000D01*
X38502166Y79613667D01*
X38568833Y79580334D01*
X38635500Y79580334D01*
X38702166Y79613667D01*
X38735500Y79647000D01*
X38768833Y79713667D01*
X38802166Y79847000D01*
X38802166Y80013667D01*
X38768833Y80147000D01*
X38735500Y80213667D01*
X38702166Y80247000D01*
X38635500Y80280334D01*
X38102166Y79647000D02*
X38068833Y79613667D01*
X38102166Y79580334D01*
X38135500Y79613667D01*
X38102166Y79647000D01*
X38102166Y79580334D01*
X37402166Y79580334D02*
X37802166Y79580334D01*
X37602166Y79580334D02*
X37602166Y80280334D01*
X37668833Y80180334D01*
X37735500Y80113667D01*
X37802166Y80080334D01*
X36802166Y80047000D02*
X36802166Y79580334D01*
X37102166Y80047000D02*
X37102166Y79680334D01*
X37068833Y79613667D01*
X37002166Y79580334D01*
X36902166Y79580334D01*
X36835500Y79613667D01*
X36802166Y79647000D01*
X36235500Y79947000D02*
X36468833Y79947000D01*
X36468833Y79580334D02*
X36468833Y80280334D01*
X36135500Y80280334D01*
X41872500Y79647000D02*
X41905833Y79613667D01*
X42005833Y79580334D01*
X42072500Y79580334D01*
X42172500Y79613667D01*
X42239166Y79680334D01*
X42272500Y79747000D01*
X42305833Y79880334D01*
X42305833Y79980334D01*
X42272500Y80113667D01*
X42239166Y80180334D01*
X42172500Y80247000D01*
X42072500Y80280334D01*
X42005833Y80280334D01*
X41905833Y80247000D01*
X41872500Y80213667D01*
X41205833Y79580334D02*
X41605833Y79580334D01*
X41405833Y79580334D02*
X41405833Y80280334D01*
X41472500Y80180334D01*
X41539166Y80113667D01*
X41605833Y80080334D01*
X40572500Y80280334D02*
X40905833Y80280334D01*
X40939166Y79947000D01*
X40905833Y79980334D01*
X40839166Y80013667D01*
X40672500Y80013667D01*
X40605833Y79980334D01*
X40572500Y79947000D01*
X40539166Y79880334D01*
X40539166Y79713667D01*
X40572500Y79647000D01*
X40605833Y79613667D01*
X40672500Y79580334D01*
X40839166Y79580334D01*
X40905833Y79613667D01*
X40939166Y79647000D01*
X10450000Y65983334D02*
X10383333Y65983334D01*
X10316666Y65950000D01*
X10283333Y65916667D01*
X10250000Y65850000D01*
X10216666Y65716667D01*
X10216666Y65550000D01*
X10250000Y65416667D01*
X10283333Y65350000D01*
X10316666Y65316667D01*
X10383333Y65283334D01*
X10450000Y65283334D01*
X10516666Y65316667D01*
X10550000Y65350000D01*
X10583333Y65416667D01*
X10616666Y65550000D01*
X10616666Y65716667D01*
X10583333Y65850000D01*
X10550000Y65916667D01*
X10516666Y65950000D01*
X10450000Y65983334D01*
X9916666Y65350000D02*
X9883333Y65316667D01*
X9916666Y65283334D01*
X9950000Y65316667D01*
X9916666Y65350000D01*
X9916666Y65283334D01*
X9216666Y65283334D02*
X9616666Y65283334D01*
X9416666Y65283334D02*
X9416666Y65983334D01*
X9483333Y65883334D01*
X9550000Y65816667D01*
X9616666Y65783334D01*
X8616666Y65750000D02*
X8616666Y65283334D01*
X8916666Y65750000D02*
X8916666Y65383334D01*
X8883333Y65316667D01*
X8816666Y65283334D01*
X8716666Y65283334D01*
X8650000Y65316667D01*
X8616666Y65350000D01*
X8050000Y65650000D02*
X8283333Y65650000D01*
X8283333Y65283334D02*
X8283333Y65983334D01*
X7950000Y65983334D01*
X9750000Y66150000D02*
X9783333Y66116667D01*
X9883333Y66083334D01*
X9950000Y66083334D01*
X10050000Y66116667D01*
X10116666Y66183334D01*
X10150000Y66250000D01*
X10183333Y66383334D01*
X10183333Y66483334D01*
X10150000Y66616667D01*
X10116666Y66683334D01*
X10050000Y66750000D01*
X9950000Y66783334D01*
X9883333Y66783334D01*
X9783333Y66750000D01*
X9750000Y66716667D01*
X9083333Y66083334D02*
X9483333Y66083334D01*
X9283333Y66083334D02*
X9283333Y66783334D01*
X9350000Y66683334D01*
X9416666Y66616667D01*
X9483333Y66583334D01*
X8483333Y66783334D02*
X8616666Y66783334D01*
X8683333Y66750000D01*
X8716666Y66716667D01*
X8783333Y66616667D01*
X8816666Y66483334D01*
X8816666Y66216667D01*
X8783333Y66150000D01*
X8750000Y66116667D01*
X8683333Y66083334D01*
X8550000Y66083334D01*
X8483333Y66116667D01*
X8450000Y66150000D01*
X8416666Y66216667D01*
X8416666Y66383334D01*
X8450000Y66450000D01*
X8483333Y66483334D01*
X8550000Y66516667D01*
X8683333Y66516667D01*
X8750000Y66483334D01*
X8783333Y66450000D01*
X8816666Y66383334D01*
X20650000Y69883334D02*
X20583333Y69883334D01*
X20516666Y69850000D01*
X20483333Y69816667D01*
X20450000Y69750000D01*
X20416666Y69616667D01*
X20416666Y69450000D01*
X20450000Y69316667D01*
X20483333Y69250000D01*
X20516666Y69216667D01*
X20583333Y69183334D01*
X20650000Y69183334D01*
X20716666Y69216667D01*
X20750000Y69250000D01*
X20783333Y69316667D01*
X20816666Y69450000D01*
X20816666Y69616667D01*
X20783333Y69750000D01*
X20750000Y69816667D01*
X20716666Y69850000D01*
X20650000Y69883334D01*
X20116666Y69250000D02*
X20083333Y69216667D01*
X20116666Y69183334D01*
X20150000Y69216667D01*
X20116666Y69250000D01*
X20116666Y69183334D01*
X19416666Y69183334D02*
X19816666Y69183334D01*
X19616666Y69183334D02*
X19616666Y69883334D01*
X19683333Y69783334D01*
X19750000Y69716667D01*
X19816666Y69683334D01*
X18816666Y69650000D02*
X18816666Y69183334D01*
X19116666Y69650000D02*
X19116666Y69283334D01*
X19083333Y69216667D01*
X19016666Y69183334D01*
X18916666Y69183334D01*
X18850000Y69216667D01*
X18816666Y69250000D01*
X18250000Y69550000D02*
X18483333Y69550000D01*
X18483333Y69183334D02*
X18483333Y69883334D01*
X18150000Y69883334D01*
X23150000Y69250000D02*
X23183333Y69216667D01*
X23283333Y69183334D01*
X23350000Y69183334D01*
X23450000Y69216667D01*
X23516666Y69283334D01*
X23550000Y69350000D01*
X23583333Y69483334D01*
X23583333Y69583334D01*
X23550000Y69716667D01*
X23516666Y69783334D01*
X23450000Y69850000D01*
X23350000Y69883334D01*
X23283333Y69883334D01*
X23183333Y69850000D01*
X23150000Y69816667D01*
X22483333Y69183334D02*
X22883333Y69183334D01*
X22683333Y69183334D02*
X22683333Y69883334D01*
X22750000Y69783334D01*
X22816666Y69716667D01*
X22883333Y69683334D01*
X22250000Y69883334D02*
X21783333Y69883334D01*
X22083333Y69183334D01*
X33883333Y27283334D02*
X33483333Y27283334D01*
X33683333Y26583334D02*
X33683333Y27283334D01*
X32916666Y26583334D02*
X33250000Y26583334D01*
X33250000Y27283334D01*
X32550000Y27283334D02*
X32483333Y27283334D01*
X32416666Y27250000D01*
X32383333Y27216667D01*
X32350000Y27150000D01*
X32316666Y27016667D01*
X32316666Y26850000D01*
X32350000Y26716667D01*
X32383333Y26650000D01*
X32416666Y26616667D01*
X32483333Y26583334D01*
X32550000Y26583334D01*
X32616666Y26616667D01*
X32650000Y26650000D01*
X32683333Y26716667D01*
X32716666Y26850000D01*
X32716666Y27016667D01*
X32683333Y27150000D01*
X32650000Y27216667D01*
X32616666Y27250000D01*
X32550000Y27283334D01*
X32083333Y27283334D02*
X31616666Y27283334D01*
X31916666Y26583334D01*
X31383333Y27216667D02*
X31350000Y27250000D01*
X31283333Y27283334D01*
X31116666Y27283334D01*
X31050000Y27250000D01*
X31016666Y27216667D01*
X30983333Y27150000D01*
X30983333Y27083334D01*
X31016666Y26983334D01*
X31416666Y26583334D01*
X30983333Y26583334D01*
X32716666Y27683334D02*
X32716666Y28383334D01*
X32550000Y28383334D01*
X32450000Y28350000D01*
X32383333Y28283334D01*
X32350000Y28216667D01*
X32316666Y28083334D01*
X32316666Y27983334D01*
X32350000Y27850000D01*
X32383333Y27783334D01*
X32450000Y27716667D01*
X32550000Y27683334D01*
X32716666Y27683334D01*
X32050000Y27883334D02*
X31716666Y27883334D01*
X32116666Y27683334D02*
X31883333Y28383334D01*
X31650000Y27683334D01*
X31450000Y28316667D02*
X31416666Y28350000D01*
X31350000Y28383334D01*
X31183333Y28383334D01*
X31116666Y28350000D01*
X31083333Y28316667D01*
X31050000Y28250000D01*
X31050000Y28183334D01*
X31083333Y28083334D01*
X31483333Y27683334D01*
X31050000Y27683334D01*
X20050000Y89550000D02*
X20050000Y89083334D01*
X20216666Y89816667D02*
X20383333Y89316667D01*
X19950000Y89316667D01*
X19683333Y89150000D02*
X19650000Y89116667D01*
X19683333Y89083334D01*
X19716666Y89116667D01*
X19683333Y89150000D01*
X19683333Y89083334D01*
X19416666Y89783334D02*
X18950000Y89783334D01*
X19250000Y89083334D01*
X18683333Y89083334D02*
X18683333Y89783334D01*
X18616666Y89350000D02*
X18416666Y89083334D01*
X18416666Y89550000D02*
X18683333Y89283334D01*
X19116666Y90083334D02*
X19350000Y90416667D01*
X19516666Y90083334D02*
X19516666Y90783334D01*
X19250000Y90783334D01*
X19183333Y90750000D01*
X19150000Y90716667D01*
X19116666Y90650000D01*
X19116666Y90550000D01*
X19150000Y90483334D01*
X19183333Y90450000D01*
X19250000Y90416667D01*
X19516666Y90416667D01*
X18850000Y90716667D02*
X18816666Y90750000D01*
X18750000Y90783334D01*
X18583333Y90783334D01*
X18516666Y90750000D01*
X18483333Y90716667D01*
X18450000Y90650000D01*
X18450000Y90583334D01*
X18483333Y90483334D01*
X18883333Y90083334D01*
X18450000Y90083334D01*
X25566666Y86083334D02*
X25566666Y86783334D01*
X25166666Y86083334D01*
X25166666Y86783334D01*
X24833333Y86783334D02*
X24833333Y86216667D01*
X24800000Y86150000D01*
X24766666Y86116667D01*
X24700000Y86083334D01*
X24566666Y86083334D01*
X24500000Y86116667D01*
X24466666Y86150000D01*
X24433333Y86216667D01*
X24433333Y86783334D01*
X26616666Y86083334D02*
X26850000Y86416667D01*
X27016666Y86083334D02*
X27016666Y86783334D01*
X26750000Y86783334D01*
X26683333Y86750000D01*
X26650000Y86716667D01*
X26616666Y86650000D01*
X26616666Y86550000D01*
X26650000Y86483334D01*
X26683333Y86450000D01*
X26750000Y86416667D01*
X27016666Y86416667D01*
X26016666Y86550000D02*
X26016666Y86083334D01*
X26183333Y86816667D02*
X26350000Y86316667D01*
X25916666Y86316667D01*
X17666666Y85983334D02*
X17666666Y86683334D01*
X17266666Y85983334D01*
X17266666Y86683334D01*
X16933333Y86683334D02*
X16933333Y86116667D01*
X16900000Y86050000D01*
X16866666Y86016667D01*
X16800000Y85983334D01*
X16666666Y85983334D01*
X16600000Y86016667D01*
X16566666Y86050000D01*
X16533333Y86116667D01*
X16533333Y86683334D01*
X17316666Y86883334D02*
X17550000Y87216667D01*
X17716666Y86883334D02*
X17716666Y87583334D01*
X17450000Y87583334D01*
X17383333Y87550000D01*
X17350000Y87516667D01*
X17316666Y87450000D01*
X17316666Y87350000D01*
X17350000Y87283334D01*
X17383333Y87250000D01*
X17450000Y87216667D01*
X17716666Y87216667D01*
X16683333Y87583334D02*
X17016666Y87583334D01*
X17050000Y87250000D01*
X17016666Y87283334D01*
X16950000Y87316667D01*
X16783333Y87316667D01*
X16716666Y87283334D01*
X16683333Y87250000D01*
X16650000Y87183334D01*
X16650000Y87016667D01*
X16683333Y86950000D01*
X16716666Y86916667D01*
X16783333Y86883334D01*
X16950000Y86883334D01*
X17016666Y86916667D01*
X17050000Y86950000D01*
X5750000Y15583334D02*
X6150000Y15583334D01*
X5950000Y15583334D02*
X5950000Y16283334D01*
X6016666Y16183334D01*
X6083333Y16116667D01*
X6150000Y16083334D01*
X5316666Y16283334D02*
X5250000Y16283334D01*
X5183333Y16250000D01*
X5150000Y16216667D01*
X5116666Y16150000D01*
X5083333Y16016667D01*
X5083333Y15850000D01*
X5116666Y15716667D01*
X5150000Y15650000D01*
X5183333Y15616667D01*
X5250000Y15583334D01*
X5316666Y15583334D01*
X5383333Y15616667D01*
X5416666Y15650000D01*
X5450000Y15716667D01*
X5483333Y15850000D01*
X5483333Y16016667D01*
X5450000Y16150000D01*
X5416666Y16216667D01*
X5383333Y16250000D01*
X5316666Y16283334D01*
X4650000Y16283334D02*
X4583333Y16283334D01*
X4516666Y16250000D01*
X4483333Y16216667D01*
X4450000Y16150000D01*
X4416666Y16016667D01*
X4416666Y15850000D01*
X4450000Y15716667D01*
X4483333Y15650000D01*
X4516666Y15616667D01*
X4583333Y15583334D01*
X4650000Y15583334D01*
X4716666Y15616667D01*
X4750000Y15650000D01*
X4783333Y15716667D01*
X4816666Y15850000D01*
X4816666Y16016667D01*
X4783333Y16150000D01*
X4750000Y16216667D01*
X4716666Y16250000D01*
X4650000Y16283334D01*
X4116666Y15583334D02*
X4116666Y16283334D01*
X4050000Y15850000D02*
X3850000Y15583334D01*
X3850000Y16050000D02*
X4116666Y15783334D01*
X5116666Y16483334D02*
X5350000Y16816667D01*
X5516666Y16483334D02*
X5516666Y17183334D01*
X5250000Y17183334D01*
X5183333Y17150000D01*
X5150000Y17116667D01*
X5116666Y17050000D01*
X5116666Y16950000D01*
X5150000Y16883334D01*
X5183333Y16850000D01*
X5250000Y16816667D01*
X5516666Y16816667D01*
X4516666Y17183334D02*
X4650000Y17183334D01*
X4716666Y17150000D01*
X4750000Y17116667D01*
X4816666Y17016667D01*
X4850000Y16883334D01*
X4850000Y16616667D01*
X4816666Y16550000D01*
X4783333Y16516667D01*
X4716666Y16483334D01*
X4583333Y16483334D01*
X4516666Y16516667D01*
X4483333Y16550000D01*
X4450000Y16616667D01*
X4450000Y16783334D01*
X4483333Y16850000D01*
X4516666Y16883334D01*
X4583333Y16916667D01*
X4716666Y16916667D01*
X4783333Y16883334D01*
X4816666Y16850000D01*
X4850000Y16783334D01*
X9116666Y16383334D02*
X9516666Y16383334D01*
X9316666Y16383334D02*
X9316666Y17083334D01*
X9383333Y16983334D01*
X9450000Y16916667D01*
X9516666Y16883334D01*
X8683333Y17083334D02*
X8616666Y17083334D01*
X8550000Y17050000D01*
X8516666Y17016667D01*
X8483333Y16950000D01*
X8450000Y16816667D01*
X8450000Y16650000D01*
X8483333Y16516667D01*
X8516666Y16450000D01*
X8550000Y16416667D01*
X8616666Y16383334D01*
X8683333Y16383334D01*
X8750000Y16416667D01*
X8783333Y16450000D01*
X8816666Y16516667D01*
X8850000Y16650000D01*
X8850000Y16816667D01*
X8816666Y16950000D01*
X8783333Y17016667D01*
X8750000Y17050000D01*
X8683333Y17083334D01*
X8150000Y16383334D02*
X8150000Y17083334D01*
X8083333Y16650000D02*
X7883333Y16383334D01*
X7883333Y16850000D02*
X8150000Y16583334D01*
X8916666Y17483334D02*
X9150000Y17816667D01*
X9316666Y17483334D02*
X9316666Y18183334D01*
X9050000Y18183334D01*
X8983333Y18150000D01*
X8950000Y18116667D01*
X8916666Y18050000D01*
X8916666Y17950000D01*
X8950000Y17883334D01*
X8983333Y17850000D01*
X9050000Y17816667D01*
X9316666Y17816667D01*
X8583333Y17483334D02*
X8450000Y17483334D01*
X8383333Y17516667D01*
X8350000Y17550000D01*
X8283333Y17650000D01*
X8250000Y17783334D01*
X8250000Y18050000D01*
X8283333Y18116667D01*
X8316666Y18150000D01*
X8383333Y18183334D01*
X8516666Y18183334D01*
X8583333Y18150000D01*
X8616666Y18116667D01*
X8650000Y18050000D01*
X8650000Y17883334D01*
X8616666Y17816667D01*
X8583333Y17783334D01*
X8516666Y17750000D01*
X8383333Y17750000D01*
X8316666Y17783334D01*
X8283333Y17816667D01*
X8250000Y17883334D01*
X33116666Y19983334D02*
X33516666Y19983334D01*
X33316666Y19983334D02*
X33316666Y20683334D01*
X33383333Y20583334D01*
X33450000Y20516667D01*
X33516666Y20483334D01*
X32683333Y20683334D02*
X32616666Y20683334D01*
X32550000Y20650000D01*
X32516666Y20616667D01*
X32483333Y20550000D01*
X32450000Y20416667D01*
X32450000Y20250000D01*
X32483333Y20116667D01*
X32516666Y20050000D01*
X32550000Y20016667D01*
X32616666Y19983334D01*
X32683333Y19983334D01*
X32750000Y20016667D01*
X32783333Y20050000D01*
X32816666Y20116667D01*
X32850000Y20250000D01*
X32850000Y20416667D01*
X32816666Y20550000D01*
X32783333Y20616667D01*
X32750000Y20650000D01*
X32683333Y20683334D01*
X32150000Y19983334D02*
X32150000Y20683334D01*
X32083333Y20250000D02*
X31883333Y19983334D01*
X31883333Y20450000D02*
X32150000Y20183334D01*
X32250000Y23783334D02*
X32483333Y24116667D01*
X32650000Y23783334D02*
X32650000Y24483334D01*
X32383333Y24483334D01*
X32316666Y24450000D01*
X32283333Y24416667D01*
X32250000Y24350000D01*
X32250000Y24250000D01*
X32283333Y24183334D01*
X32316666Y24150000D01*
X32383333Y24116667D01*
X32650000Y24116667D01*
X31583333Y23783334D02*
X31983333Y23783334D01*
X31783333Y23783334D02*
X31783333Y24483334D01*
X31850000Y24383334D01*
X31916666Y24316667D01*
X31983333Y24283334D01*
X31150000Y24483334D02*
X31083333Y24483334D01*
X31016666Y24450000D01*
X30983333Y24416667D01*
X30950000Y24350000D01*
X30916666Y24216667D01*
X30916666Y24050000D01*
X30950000Y23916667D01*
X30983333Y23850000D01*
X31016666Y23816667D01*
X31083333Y23783334D01*
X31150000Y23783334D01*
X31216666Y23816667D01*
X31250000Y23850000D01*
X31283333Y23916667D01*
X31316666Y24050000D01*
X31316666Y24216667D01*
X31283333Y24350000D01*
X31250000Y24416667D01*
X31216666Y24450000D01*
X31150000Y24483334D01*
X8816666Y47583334D02*
X9216666Y47583334D01*
X9016666Y47583334D02*
X9016666Y48283334D01*
X9083333Y48183334D01*
X9150000Y48116667D01*
X9216666Y48083334D01*
X8383333Y48283334D02*
X8316666Y48283334D01*
X8250000Y48250000D01*
X8216666Y48216667D01*
X8183333Y48150000D01*
X8150000Y48016667D01*
X8150000Y47850000D01*
X8183333Y47716667D01*
X8216666Y47650000D01*
X8250000Y47616667D01*
X8316666Y47583334D01*
X8383333Y47583334D01*
X8450000Y47616667D01*
X8483333Y47650000D01*
X8516666Y47716667D01*
X8550000Y47850000D01*
X8550000Y48016667D01*
X8516666Y48150000D01*
X8483333Y48216667D01*
X8450000Y48250000D01*
X8383333Y48283334D01*
X7850000Y47583334D02*
X7850000Y48283334D01*
X7783333Y47850000D02*
X7583333Y47583334D01*
X7583333Y48050000D02*
X7850000Y47783334D01*
X8750000Y48483334D02*
X8983333Y48816667D01*
X9150000Y48483334D02*
X9150000Y49183334D01*
X8883333Y49183334D01*
X8816666Y49150000D01*
X8783333Y49116667D01*
X8750000Y49050000D01*
X8750000Y48950000D01*
X8783333Y48883334D01*
X8816666Y48850000D01*
X8883333Y48816667D01*
X9150000Y48816667D01*
X8083333Y48483334D02*
X8483333Y48483334D01*
X8283333Y48483334D02*
X8283333Y49183334D01*
X8350000Y49083334D01*
X8416666Y49016667D01*
X8483333Y48983334D01*
X7816666Y49116667D02*
X7783333Y49150000D01*
X7716666Y49183334D01*
X7550000Y49183334D01*
X7483333Y49150000D01*
X7450000Y49116667D01*
X7416666Y49050000D01*
X7416666Y48983334D01*
X7450000Y48883334D01*
X7850000Y48483334D01*
X7416666Y48483334D01*
X14283333Y20783334D02*
X14150000Y20783334D01*
X14083333Y20750000D01*
X14016666Y20683334D01*
X13983333Y20550000D01*
X13983333Y20316667D01*
X14016666Y20183334D01*
X14083333Y20116667D01*
X14150000Y20083334D01*
X14283333Y20083334D01*
X14350000Y20116667D01*
X14416666Y20183334D01*
X14450000Y20316667D01*
X14450000Y20550000D01*
X14416666Y20683334D01*
X14350000Y20750000D01*
X14283333Y20783334D01*
X13683333Y20083334D02*
X13683333Y20783334D01*
X13416666Y20783334D01*
X13350000Y20750000D01*
X13316666Y20716667D01*
X13283333Y20650000D01*
X13283333Y20550000D01*
X13316666Y20483334D01*
X13350000Y20450000D01*
X13416666Y20416667D01*
X13683333Y20416667D01*
X13083333Y20783334D02*
X12683333Y20783334D01*
X12883333Y20083334D02*
X12883333Y20783334D01*
X12450000Y20083334D02*
X12450000Y20783334D01*
X11983333Y20783334D02*
X11850000Y20783334D01*
X11783333Y20750000D01*
X11716666Y20683334D01*
X11683333Y20550000D01*
X11683333Y20316667D01*
X11716666Y20183334D01*
X11783333Y20116667D01*
X11850000Y20083334D01*
X11983333Y20083334D01*
X12050000Y20116667D01*
X12116666Y20183334D01*
X12150000Y20316667D01*
X12150000Y20550000D01*
X12116666Y20683334D01*
X12050000Y20750000D01*
X11983333Y20783334D01*
X11383333Y20083334D02*
X11383333Y20783334D01*
X10983333Y20083334D01*
X10983333Y20783334D01*
X13050000Y23283334D02*
X13283333Y23616667D01*
X13450000Y23283334D02*
X13450000Y23983334D01*
X13183333Y23983334D01*
X13116666Y23950000D01*
X13083333Y23916667D01*
X13050000Y23850000D01*
X13050000Y23750000D01*
X13083333Y23683334D01*
X13116666Y23650000D01*
X13183333Y23616667D01*
X13450000Y23616667D01*
X12383333Y23283334D02*
X12783333Y23283334D01*
X12583333Y23283334D02*
X12583333Y23983334D01*
X12650000Y23883334D01*
X12716666Y23816667D01*
X12783333Y23783334D01*
X12150000Y23983334D02*
X11716666Y23983334D01*
X11950000Y23716667D01*
X11850000Y23716667D01*
X11783333Y23683334D01*
X11750000Y23650000D01*
X11716666Y23583334D01*
X11716666Y23416667D01*
X11750000Y23350000D01*
X11783333Y23316667D01*
X11850000Y23283334D01*
X12050000Y23283334D01*
X12116666Y23316667D01*
X12150000Y23350000D01*
X32883333Y34483334D02*
X32750000Y34483334D01*
X32683333Y34450000D01*
X32616666Y34383334D01*
X32583333Y34250000D01*
X32583333Y34016667D01*
X32616666Y33883334D01*
X32683333Y33816667D01*
X32750000Y33783334D01*
X32883333Y33783334D01*
X32950000Y33816667D01*
X33016666Y33883334D01*
X33050000Y34016667D01*
X33050000Y34250000D01*
X33016666Y34383334D01*
X32950000Y34450000D01*
X32883333Y34483334D01*
X32283333Y33783334D02*
X32283333Y34483334D01*
X32016666Y34483334D01*
X31950000Y34450000D01*
X31916666Y34416667D01*
X31883333Y34350000D01*
X31883333Y34250000D01*
X31916666Y34183334D01*
X31950000Y34150000D01*
X32016666Y34116667D01*
X32283333Y34116667D01*
X31683333Y34483334D02*
X31283333Y34483334D01*
X31483333Y33783334D02*
X31483333Y34483334D01*
X31050000Y33783334D02*
X31050000Y34483334D01*
X30583333Y34483334D02*
X30450000Y34483334D01*
X30383333Y34450000D01*
X30316666Y34383334D01*
X30283333Y34250000D01*
X30283333Y34016667D01*
X30316666Y33883334D01*
X30383333Y33816667D01*
X30450000Y33783334D01*
X30583333Y33783334D01*
X30650000Y33816667D01*
X30716666Y33883334D01*
X30750000Y34016667D01*
X30750000Y34250000D01*
X30716666Y34383334D01*
X30650000Y34450000D01*
X30583333Y34483334D01*
X29983333Y33783334D02*
X29983333Y34483334D01*
X29583333Y33783334D01*
X29583333Y34483334D01*
X31150000Y34783334D02*
X31383333Y35116667D01*
X31550000Y34783334D02*
X31550000Y35483334D01*
X31283333Y35483334D01*
X31216666Y35450000D01*
X31183333Y35416667D01*
X31150000Y35350000D01*
X31150000Y35250000D01*
X31183333Y35183334D01*
X31216666Y35150000D01*
X31283333Y35116667D01*
X31550000Y35116667D01*
X30483333Y34783334D02*
X30883333Y34783334D01*
X30683333Y34783334D02*
X30683333Y35483334D01*
X30750000Y35383334D01*
X30816666Y35316667D01*
X30883333Y35283334D01*
X29883333Y35250000D02*
X29883333Y34783334D01*
X30050000Y35516667D02*
X30216666Y35016667D01*
X29783333Y35016667D01*
X16716666Y25683334D02*
X17116666Y25683334D01*
X16916666Y25683334D02*
X16916666Y26383334D01*
X16983333Y26283334D01*
X17050000Y26216667D01*
X17116666Y26183334D01*
X16283333Y26383334D02*
X16216666Y26383334D01*
X16150000Y26350000D01*
X16116666Y26316667D01*
X16083333Y26250000D01*
X16050000Y26116667D01*
X16050000Y25950000D01*
X16083333Y25816667D01*
X16116666Y25750000D01*
X16150000Y25716667D01*
X16216666Y25683334D01*
X16283333Y25683334D01*
X16350000Y25716667D01*
X16383333Y25750000D01*
X16416666Y25816667D01*
X16450000Y25950000D01*
X16450000Y26116667D01*
X16416666Y26250000D01*
X16383333Y26316667D01*
X16350000Y26350000D01*
X16283333Y26383334D01*
X15750000Y25683334D02*
X15750000Y26383334D01*
X15683333Y25950000D02*
X15483333Y25683334D01*
X15483333Y26150000D02*
X15750000Y25883334D01*
X16950000Y26583334D02*
X17183333Y26916667D01*
X17350000Y26583334D02*
X17350000Y27283334D01*
X17083333Y27283334D01*
X17016666Y27250000D01*
X16983333Y27216667D01*
X16950000Y27150000D01*
X16950000Y27050000D01*
X16983333Y26983334D01*
X17016666Y26950000D01*
X17083333Y26916667D01*
X17350000Y26916667D01*
X16283333Y26583334D02*
X16683333Y26583334D01*
X16483333Y26583334D02*
X16483333Y27283334D01*
X16550000Y27183334D01*
X16616666Y27116667D01*
X16683333Y27083334D01*
X15650000Y27283334D02*
X15983333Y27283334D01*
X16016666Y26950000D01*
X15983333Y26983334D01*
X15916666Y27016667D01*
X15750000Y27016667D01*
X15683333Y26983334D01*
X15650000Y26950000D01*
X15616666Y26883334D01*
X15616666Y26716667D01*
X15650000Y26650000D01*
X15683333Y26616667D01*
X15750000Y26583334D01*
X15916666Y26583334D01*
X15983333Y26616667D01*
X16016666Y26650000D01*
X26116666Y29283334D02*
X26516666Y29283334D01*
X26316666Y29283334D02*
X26316666Y29983334D01*
X26383333Y29883334D01*
X26450000Y29816667D01*
X26516666Y29783334D01*
X25683333Y29983334D02*
X25616666Y29983334D01*
X25550000Y29950000D01*
X25516666Y29916667D01*
X25483333Y29850000D01*
X25450000Y29716667D01*
X25450000Y29550000D01*
X25483333Y29416667D01*
X25516666Y29350000D01*
X25550000Y29316667D01*
X25616666Y29283334D01*
X25683333Y29283334D01*
X25750000Y29316667D01*
X25783333Y29350000D01*
X25816666Y29416667D01*
X25850000Y29550000D01*
X25850000Y29716667D01*
X25816666Y29850000D01*
X25783333Y29916667D01*
X25750000Y29950000D01*
X25683333Y29983334D01*
X25150000Y29283334D02*
X25150000Y29983334D01*
X25083333Y29550000D02*
X24883333Y29283334D01*
X24883333Y29750000D02*
X25150000Y29483334D01*
X28550000Y29183334D02*
X28783333Y29516667D01*
X28950000Y29183334D02*
X28950000Y29883334D01*
X28683333Y29883334D01*
X28616666Y29850000D01*
X28583333Y29816667D01*
X28550000Y29750000D01*
X28550000Y29650000D01*
X28583333Y29583334D01*
X28616666Y29550000D01*
X28683333Y29516667D01*
X28950000Y29516667D01*
X27883333Y29183334D02*
X28283333Y29183334D01*
X28083333Y29183334D02*
X28083333Y29883334D01*
X28150000Y29783334D01*
X28216666Y29716667D01*
X28283333Y29683334D01*
X27283333Y29883334D02*
X27416666Y29883334D01*
X27483333Y29850000D01*
X27516666Y29816667D01*
X27583333Y29716667D01*
X27616666Y29583334D01*
X27616666Y29316667D01*
X27583333Y29250000D01*
X27550000Y29216667D01*
X27483333Y29183334D01*
X27350000Y29183334D01*
X27283333Y29216667D01*
X27250000Y29250000D01*
X27216666Y29316667D01*
X27216666Y29483334D01*
X27250000Y29550000D01*
X27283333Y29583334D01*
X27350000Y29616667D01*
X27483333Y29616667D01*
X27550000Y29583334D01*
X27583333Y29550000D01*
X27616666Y29483334D01*
X21183333Y64283334D02*
X21050000Y64283334D01*
X20983333Y64250000D01*
X20916666Y64183334D01*
X20883333Y64050000D01*
X20883333Y63816667D01*
X20916666Y63683334D01*
X20983333Y63616667D01*
X21050000Y63583334D01*
X21183333Y63583334D01*
X21250000Y63616667D01*
X21316666Y63683334D01*
X21350000Y63816667D01*
X21350000Y64050000D01*
X21316666Y64183334D01*
X21250000Y64250000D01*
X21183333Y64283334D01*
X20583333Y63583334D02*
X20583333Y64283334D01*
X20316666Y64283334D01*
X20250000Y64250000D01*
X20216666Y64216667D01*
X20183333Y64150000D01*
X20183333Y64050000D01*
X20216666Y63983334D01*
X20250000Y63950000D01*
X20316666Y63916667D01*
X20583333Y63916667D01*
X19983333Y64283334D02*
X19583333Y64283334D01*
X19783333Y63583334D02*
X19783333Y64283334D01*
X19350000Y63583334D02*
X19350000Y64283334D01*
X18883333Y64283334D02*
X18750000Y64283334D01*
X18683333Y64250000D01*
X18616666Y64183334D01*
X18583333Y64050000D01*
X18583333Y63816667D01*
X18616666Y63683334D01*
X18683333Y63616667D01*
X18750000Y63583334D01*
X18883333Y63583334D01*
X18950000Y63616667D01*
X19016666Y63683334D01*
X19050000Y63816667D01*
X19050000Y64050000D01*
X19016666Y64183334D01*
X18950000Y64250000D01*
X18883333Y64283334D01*
X18283333Y63583334D02*
X18283333Y64283334D01*
X17883333Y63583334D01*
X17883333Y64283334D01*
X23150000Y63983334D02*
X23383333Y64316667D01*
X23550000Y63983334D02*
X23550000Y64683334D01*
X23283333Y64683334D01*
X23216666Y64650000D01*
X23183333Y64616667D01*
X23150000Y64550000D01*
X23150000Y64450000D01*
X23183333Y64383334D01*
X23216666Y64350000D01*
X23283333Y64316667D01*
X23550000Y64316667D01*
X22483333Y63983334D02*
X22883333Y63983334D01*
X22683333Y63983334D02*
X22683333Y64683334D01*
X22750000Y64583334D01*
X22816666Y64516667D01*
X22883333Y64483334D01*
X22250000Y64683334D02*
X21783333Y64683334D01*
X22083333Y63983334D01*
X17150000Y36583334D02*
X17550000Y36583334D01*
X17350000Y36583334D02*
X17350000Y37283334D01*
X17416666Y37183334D01*
X17483333Y37116667D01*
X17550000Y37083334D01*
X16716666Y37283334D02*
X16650000Y37283334D01*
X16583333Y37250000D01*
X16550000Y37216667D01*
X16516666Y37150000D01*
X16483333Y37016667D01*
X16483333Y36850000D01*
X16516666Y36716667D01*
X16550000Y36650000D01*
X16583333Y36616667D01*
X16650000Y36583334D01*
X16716666Y36583334D01*
X16783333Y36616667D01*
X16816666Y36650000D01*
X16850000Y36716667D01*
X16883333Y36850000D01*
X16883333Y37016667D01*
X16850000Y37150000D01*
X16816666Y37216667D01*
X16783333Y37250000D01*
X16716666Y37283334D01*
X16050000Y37283334D02*
X15983333Y37283334D01*
X15916666Y37250000D01*
X15883333Y37216667D01*
X15850000Y37150000D01*
X15816666Y37016667D01*
X15816666Y36850000D01*
X15850000Y36716667D01*
X15883333Y36650000D01*
X15916666Y36616667D01*
X15983333Y36583334D01*
X16050000Y36583334D01*
X16116666Y36616667D01*
X16150000Y36650000D01*
X16183333Y36716667D01*
X16216666Y36850000D01*
X16216666Y37016667D01*
X16183333Y37150000D01*
X16150000Y37216667D01*
X16116666Y37250000D01*
X16050000Y37283334D01*
X15516666Y36583334D02*
X15516666Y37283334D01*
X15450000Y36850000D02*
X15250000Y36583334D01*
X15250000Y37050000D02*
X15516666Y36783334D01*
X17050000Y37583334D02*
X17283333Y37916667D01*
X17450000Y37583334D02*
X17450000Y38283334D01*
X17183333Y38283334D01*
X17116666Y38250000D01*
X17083333Y38216667D01*
X17050000Y38150000D01*
X17050000Y38050000D01*
X17083333Y37983334D01*
X17116666Y37950000D01*
X17183333Y37916667D01*
X17450000Y37916667D01*
X16383333Y37583334D02*
X16783333Y37583334D01*
X16583333Y37583334D02*
X16583333Y38283334D01*
X16650000Y38183334D01*
X16716666Y38116667D01*
X16783333Y38083334D01*
X15983333Y37983334D02*
X16050000Y38016667D01*
X16083333Y38050000D01*
X16116666Y38116667D01*
X16116666Y38150000D01*
X16083333Y38216667D01*
X16050000Y38250000D01*
X15983333Y38283334D01*
X15850000Y38283334D01*
X15783333Y38250000D01*
X15750000Y38216667D01*
X15716666Y38150000D01*
X15716666Y38116667D01*
X15750000Y38050000D01*
X15783333Y38016667D01*
X15850000Y37983334D01*
X15983333Y37983334D01*
X16050000Y37950000D01*
X16083333Y37916667D01*
X16116666Y37850000D01*
X16116666Y37716667D01*
X16083333Y37650000D01*
X16050000Y37616667D01*
X15983333Y37583334D01*
X15850000Y37583334D01*
X15783333Y37616667D01*
X15750000Y37650000D01*
X15716666Y37716667D01*
X15716666Y37850000D01*
X15750000Y37916667D01*
X15783333Y37950000D01*
X15850000Y37983334D01*
X19750000Y34483334D02*
X20150000Y34483334D01*
X19950000Y34483334D02*
X19950000Y35183334D01*
X20016666Y35083334D01*
X20083333Y35016667D01*
X20150000Y34983334D01*
X19316666Y35183334D02*
X19250000Y35183334D01*
X19183333Y35150000D01*
X19150000Y35116667D01*
X19116666Y35050000D01*
X19083333Y34916667D01*
X19083333Y34750000D01*
X19116666Y34616667D01*
X19150000Y34550000D01*
X19183333Y34516667D01*
X19250000Y34483334D01*
X19316666Y34483334D01*
X19383333Y34516667D01*
X19416666Y34550000D01*
X19450000Y34616667D01*
X19483333Y34750000D01*
X19483333Y34916667D01*
X19450000Y35050000D01*
X19416666Y35116667D01*
X19383333Y35150000D01*
X19316666Y35183334D01*
X18650000Y35183334D02*
X18583333Y35183334D01*
X18516666Y35150000D01*
X18483333Y35116667D01*
X18450000Y35050000D01*
X18416666Y34916667D01*
X18416666Y34750000D01*
X18450000Y34616667D01*
X18483333Y34550000D01*
X18516666Y34516667D01*
X18583333Y34483334D01*
X18650000Y34483334D01*
X18716666Y34516667D01*
X18750000Y34550000D01*
X18783333Y34616667D01*
X18816666Y34750000D01*
X18816666Y34916667D01*
X18783333Y35050000D01*
X18750000Y35116667D01*
X18716666Y35150000D01*
X18650000Y35183334D01*
X18116666Y34483334D02*
X18116666Y35183334D01*
X18050000Y34750000D02*
X17850000Y34483334D01*
X17850000Y34950000D02*
X18116666Y34683334D01*
X19850000Y35383334D02*
X20083333Y35716667D01*
X20250000Y35383334D02*
X20250000Y36083334D01*
X19983333Y36083334D01*
X19916666Y36050000D01*
X19883333Y36016667D01*
X19850000Y35950000D01*
X19850000Y35850000D01*
X19883333Y35783334D01*
X19916666Y35750000D01*
X19983333Y35716667D01*
X20250000Y35716667D01*
X19183333Y35383334D02*
X19583333Y35383334D01*
X19383333Y35383334D02*
X19383333Y36083334D01*
X19450000Y35983334D01*
X19516666Y35916667D01*
X19583333Y35883334D01*
X18850000Y35383334D02*
X18716666Y35383334D01*
X18650000Y35416667D01*
X18616666Y35450000D01*
X18550000Y35550000D01*
X18516666Y35683334D01*
X18516666Y35950000D01*
X18550000Y36016667D01*
X18583333Y36050000D01*
X18650000Y36083334D01*
X18783333Y36083334D01*
X18850000Y36050000D01*
X18883333Y36016667D01*
X18916666Y35950000D01*
X18916666Y35783334D01*
X18883333Y35716667D01*
X18850000Y35683334D01*
X18783333Y35650000D01*
X18650000Y35650000D01*
X18583333Y35683334D01*
X18550000Y35716667D01*
X18516666Y35783334D01*
X30850000Y36083334D02*
X31250000Y36083334D01*
X31050000Y36083334D02*
X31050000Y36783334D01*
X31116666Y36683334D01*
X31183333Y36616667D01*
X31250000Y36583334D01*
X30416666Y36783334D02*
X30350000Y36783334D01*
X30283333Y36750000D01*
X30250000Y36716667D01*
X30216666Y36650000D01*
X30183333Y36516667D01*
X30183333Y36350000D01*
X30216666Y36216667D01*
X30250000Y36150000D01*
X30283333Y36116667D01*
X30350000Y36083334D01*
X30416666Y36083334D01*
X30483333Y36116667D01*
X30516666Y36150000D01*
X30550000Y36216667D01*
X30583333Y36350000D01*
X30583333Y36516667D01*
X30550000Y36650000D01*
X30516666Y36716667D01*
X30483333Y36750000D01*
X30416666Y36783334D01*
X29750000Y36783334D02*
X29683333Y36783334D01*
X29616666Y36750000D01*
X29583333Y36716667D01*
X29550000Y36650000D01*
X29516666Y36516667D01*
X29516666Y36350000D01*
X29550000Y36216667D01*
X29583333Y36150000D01*
X29616666Y36116667D01*
X29683333Y36083334D01*
X29750000Y36083334D01*
X29816666Y36116667D01*
X29850000Y36150000D01*
X29883333Y36216667D01*
X29916666Y36350000D01*
X29916666Y36516667D01*
X29883333Y36650000D01*
X29850000Y36716667D01*
X29816666Y36750000D01*
X29750000Y36783334D01*
X29216666Y36083334D02*
X29216666Y36783334D01*
X29150000Y36350000D02*
X28950000Y36083334D01*
X28950000Y36550000D02*
X29216666Y36283334D01*
X30650000Y37183334D02*
X30883333Y37516667D01*
X31050000Y37183334D02*
X31050000Y37883334D01*
X30783333Y37883334D01*
X30716666Y37850000D01*
X30683333Y37816667D01*
X30650000Y37750000D01*
X30650000Y37650000D01*
X30683333Y37583334D01*
X30716666Y37550000D01*
X30783333Y37516667D01*
X31050000Y37516667D01*
X30383333Y37816667D02*
X30350000Y37850000D01*
X30283333Y37883334D01*
X30116666Y37883334D01*
X30050000Y37850000D01*
X30016666Y37816667D01*
X29983333Y37750000D01*
X29983333Y37683334D01*
X30016666Y37583334D01*
X30416666Y37183334D01*
X29983333Y37183334D01*
X29550000Y37883334D02*
X29483333Y37883334D01*
X29416666Y37850000D01*
X29383333Y37816667D01*
X29350000Y37750000D01*
X29316666Y37616667D01*
X29316666Y37450000D01*
X29350000Y37316667D01*
X29383333Y37250000D01*
X29416666Y37216667D01*
X29483333Y37183334D01*
X29550000Y37183334D01*
X29616666Y37216667D01*
X29650000Y37250000D01*
X29683333Y37316667D01*
X29716666Y37450000D01*
X29716666Y37616667D01*
X29683333Y37750000D01*
X29650000Y37816667D01*
X29616666Y37850000D01*
X29550000Y37883334D01*
X18016666Y61183334D02*
X18416666Y61183334D01*
X18216666Y61183334D02*
X18216666Y61883334D01*
X18283333Y61783334D01*
X18350000Y61716667D01*
X18416666Y61683334D01*
X17583333Y61883334D02*
X17516666Y61883334D01*
X17450000Y61850000D01*
X17416666Y61816667D01*
X17383333Y61750000D01*
X17350000Y61616667D01*
X17350000Y61450000D01*
X17383333Y61316667D01*
X17416666Y61250000D01*
X17450000Y61216667D01*
X17516666Y61183334D01*
X17583333Y61183334D01*
X17650000Y61216667D01*
X17683333Y61250000D01*
X17716666Y61316667D01*
X17750000Y61450000D01*
X17750000Y61616667D01*
X17716666Y61750000D01*
X17683333Y61816667D01*
X17650000Y61850000D01*
X17583333Y61883334D01*
X17050000Y61183334D02*
X17050000Y61883334D01*
X16983333Y61450000D02*
X16783333Y61183334D01*
X16783333Y61650000D02*
X17050000Y61383334D01*
X18050000Y62183334D02*
X18283333Y62516667D01*
X18450000Y62183334D02*
X18450000Y62883334D01*
X18183333Y62883334D01*
X18116666Y62850000D01*
X18083333Y62816667D01*
X18050000Y62750000D01*
X18050000Y62650000D01*
X18083333Y62583334D01*
X18116666Y62550000D01*
X18183333Y62516667D01*
X18450000Y62516667D01*
X17783333Y62816667D02*
X17750000Y62850000D01*
X17683333Y62883334D01*
X17516666Y62883334D01*
X17450000Y62850000D01*
X17416666Y62816667D01*
X17383333Y62750000D01*
X17383333Y62683334D01*
X17416666Y62583334D01*
X17816666Y62183334D01*
X17383333Y62183334D01*
X16716666Y62183334D02*
X17116666Y62183334D01*
X16916666Y62183334D02*
X16916666Y62883334D01*
X16983333Y62783334D01*
X17050000Y62716667D01*
X17116666Y62683334D01*
X31650000Y60183334D02*
X32050000Y60183334D01*
X31850000Y60183334D02*
X31850000Y60883334D01*
X31916666Y60783334D01*
X31983333Y60716667D01*
X32050000Y60683334D01*
X31216666Y60883334D02*
X31150000Y60883334D01*
X31083333Y60850000D01*
X31050000Y60816667D01*
X31016666Y60750000D01*
X30983333Y60616667D01*
X30983333Y60450000D01*
X31016666Y60316667D01*
X31050000Y60250000D01*
X31083333Y60216667D01*
X31150000Y60183334D01*
X31216666Y60183334D01*
X31283333Y60216667D01*
X31316666Y60250000D01*
X31350000Y60316667D01*
X31383333Y60450000D01*
X31383333Y60616667D01*
X31350000Y60750000D01*
X31316666Y60816667D01*
X31283333Y60850000D01*
X31216666Y60883334D01*
X30550000Y60883334D02*
X30483333Y60883334D01*
X30416666Y60850000D01*
X30383333Y60816667D01*
X30350000Y60750000D01*
X30316666Y60616667D01*
X30316666Y60450000D01*
X30350000Y60316667D01*
X30383333Y60250000D01*
X30416666Y60216667D01*
X30483333Y60183334D01*
X30550000Y60183334D01*
X30616666Y60216667D01*
X30650000Y60250000D01*
X30683333Y60316667D01*
X30716666Y60450000D01*
X30716666Y60616667D01*
X30683333Y60750000D01*
X30650000Y60816667D01*
X30616666Y60850000D01*
X30550000Y60883334D01*
X30016666Y60183334D02*
X30016666Y60883334D01*
X29950000Y60450000D02*
X29750000Y60183334D01*
X29750000Y60650000D02*
X30016666Y60383334D01*
X31550000Y61283334D02*
X31783333Y61616667D01*
X31950000Y61283334D02*
X31950000Y61983334D01*
X31683333Y61983334D01*
X31616666Y61950000D01*
X31583333Y61916667D01*
X31550000Y61850000D01*
X31550000Y61750000D01*
X31583333Y61683334D01*
X31616666Y61650000D01*
X31683333Y61616667D01*
X31950000Y61616667D01*
X31283333Y61916667D02*
X31250000Y61950000D01*
X31183333Y61983334D01*
X31016666Y61983334D01*
X30950000Y61950000D01*
X30916666Y61916667D01*
X30883333Y61850000D01*
X30883333Y61783334D01*
X30916666Y61683334D01*
X31316666Y61283334D01*
X30883333Y61283334D01*
X30616666Y61916667D02*
X30583333Y61950000D01*
X30516666Y61983334D01*
X30350000Y61983334D01*
X30283333Y61950000D01*
X30250000Y61916667D01*
X30216666Y61850000D01*
X30216666Y61783334D01*
X30250000Y61683334D01*
X30650000Y61283334D01*
X30216666Y61283334D01*
X25016666Y61283334D02*
X24583333Y61283334D01*
X24816666Y61016667D01*
X24716666Y61016667D01*
X24650000Y60983334D01*
X24616666Y60950000D01*
X24583333Y60883334D01*
X24583333Y60716667D01*
X24616666Y60650000D01*
X24650000Y60616667D01*
X24716666Y60583334D01*
X24916666Y60583334D01*
X24983333Y60616667D01*
X25016666Y60650000D01*
X24283333Y60583334D02*
X24283333Y61283334D01*
X24216666Y60850000D02*
X24016666Y60583334D01*
X24016666Y61050000D02*
X24283333Y60783334D01*
X26250000Y63683334D02*
X26483333Y64016667D01*
X26650000Y63683334D02*
X26650000Y64383334D01*
X26383333Y64383334D01*
X26316666Y64350000D01*
X26283333Y64316667D01*
X26250000Y64250000D01*
X26250000Y64150000D01*
X26283333Y64083334D01*
X26316666Y64050000D01*
X26383333Y64016667D01*
X26650000Y64016667D01*
X25983333Y64316667D02*
X25950000Y64350000D01*
X25883333Y64383334D01*
X25716666Y64383334D01*
X25650000Y64350000D01*
X25616666Y64316667D01*
X25583333Y64250000D01*
X25583333Y64183334D01*
X25616666Y64083334D01*
X26016666Y63683334D01*
X25583333Y63683334D01*
X25350000Y64383334D02*
X24916666Y64383334D01*
X25150000Y64116667D01*
X25050000Y64116667D01*
X24983333Y64083334D01*
X24950000Y64050000D01*
X24916666Y63983334D01*
X24916666Y63816667D01*
X24950000Y63750000D01*
X24983333Y63716667D01*
X25050000Y63683334D01*
X25250000Y63683334D01*
X25316666Y63716667D01*
X25350000Y63750000D01*
X18050000Y68083334D02*
X17616666Y68083334D01*
X17850000Y67816667D01*
X17750000Y67816667D01*
X17683333Y67783334D01*
X17650000Y67750000D01*
X17616666Y67683334D01*
X17616666Y67516667D01*
X17650000Y67450000D01*
X17683333Y67416667D01*
X17750000Y67383334D01*
X17950000Y67383334D01*
X18016666Y67416667D01*
X18050000Y67450000D01*
X17283333Y67383334D02*
X17150000Y67383334D01*
X17083333Y67416667D01*
X17050000Y67450000D01*
X16983333Y67550000D01*
X16950000Y67683334D01*
X16950000Y67950000D01*
X16983333Y68016667D01*
X17016666Y68050000D01*
X17083333Y68083334D01*
X17216666Y68083334D01*
X17283333Y68050000D01*
X17316666Y68016667D01*
X17350000Y67950000D01*
X17350000Y67783334D01*
X17316666Y67716667D01*
X17283333Y67683334D01*
X17216666Y67650000D01*
X17083333Y67650000D01*
X17016666Y67683334D01*
X16983333Y67716667D01*
X16950000Y67783334D01*
X16650000Y67383334D02*
X16650000Y68083334D01*
X16583333Y67650000D02*
X16383333Y67383334D01*
X16383333Y67850000D02*
X16650000Y67583334D01*
X17650000Y68283334D02*
X17883333Y68616667D01*
X18050000Y68283334D02*
X18050000Y68983334D01*
X17783333Y68983334D01*
X17716666Y68950000D01*
X17683333Y68916667D01*
X17650000Y68850000D01*
X17650000Y68750000D01*
X17683333Y68683334D01*
X17716666Y68650000D01*
X17783333Y68616667D01*
X18050000Y68616667D01*
X17383333Y68916667D02*
X17350000Y68950000D01*
X17283333Y68983334D01*
X17116666Y68983334D01*
X17050000Y68950000D01*
X17016666Y68916667D01*
X16983333Y68850000D01*
X16983333Y68783334D01*
X17016666Y68683334D01*
X17416666Y68283334D01*
X16983333Y68283334D01*
X16383333Y68750000D02*
X16383333Y68283334D01*
X16550000Y69016667D02*
X16716666Y68516667D01*
X16283333Y68516667D01*
X23683333Y67750000D02*
X23683333Y67283334D01*
X23850000Y68016667D02*
X24016666Y67516667D01*
X23583333Y67516667D01*
X23383333Y67983334D02*
X22916666Y67983334D01*
X23216666Y67283334D01*
X22650000Y67283334D02*
X22650000Y67983334D01*
X22583333Y67550000D02*
X22383333Y67283334D01*
X22383333Y67750000D02*
X22650000Y67483334D01*
X23650000Y68183334D02*
X23883333Y68516667D01*
X24050000Y68183334D02*
X24050000Y68883334D01*
X23783333Y68883334D01*
X23716666Y68850000D01*
X23683333Y68816667D01*
X23650000Y68750000D01*
X23650000Y68650000D01*
X23683333Y68583334D01*
X23716666Y68550000D01*
X23783333Y68516667D01*
X24050000Y68516667D01*
X23383333Y68816667D02*
X23350000Y68850000D01*
X23283333Y68883334D01*
X23116666Y68883334D01*
X23050000Y68850000D01*
X23016666Y68816667D01*
X22983333Y68750000D01*
X22983333Y68683334D01*
X23016666Y68583334D01*
X23416666Y68183334D01*
X22983333Y68183334D01*
X22350000Y68883334D02*
X22683333Y68883334D01*
X22716666Y68550000D01*
X22683333Y68583334D01*
X22616666Y68616667D01*
X22450000Y68616667D01*
X22383333Y68583334D01*
X22350000Y68550000D01*
X22316666Y68483334D01*
X22316666Y68316667D01*
X22350000Y68250000D01*
X22383333Y68216667D01*
X22450000Y68183334D01*
X22616666Y68183334D01*
X22683333Y68216667D01*
X22716666Y68250000D01*
X23383333Y82750000D02*
X23383333Y82283334D01*
X23550000Y83016667D02*
X23716666Y82516667D01*
X23283333Y82516667D01*
X23083333Y82983334D02*
X22616666Y82983334D01*
X22916666Y82283334D01*
X22350000Y82283334D02*
X22350000Y82983334D01*
X22283333Y82550000D02*
X22083333Y82283334D01*
X22083333Y82750000D02*
X22350000Y82483334D01*
X25650000Y82283334D02*
X25883333Y82616667D01*
X26050000Y82283334D02*
X26050000Y82983334D01*
X25783333Y82983334D01*
X25716666Y82950000D01*
X25683333Y82916667D01*
X25650000Y82850000D01*
X25650000Y82750000D01*
X25683333Y82683334D01*
X25716666Y82650000D01*
X25783333Y82616667D01*
X26050000Y82616667D01*
X25383333Y82916667D02*
X25350000Y82950000D01*
X25283333Y82983334D01*
X25116666Y82983334D01*
X25050000Y82950000D01*
X25016666Y82916667D01*
X24983333Y82850000D01*
X24983333Y82783334D01*
X25016666Y82683334D01*
X25416666Y82283334D01*
X24983333Y82283334D01*
X24383333Y82983334D02*
X24516666Y82983334D01*
X24583333Y82950000D01*
X24616666Y82916667D01*
X24683333Y82816667D01*
X24716666Y82683334D01*
X24716666Y82416667D01*
X24683333Y82350000D01*
X24650000Y82316667D01*
X24583333Y82283334D01*
X24450000Y82283334D01*
X24383333Y82316667D01*
X24350000Y82350000D01*
X24316666Y82416667D01*
X24316666Y82583334D01*
X24350000Y82650000D01*
X24383333Y82683334D01*
X24450000Y82716667D01*
X24583333Y82716667D01*
X24650000Y82683334D01*
X24683333Y82650000D01*
X24716666Y82583334D01*
X30183333Y83683334D02*
X30583333Y83683334D01*
X30383333Y83683334D02*
X30383333Y84383334D01*
X30450000Y84283334D01*
X30516666Y84216667D01*
X30583333Y84183334D01*
X29883333Y83683334D02*
X29883333Y84383334D01*
X29816666Y83950000D02*
X29616666Y83683334D01*
X29616666Y84150000D02*
X29883333Y83883334D01*
X32550000Y83683334D02*
X32783333Y84016667D01*
X32950000Y83683334D02*
X32950000Y84383334D01*
X32683333Y84383334D01*
X32616666Y84350000D01*
X32583333Y84316667D01*
X32550000Y84250000D01*
X32550000Y84150000D01*
X32583333Y84083334D01*
X32616666Y84050000D01*
X32683333Y84016667D01*
X32950000Y84016667D01*
X32283333Y84316667D02*
X32250000Y84350000D01*
X32183333Y84383334D01*
X32016666Y84383334D01*
X31950000Y84350000D01*
X31916666Y84316667D01*
X31883333Y84250000D01*
X31883333Y84183334D01*
X31916666Y84083334D01*
X32316666Y83683334D01*
X31883333Y83683334D01*
X31650000Y84383334D02*
X31183333Y84383334D01*
X31483333Y83683334D01*
X29050000Y68883334D02*
X29450000Y68883334D01*
X29250000Y68883334D02*
X29250000Y69583334D01*
X29316666Y69483334D01*
X29383333Y69416667D01*
X29450000Y69383334D01*
X28383333Y68883334D02*
X28783333Y68883334D01*
X28583333Y68883334D02*
X28583333Y69583334D01*
X28650000Y69483334D01*
X28716666Y69416667D01*
X28783333Y69383334D01*
X27950000Y69583334D02*
X27883333Y69583334D01*
X27816666Y69550000D01*
X27783333Y69516667D01*
X27750000Y69450000D01*
X27716666Y69316667D01*
X27716666Y69150000D01*
X27750000Y69016667D01*
X27783333Y68950000D01*
X27816666Y68916667D01*
X27883333Y68883334D01*
X27950000Y68883334D01*
X28016666Y68916667D01*
X28050000Y68950000D01*
X28083333Y69016667D01*
X28116666Y69150000D01*
X28116666Y69316667D01*
X28083333Y69450000D01*
X28050000Y69516667D01*
X28016666Y69550000D01*
X27950000Y69583334D01*
X27416666Y68883334D02*
X27416666Y69583334D01*
X27350000Y69150000D02*
X27150000Y68883334D01*
X27150000Y69350000D02*
X27416666Y69083334D01*
X28150000Y69883334D02*
X28383333Y70216667D01*
X28550000Y69883334D02*
X28550000Y70583334D01*
X28283333Y70583334D01*
X28216666Y70550000D01*
X28183333Y70516667D01*
X28150000Y70450000D01*
X28150000Y70350000D01*
X28183333Y70283334D01*
X28216666Y70250000D01*
X28283333Y70216667D01*
X28550000Y70216667D01*
X27883333Y70516667D02*
X27850000Y70550000D01*
X27783333Y70583334D01*
X27616666Y70583334D01*
X27550000Y70550000D01*
X27516666Y70516667D01*
X27483333Y70450000D01*
X27483333Y70383334D01*
X27516666Y70283334D01*
X27916666Y69883334D01*
X27483333Y69883334D01*
X27083333Y70283334D02*
X27150000Y70316667D01*
X27183333Y70350000D01*
X27216666Y70416667D01*
X27216666Y70450000D01*
X27183333Y70516667D01*
X27150000Y70550000D01*
X27083333Y70583334D01*
X26950000Y70583334D01*
X26883333Y70550000D01*
X26850000Y70516667D01*
X26816666Y70450000D01*
X26816666Y70416667D01*
X26850000Y70350000D01*
X26883333Y70316667D01*
X26950000Y70283334D01*
X27083333Y70283334D01*
X27150000Y70250000D01*
X27183333Y70216667D01*
X27216666Y70150000D01*
X27216666Y70016667D01*
X27183333Y69950000D01*
X27150000Y69916667D01*
X27083333Y69883334D01*
X26950000Y69883334D01*
X26883333Y69916667D01*
X26850000Y69950000D01*
X26816666Y70016667D01*
X26816666Y70150000D01*
X26850000Y70216667D01*
X26883333Y70250000D01*
X26950000Y70283334D01*
X21183333Y72750000D02*
X21183333Y72283334D01*
X21350000Y73016667D02*
X21516666Y72516667D01*
X21083333Y72516667D01*
X20883333Y72983334D02*
X20416666Y72983334D01*
X20716666Y72283334D01*
X20150000Y72283334D02*
X20150000Y72983334D01*
X20083333Y72550000D02*
X19883333Y72283334D01*
X19883333Y72750000D02*
X20150000Y72483334D01*
X23650000Y72583334D02*
X23883333Y72916667D01*
X24050000Y72583334D02*
X24050000Y73283334D01*
X23783333Y73283334D01*
X23716666Y73250000D01*
X23683333Y73216667D01*
X23650000Y73150000D01*
X23650000Y73050000D01*
X23683333Y72983334D01*
X23716666Y72950000D01*
X23783333Y72916667D01*
X24050000Y72916667D01*
X23416666Y73283334D02*
X22983333Y73283334D01*
X23216666Y73016667D01*
X23116666Y73016667D01*
X23050000Y72983334D01*
X23016666Y72950000D01*
X22983333Y72883334D01*
X22983333Y72716667D01*
X23016666Y72650000D01*
X23050000Y72616667D01*
X23116666Y72583334D01*
X23316666Y72583334D01*
X23383333Y72616667D01*
X23416666Y72650000D01*
X22550000Y73283334D02*
X22483333Y73283334D01*
X22416666Y73250000D01*
X22383333Y73216667D01*
X22350000Y73150000D01*
X22316666Y73016667D01*
X22316666Y72850000D01*
X22350000Y72716667D01*
X22383333Y72650000D01*
X22416666Y72616667D01*
X22483333Y72583334D01*
X22550000Y72583334D01*
X22616666Y72616667D01*
X22650000Y72650000D01*
X22683333Y72716667D01*
X22716666Y72850000D01*
X22716666Y73016667D01*
X22683333Y73150000D01*
X22650000Y73216667D01*
X22616666Y73250000D01*
X22550000Y73283334D01*
X22383333Y79083334D02*
X22783333Y79083334D01*
X22583333Y79083334D02*
X22583333Y79783334D01*
X22650000Y79683334D01*
X22716666Y79616667D01*
X22783333Y79583334D01*
X22083333Y79083334D02*
X22083333Y79783334D01*
X22016666Y79350000D02*
X21816666Y79083334D01*
X21816666Y79550000D02*
X22083333Y79283334D01*
X19950000Y79083334D02*
X20183333Y79416667D01*
X20350000Y79083334D02*
X20350000Y79783334D01*
X20083333Y79783334D01*
X20016666Y79750000D01*
X19983333Y79716667D01*
X19950000Y79650000D01*
X19950000Y79550000D01*
X19983333Y79483334D01*
X20016666Y79450000D01*
X20083333Y79416667D01*
X20350000Y79416667D01*
X19716666Y79783334D02*
X19283333Y79783334D01*
X19516666Y79516667D01*
X19416666Y79516667D01*
X19350000Y79483334D01*
X19316666Y79450000D01*
X19283333Y79383334D01*
X19283333Y79216667D01*
X19316666Y79150000D01*
X19350000Y79116667D01*
X19416666Y79083334D01*
X19616666Y79083334D01*
X19683333Y79116667D01*
X19716666Y79150000D01*
X18616666Y79083334D02*
X19016666Y79083334D01*
X18816666Y79083334D02*
X18816666Y79783334D01*
X18883333Y79683334D01*
X18950000Y79616667D01*
X19016666Y79583334D01*
X14150000Y63583334D02*
X14550000Y63583334D01*
X14350000Y63583334D02*
X14350000Y64283334D01*
X14416666Y64183334D01*
X14483333Y64116667D01*
X14550000Y64083334D01*
X13483333Y63583334D02*
X13883333Y63583334D01*
X13683333Y63583334D02*
X13683333Y64283334D01*
X13750000Y64183334D01*
X13816666Y64116667D01*
X13883333Y64083334D01*
X13050000Y64283334D02*
X12983333Y64283334D01*
X12916666Y64250000D01*
X12883333Y64216667D01*
X12850000Y64150000D01*
X12816666Y64016667D01*
X12816666Y63850000D01*
X12850000Y63716667D01*
X12883333Y63650000D01*
X12916666Y63616667D01*
X12983333Y63583334D01*
X13050000Y63583334D01*
X13116666Y63616667D01*
X13150000Y63650000D01*
X13183333Y63716667D01*
X13216666Y63850000D01*
X13216666Y64016667D01*
X13183333Y64150000D01*
X13150000Y64216667D01*
X13116666Y64250000D01*
X13050000Y64283334D01*
X12516666Y63583334D02*
X12516666Y64283334D01*
X12450000Y63850000D02*
X12250000Y63583334D01*
X12250000Y64050000D02*
X12516666Y63783334D01*
X13850000Y64483334D02*
X14083333Y64816667D01*
X14250000Y64483334D02*
X14250000Y65183334D01*
X13983333Y65183334D01*
X13916666Y65150000D01*
X13883333Y65116667D01*
X13850000Y65050000D01*
X13850000Y64950000D01*
X13883333Y64883334D01*
X13916666Y64850000D01*
X13983333Y64816667D01*
X14250000Y64816667D01*
X13616666Y65183334D02*
X13183333Y65183334D01*
X13416666Y64916667D01*
X13316666Y64916667D01*
X13250000Y64883334D01*
X13216666Y64850000D01*
X13183333Y64783334D01*
X13183333Y64616667D01*
X13216666Y64550000D01*
X13250000Y64516667D01*
X13316666Y64483334D01*
X13516666Y64483334D01*
X13583333Y64516667D01*
X13616666Y64550000D01*
X12916666Y65116667D02*
X12883333Y65150000D01*
X12816666Y65183334D01*
X12650000Y65183334D01*
X12583333Y65150000D01*
X12550000Y65116667D01*
X12516666Y65050000D01*
X12516666Y64983334D01*
X12550000Y64883334D01*
X12950000Y64483334D01*
X12516666Y64483334D01*
X35150000Y61483334D02*
X35550000Y61483334D01*
X35350000Y61483334D02*
X35350000Y62183334D01*
X35416666Y62083334D01*
X35483333Y62016667D01*
X35550000Y61983334D01*
X34716666Y62183334D02*
X34650000Y62183334D01*
X34583333Y62150000D01*
X34550000Y62116667D01*
X34516666Y62050000D01*
X34483333Y61916667D01*
X34483333Y61750000D01*
X34516666Y61616667D01*
X34550000Y61550000D01*
X34583333Y61516667D01*
X34650000Y61483334D01*
X34716666Y61483334D01*
X34783333Y61516667D01*
X34816666Y61550000D01*
X34850000Y61616667D01*
X34883333Y61750000D01*
X34883333Y61916667D01*
X34850000Y62050000D01*
X34816666Y62116667D01*
X34783333Y62150000D01*
X34716666Y62183334D01*
X34050000Y62183334D02*
X33983333Y62183334D01*
X33916666Y62150000D01*
X33883333Y62116667D01*
X33850000Y62050000D01*
X33816666Y61916667D01*
X33816666Y61750000D01*
X33850000Y61616667D01*
X33883333Y61550000D01*
X33916666Y61516667D01*
X33983333Y61483334D01*
X34050000Y61483334D01*
X34116666Y61516667D01*
X34150000Y61550000D01*
X34183333Y61616667D01*
X34216666Y61750000D01*
X34216666Y61916667D01*
X34183333Y62050000D01*
X34150000Y62116667D01*
X34116666Y62150000D01*
X34050000Y62183334D01*
X33516666Y61483334D02*
X33516666Y62183334D01*
X33450000Y61750000D02*
X33250000Y61483334D01*
X33250000Y61950000D02*
X33516666Y61683334D01*
X34750000Y62383334D02*
X34983333Y62716667D01*
X35150000Y62383334D02*
X35150000Y63083334D01*
X34883333Y63083334D01*
X34816666Y63050000D01*
X34783333Y63016667D01*
X34750000Y62950000D01*
X34750000Y62850000D01*
X34783333Y62783334D01*
X34816666Y62750000D01*
X34883333Y62716667D01*
X35150000Y62716667D01*
X34516666Y63083334D02*
X34083333Y63083334D01*
X34316666Y62816667D01*
X34216666Y62816667D01*
X34150000Y62783334D01*
X34116666Y62750000D01*
X34083333Y62683334D01*
X34083333Y62516667D01*
X34116666Y62450000D01*
X34150000Y62416667D01*
X34216666Y62383334D01*
X34416666Y62383334D01*
X34483333Y62416667D01*
X34516666Y62450000D01*
X33850000Y63083334D02*
X33416666Y63083334D01*
X33650000Y62816667D01*
X33550000Y62816667D01*
X33483333Y62783334D01*
X33450000Y62750000D01*
X33416666Y62683334D01*
X33416666Y62516667D01*
X33450000Y62450000D01*
X33483333Y62416667D01*
X33550000Y62383334D01*
X33750000Y62383334D01*
X33816666Y62416667D01*
X33850000Y62450000D01*
X4550000Y86383334D02*
X4950000Y86383334D01*
X4750000Y86383334D02*
X4750000Y87083334D01*
X4816666Y86983334D01*
X4883333Y86916667D01*
X4950000Y86883334D01*
X4116666Y87083334D02*
X4050000Y87083334D01*
X3983333Y87050000D01*
X3950000Y87016667D01*
X3916666Y86950000D01*
X3883333Y86816667D01*
X3883333Y86650000D01*
X3916666Y86516667D01*
X3950000Y86450000D01*
X3983333Y86416667D01*
X4050000Y86383334D01*
X4116666Y86383334D01*
X4183333Y86416667D01*
X4216666Y86450000D01*
X4250000Y86516667D01*
X4283333Y86650000D01*
X4283333Y86816667D01*
X4250000Y86950000D01*
X4216666Y87016667D01*
X4183333Y87050000D01*
X4116666Y87083334D01*
X3450000Y87083334D02*
X3383333Y87083334D01*
X3316666Y87050000D01*
X3283333Y87016667D01*
X3250000Y86950000D01*
X3216666Y86816667D01*
X3216666Y86650000D01*
X3250000Y86516667D01*
X3283333Y86450000D01*
X3316666Y86416667D01*
X3383333Y86383334D01*
X3450000Y86383334D01*
X3516666Y86416667D01*
X3550000Y86450000D01*
X3583333Y86516667D01*
X3616666Y86650000D01*
X3616666Y86816667D01*
X3583333Y86950000D01*
X3550000Y87016667D01*
X3516666Y87050000D01*
X3450000Y87083334D01*
X2916666Y86383334D02*
X2916666Y87083334D01*
X2850000Y86650000D02*
X2650000Y86383334D01*
X2650000Y86850000D02*
X2916666Y86583334D01*
X4250000Y87283334D02*
X4483333Y87616667D01*
X4650000Y87283334D02*
X4650000Y87983334D01*
X4383333Y87983334D01*
X4316666Y87950000D01*
X4283333Y87916667D01*
X4250000Y87850000D01*
X4250000Y87750000D01*
X4283333Y87683334D01*
X4316666Y87650000D01*
X4383333Y87616667D01*
X4650000Y87616667D01*
X4016666Y87983334D02*
X3583333Y87983334D01*
X3816666Y87716667D01*
X3716666Y87716667D01*
X3650000Y87683334D01*
X3616666Y87650000D01*
X3583333Y87583334D01*
X3583333Y87416667D01*
X3616666Y87350000D01*
X3650000Y87316667D01*
X3716666Y87283334D01*
X3916666Y87283334D01*
X3983333Y87316667D01*
X4016666Y87350000D01*
X2983333Y87750000D02*
X2983333Y87283334D01*
X3150000Y88016667D02*
X3316666Y87516667D01*
X2883333Y87516667D01*
X4250000Y71883334D02*
X4583333Y71883334D01*
X4616666Y71550000D01*
X4583333Y71583334D01*
X4516666Y71616667D01*
X4350000Y71616667D01*
X4283333Y71583334D01*
X4250000Y71550000D01*
X4216666Y71483334D01*
X4216666Y71316667D01*
X4250000Y71250000D01*
X4283333Y71216667D01*
X4350000Y71183334D01*
X4516666Y71183334D01*
X4583333Y71216667D01*
X4616666Y71250000D01*
X3616666Y71883334D02*
X3750000Y71883334D01*
X3816666Y71850000D01*
X3850000Y71816667D01*
X3916666Y71716667D01*
X3950000Y71583334D01*
X3950000Y71316667D01*
X3916666Y71250000D01*
X3883333Y71216667D01*
X3816666Y71183334D01*
X3683333Y71183334D01*
X3616666Y71216667D01*
X3583333Y71250000D01*
X3550000Y71316667D01*
X3550000Y71483334D01*
X3583333Y71550000D01*
X3616666Y71583334D01*
X3683333Y71616667D01*
X3816666Y71616667D01*
X3883333Y71583334D01*
X3916666Y71550000D01*
X3950000Y71483334D01*
X3250000Y71183334D02*
X3250000Y71883334D01*
X3183333Y71450000D02*
X2983333Y71183334D01*
X2983333Y71650000D02*
X3250000Y71383334D01*
X4250000Y72183334D02*
X4483333Y72516667D01*
X4650000Y72183334D02*
X4650000Y72883334D01*
X4383333Y72883334D01*
X4316666Y72850000D01*
X4283333Y72816667D01*
X4250000Y72750000D01*
X4250000Y72650000D01*
X4283333Y72583334D01*
X4316666Y72550000D01*
X4383333Y72516667D01*
X4650000Y72516667D01*
X4016666Y72883334D02*
X3583333Y72883334D01*
X3816666Y72616667D01*
X3716666Y72616667D01*
X3650000Y72583334D01*
X3616666Y72550000D01*
X3583333Y72483334D01*
X3583333Y72316667D01*
X3616666Y72250000D01*
X3650000Y72216667D01*
X3716666Y72183334D01*
X3916666Y72183334D01*
X3983333Y72216667D01*
X4016666Y72250000D01*
X2950000Y72883334D02*
X3283333Y72883334D01*
X3316666Y72550000D01*
X3283333Y72583334D01*
X3216666Y72616667D01*
X3050000Y72616667D01*
X2983333Y72583334D01*
X2950000Y72550000D01*
X2916666Y72483334D01*
X2916666Y72316667D01*
X2950000Y72250000D01*
X2983333Y72216667D01*
X3050000Y72183334D01*
X3216666Y72183334D01*
X3283333Y72216667D01*
X3316666Y72250000D01*
X37150000Y45783334D02*
X37483333Y45783334D01*
X37516666Y45450000D01*
X37483333Y45483334D01*
X37416666Y45516667D01*
X37250000Y45516667D01*
X37183333Y45483334D01*
X37150000Y45450000D01*
X37116666Y45383334D01*
X37116666Y45216667D01*
X37150000Y45150000D01*
X37183333Y45116667D01*
X37250000Y45083334D01*
X37416666Y45083334D01*
X37483333Y45116667D01*
X37516666Y45150000D01*
X36516666Y45783334D02*
X36650000Y45783334D01*
X36716666Y45750000D01*
X36750000Y45716667D01*
X36816666Y45616667D01*
X36850000Y45483334D01*
X36850000Y45216667D01*
X36816666Y45150000D01*
X36783333Y45116667D01*
X36716666Y45083334D01*
X36583333Y45083334D01*
X36516666Y45116667D01*
X36483333Y45150000D01*
X36450000Y45216667D01*
X36450000Y45383334D01*
X36483333Y45450000D01*
X36516666Y45483334D01*
X36583333Y45516667D01*
X36716666Y45516667D01*
X36783333Y45483334D01*
X36816666Y45450000D01*
X36850000Y45383334D01*
X36150000Y45083334D02*
X36150000Y45783334D01*
X36083333Y45350000D02*
X35883333Y45083334D01*
X35883333Y45550000D02*
X36150000Y45283334D01*
X37150000Y46083334D02*
X37383333Y46416667D01*
X37550000Y46083334D02*
X37550000Y46783334D01*
X37283333Y46783334D01*
X37216666Y46750000D01*
X37183333Y46716667D01*
X37150000Y46650000D01*
X37150000Y46550000D01*
X37183333Y46483334D01*
X37216666Y46450000D01*
X37283333Y46416667D01*
X37550000Y46416667D01*
X36916666Y46783334D02*
X36483333Y46783334D01*
X36716666Y46516667D01*
X36616666Y46516667D01*
X36550000Y46483334D01*
X36516666Y46450000D01*
X36483333Y46383334D01*
X36483333Y46216667D01*
X36516666Y46150000D01*
X36550000Y46116667D01*
X36616666Y46083334D01*
X36816666Y46083334D01*
X36883333Y46116667D01*
X36916666Y46150000D01*
X35883333Y46783334D02*
X36016666Y46783334D01*
X36083333Y46750000D01*
X36116666Y46716667D01*
X36183333Y46616667D01*
X36216666Y46483334D01*
X36216666Y46216667D01*
X36183333Y46150000D01*
X36150000Y46116667D01*
X36083333Y46083334D01*
X35950000Y46083334D01*
X35883333Y46116667D01*
X35850000Y46150000D01*
X35816666Y46216667D01*
X35816666Y46383334D01*
X35850000Y46450000D01*
X35883333Y46483334D01*
X35950000Y46516667D01*
X36083333Y46516667D01*
X36150000Y46483334D01*
X36183333Y46450000D01*
X36216666Y46383334D01*
X33950000Y42583334D02*
X34283333Y42583334D01*
X34316666Y42250000D01*
X34283333Y42283334D01*
X34216666Y42316667D01*
X34050000Y42316667D01*
X33983333Y42283334D01*
X33950000Y42250000D01*
X33916666Y42183334D01*
X33916666Y42016667D01*
X33950000Y41950000D01*
X33983333Y41916667D01*
X34050000Y41883334D01*
X34216666Y41883334D01*
X34283333Y41916667D01*
X34316666Y41950000D01*
X33316666Y42583334D02*
X33450000Y42583334D01*
X33516666Y42550000D01*
X33550000Y42516667D01*
X33616666Y42416667D01*
X33650000Y42283334D01*
X33650000Y42016667D01*
X33616666Y41950000D01*
X33583333Y41916667D01*
X33516666Y41883334D01*
X33383333Y41883334D01*
X33316666Y41916667D01*
X33283333Y41950000D01*
X33250000Y42016667D01*
X33250000Y42183334D01*
X33283333Y42250000D01*
X33316666Y42283334D01*
X33383333Y42316667D01*
X33516666Y42316667D01*
X33583333Y42283334D01*
X33616666Y42250000D01*
X33650000Y42183334D01*
X32950000Y41883334D02*
X32950000Y42583334D01*
X32883333Y42150000D02*
X32683333Y41883334D01*
X32683333Y42350000D02*
X32950000Y42083334D01*
X34050000Y42883334D02*
X34283333Y43216667D01*
X34450000Y42883334D02*
X34450000Y43583334D01*
X34183333Y43583334D01*
X34116666Y43550000D01*
X34083333Y43516667D01*
X34050000Y43450000D01*
X34050000Y43350000D01*
X34083333Y43283334D01*
X34116666Y43250000D01*
X34183333Y43216667D01*
X34450000Y43216667D01*
X33816666Y43583334D02*
X33383333Y43583334D01*
X33616666Y43316667D01*
X33516666Y43316667D01*
X33450000Y43283334D01*
X33416666Y43250000D01*
X33383333Y43183334D01*
X33383333Y43016667D01*
X33416666Y42950000D01*
X33450000Y42916667D01*
X33516666Y42883334D01*
X33716666Y42883334D01*
X33783333Y42916667D01*
X33816666Y42950000D01*
X33150000Y43583334D02*
X32683333Y43583334D01*
X32983333Y42883334D01*
X41150000Y28683334D02*
X41483333Y28683334D01*
X41516666Y28350000D01*
X41483333Y28383334D01*
X41416666Y28416667D01*
X41250000Y28416667D01*
X41183333Y28383334D01*
X41150000Y28350000D01*
X41116666Y28283334D01*
X41116666Y28116667D01*
X41150000Y28050000D01*
X41183333Y28016667D01*
X41250000Y27983334D01*
X41416666Y27983334D01*
X41483333Y28016667D01*
X41516666Y28050000D01*
X40516666Y28683334D02*
X40650000Y28683334D01*
X40716666Y28650000D01*
X40750000Y28616667D01*
X40816666Y28516667D01*
X40850000Y28383334D01*
X40850000Y28116667D01*
X40816666Y28050000D01*
X40783333Y28016667D01*
X40716666Y27983334D01*
X40583333Y27983334D01*
X40516666Y28016667D01*
X40483333Y28050000D01*
X40450000Y28116667D01*
X40450000Y28283334D01*
X40483333Y28350000D01*
X40516666Y28383334D01*
X40583333Y28416667D01*
X40716666Y28416667D01*
X40783333Y28383334D01*
X40816666Y28350000D01*
X40850000Y28283334D01*
X40150000Y27983334D02*
X40150000Y28683334D01*
X40083333Y28250000D02*
X39883333Y27983334D01*
X39883333Y28450000D02*
X40150000Y28183334D01*
X41150000Y28883334D02*
X41383333Y29216667D01*
X41550000Y28883334D02*
X41550000Y29583334D01*
X41283333Y29583334D01*
X41216666Y29550000D01*
X41183333Y29516667D01*
X41150000Y29450000D01*
X41150000Y29350000D01*
X41183333Y29283334D01*
X41216666Y29250000D01*
X41283333Y29216667D01*
X41550000Y29216667D01*
X40916666Y29583334D02*
X40483333Y29583334D01*
X40716666Y29316667D01*
X40616666Y29316667D01*
X40550000Y29283334D01*
X40516666Y29250000D01*
X40483333Y29183334D01*
X40483333Y29016667D01*
X40516666Y28950000D01*
X40550000Y28916667D01*
X40616666Y28883334D01*
X40816666Y28883334D01*
X40883333Y28916667D01*
X40916666Y28950000D01*
X40083333Y29283334D02*
X40150000Y29316667D01*
X40183333Y29350000D01*
X40216666Y29416667D01*
X40216666Y29450000D01*
X40183333Y29516667D01*
X40150000Y29550000D01*
X40083333Y29583334D01*
X39950000Y29583334D01*
X39883333Y29550000D01*
X39850000Y29516667D01*
X39816666Y29450000D01*
X39816666Y29416667D01*
X39850000Y29350000D01*
X39883333Y29316667D01*
X39950000Y29283334D01*
X40083333Y29283334D01*
X40150000Y29250000D01*
X40183333Y29216667D01*
X40216666Y29150000D01*
X40216666Y29016667D01*
X40183333Y28950000D01*
X40150000Y28916667D01*
X40083333Y28883334D01*
X39950000Y28883334D01*
X39883333Y28916667D01*
X39850000Y28950000D01*
X39816666Y29016667D01*
X39816666Y29150000D01*
X39850000Y29216667D01*
X39883333Y29250000D01*
X39950000Y29283334D01*
X40883333Y25383334D02*
X41283333Y25383334D01*
X41083333Y25383334D02*
X41083333Y26083334D01*
X41150000Y25983334D01*
X41216666Y25916667D01*
X41283333Y25883334D01*
X40583333Y25383334D02*
X40583333Y26083334D01*
X40516666Y25650000D02*
X40316666Y25383334D01*
X40316666Y25850000D02*
X40583333Y25583334D01*
X40950000Y26183334D02*
X41183333Y26516667D01*
X41350000Y26183334D02*
X41350000Y26883334D01*
X41083333Y26883334D01*
X41016666Y26850000D01*
X40983333Y26816667D01*
X40950000Y26750000D01*
X40950000Y26650000D01*
X40983333Y26583334D01*
X41016666Y26550000D01*
X41083333Y26516667D01*
X41350000Y26516667D01*
X40716666Y26883334D02*
X40283333Y26883334D01*
X40516666Y26616667D01*
X40416666Y26616667D01*
X40350000Y26583334D01*
X40316666Y26550000D01*
X40283333Y26483334D01*
X40283333Y26316667D01*
X40316666Y26250000D01*
X40350000Y26216667D01*
X40416666Y26183334D01*
X40616666Y26183334D01*
X40683333Y26216667D01*
X40716666Y26250000D01*
X39950000Y26183334D02*
X39816666Y26183334D01*
X39750000Y26216667D01*
X39716666Y26250000D01*
X39650000Y26350000D01*
X39616666Y26483334D01*
X39616666Y26750000D01*
X39650000Y26816667D01*
X39683333Y26850000D01*
X39750000Y26883334D01*
X39883333Y26883334D01*
X39950000Y26850000D01*
X39983333Y26816667D01*
X40016666Y26750000D01*
X40016666Y26583334D01*
X39983333Y26516667D01*
X39950000Y26483334D01*
X39883333Y26450000D01*
X39750000Y26450000D01*
X39683333Y26483334D01*
X39650000Y26516667D01*
X39616666Y26583334D01*
M02*
