G04 #@! TF.GenerationSoftware,KiCad,Pcbnew,(5.0.0-rc2)*
G04 #@! TF.CreationDate,2020-07-08T20:57:08+03:00*
G04 #@! TF.ProjectId,VCFPNL2,564346504E4C322E6B696361645F7063,rev?*
G04 #@! TF.SameCoordinates,PX2500a80PY82a7440*
G04 #@! TF.FileFunction,Copper,L1,Top,Signal*
G04 #@! TF.FilePolarity,Positive*
%FSLAX46Y46*%
G04 Gerber Fmt 4.6, Leading zero omitted, Abs format (unit mm)*
G04 Created by KiCad (PCBNEW (5.0.0-rc2)) date Wed Jul  8 20:57:08 2020*
%MOMM*%
%LPD*%
G01*
G04 APERTURE LIST*
G04 #@! TA.AperFunction,NonConductor*
%ADD10C,0.254000*%
G04 #@! TD*
G04 APERTURE END LIST*
D10*
G36*
X49973000Y427000D02*
X427000Y427000D01*
X427000Y3068362D01*
X4568380Y3068362D01*
X4568380Y2931638D01*
X4646690Y2437212D01*
X4646690Y2437211D01*
X4688940Y2307179D01*
X4916203Y1861150D01*
X4996567Y1750538D01*
X5350539Y1396567D01*
X5461150Y1316203D01*
X5907179Y1088940D01*
X6037211Y1046690D01*
X6523174Y969721D01*
X6556961Y963000D01*
X8443039Y963000D01*
X8476826Y969721D01*
X8962789Y1046690D01*
X9092821Y1088940D01*
X9538850Y1316203D01*
X9649462Y1396567D01*
X10003433Y1750539D01*
X10083797Y1861150D01*
X10311060Y2307179D01*
X10353310Y2437211D01*
X10353310Y2437212D01*
X10431620Y2931638D01*
X10431620Y3068362D01*
X40168380Y3068362D01*
X40168380Y2931638D01*
X40246690Y2437212D01*
X40246690Y2437211D01*
X40288940Y2307179D01*
X40516203Y1861150D01*
X40596567Y1750538D01*
X40950539Y1396567D01*
X41061150Y1316203D01*
X41507179Y1088940D01*
X41637211Y1046690D01*
X42123174Y969721D01*
X42156961Y963000D01*
X44043039Y963000D01*
X44076826Y969721D01*
X44562789Y1046690D01*
X44692821Y1088940D01*
X45138850Y1316203D01*
X45249462Y1396567D01*
X45603433Y1750539D01*
X45683797Y1861150D01*
X45911060Y2307179D01*
X45953310Y2437211D01*
X45953310Y2437212D01*
X46031620Y2931638D01*
X46031620Y3068362D01*
X45953310Y3562789D01*
X45911060Y3692821D01*
X45683797Y4138850D01*
X45603433Y4249461D01*
X45603432Y4249462D01*
X45249462Y4603433D01*
X45138850Y4683797D01*
X44692821Y4911060D01*
X44562789Y4953310D01*
X44076826Y5030279D01*
X44043039Y5037000D01*
X42156961Y5037000D01*
X42123174Y5030279D01*
X41637211Y4953310D01*
X41507179Y4911060D01*
X41061150Y4683797D01*
X40950539Y4603433D01*
X40596567Y4249462D01*
X40537658Y4168380D01*
X40516203Y4138850D01*
X40288940Y3692821D01*
X40246690Y3562789D01*
X40168380Y3068362D01*
X10431620Y3068362D01*
X10353310Y3562789D01*
X10311060Y3692821D01*
X10083797Y4138850D01*
X10003433Y4249461D01*
X10003432Y4249462D01*
X9649462Y4603433D01*
X9538850Y4683797D01*
X9092821Y4911060D01*
X8962789Y4953310D01*
X8476826Y5030279D01*
X8443039Y5037000D01*
X6556961Y5037000D01*
X6523174Y5030279D01*
X6037211Y4953310D01*
X5907179Y4911060D01*
X5461150Y4683797D01*
X5350539Y4603433D01*
X4996567Y4249462D01*
X4937658Y4168380D01*
X4916203Y4138850D01*
X4688940Y3692821D01*
X4646690Y3562789D01*
X4568380Y3068362D01*
X427000Y3068362D01*
X427000Y18948242D01*
X3493361Y18948242D01*
X3573000Y18317839D01*
X3573000Y18278545D01*
X3580142Y18261302D01*
X3596941Y18128328D01*
X3879597Y17351737D01*
X4095962Y17016005D01*
X4125178Y16945470D01*
X4170855Y16899793D01*
X4327281Y16657067D01*
X4917743Y16078844D01*
X5110211Y15960437D01*
X5145470Y15925178D01*
X5212973Y15897218D01*
X5621636Y15645806D01*
X6403976Y15379476D01*
X7225880Y15293090D01*
X7896023Y15373000D01*
X7921455Y15373000D01*
X7931736Y15377259D01*
X8046497Y15390943D01*
X8825042Y15668170D01*
X9183961Y15895948D01*
X9254530Y15925178D01*
X9297099Y15967747D01*
X9522820Y16110994D01*
X10105152Y16697405D01*
X10235737Y16906385D01*
X10274822Y16945470D01*
X10303652Y17015072D01*
X10543093Y17398258D01*
X10814879Y18178720D01*
X10825733Y18275486D01*
X10827000Y18278545D01*
X10827000Y18286782D01*
X10901194Y18948242D01*
X15493361Y18948242D01*
X15573000Y18317839D01*
X15573000Y18278545D01*
X15580142Y18261302D01*
X15596941Y18128328D01*
X15879597Y17351737D01*
X16095962Y17016005D01*
X16125178Y16945470D01*
X16170855Y16899793D01*
X16327281Y16657067D01*
X16917743Y16078844D01*
X17110211Y15960437D01*
X17145470Y15925178D01*
X17212973Y15897218D01*
X17621636Y15645806D01*
X18403976Y15379476D01*
X19225880Y15293090D01*
X19896023Y15373000D01*
X19921455Y15373000D01*
X19931736Y15377259D01*
X20046497Y15390943D01*
X20825042Y15668170D01*
X21183961Y15895948D01*
X21254530Y15925178D01*
X21297099Y15967747D01*
X21522820Y16110994D01*
X22105152Y16697405D01*
X22235737Y16906385D01*
X22274822Y16945470D01*
X22303652Y17015072D01*
X22543093Y17398258D01*
X22814879Y18178720D01*
X22825733Y18275486D01*
X22827000Y18278545D01*
X22827000Y18286782D01*
X22901194Y18948242D01*
X27493361Y18948242D01*
X27573000Y18317839D01*
X27573000Y18278545D01*
X27580142Y18261302D01*
X27596941Y18128328D01*
X27879597Y17351737D01*
X28095962Y17016005D01*
X28125178Y16945470D01*
X28170855Y16899793D01*
X28327281Y16657067D01*
X28917743Y16078844D01*
X29110211Y15960437D01*
X29145470Y15925178D01*
X29212973Y15897218D01*
X29621636Y15645806D01*
X30403976Y15379476D01*
X31225880Y15293090D01*
X31896023Y15373000D01*
X31921455Y15373000D01*
X31931736Y15377259D01*
X32046497Y15390943D01*
X32825042Y15668170D01*
X33183961Y15895948D01*
X33254530Y15925178D01*
X33297099Y15967747D01*
X33522820Y16110994D01*
X34105152Y16697405D01*
X34235737Y16906385D01*
X34274822Y16945470D01*
X34303652Y17015072D01*
X34543093Y17398258D01*
X34814879Y18178720D01*
X34825733Y18275486D01*
X34827000Y18278545D01*
X34827000Y18286782D01*
X34901194Y18948242D01*
X39493361Y18948242D01*
X39573000Y18317839D01*
X39573000Y18278545D01*
X39580142Y18261302D01*
X39596941Y18128328D01*
X39879597Y17351737D01*
X40095962Y17016005D01*
X40125178Y16945470D01*
X40170855Y16899793D01*
X40327281Y16657067D01*
X40917743Y16078844D01*
X41110211Y15960437D01*
X41145470Y15925178D01*
X41212973Y15897218D01*
X41621636Y15645806D01*
X42403976Y15379476D01*
X43225880Y15293090D01*
X43896023Y15373000D01*
X43921455Y15373000D01*
X43931736Y15377259D01*
X44046497Y15390943D01*
X44825042Y15668170D01*
X45183961Y15895948D01*
X45254530Y15925178D01*
X45297099Y15967747D01*
X45522820Y16110994D01*
X46105152Y16697405D01*
X46235737Y16906385D01*
X46274822Y16945470D01*
X46303652Y17015072D01*
X46543093Y17398258D01*
X46814879Y18178720D01*
X46825733Y18275486D01*
X46827000Y18278545D01*
X46827000Y18286782D01*
X46907000Y19000000D01*
X46905555Y19103506D01*
X46827000Y19662453D01*
X46827000Y19721455D01*
X46814449Y19751755D01*
X46790538Y19921893D01*
X46497066Y20694462D01*
X46302942Y20986643D01*
X46274822Y21054530D01*
X46224214Y21105138D01*
X46039727Y21382814D01*
X45441249Y21952736D01*
X45281219Y22048133D01*
X45254530Y22074822D01*
X45195273Y22099367D01*
X44731378Y22375904D01*
X43945396Y22631285D01*
X43122366Y22706187D01*
X42528889Y22627000D01*
X42478545Y22627000D01*
X42454621Y22617091D01*
X42303196Y22596886D01*
X41528597Y22308816D01*
X41215076Y22103654D01*
X41145470Y22074822D01*
X41097101Y22026453D01*
X40837069Y21856293D01*
X40262982Y21261808D01*
X40156295Y21085647D01*
X40125178Y21054530D01*
X40098621Y20990415D01*
X39834869Y20554909D01*
X39574007Y19770729D01*
X39493361Y18948242D01*
X34901194Y18948242D01*
X34907000Y19000000D01*
X34905555Y19103506D01*
X34827000Y19662453D01*
X34827000Y19721455D01*
X34814449Y19751755D01*
X34790538Y19921893D01*
X34497066Y20694462D01*
X34302942Y20986643D01*
X34274822Y21054530D01*
X34224214Y21105138D01*
X34039727Y21382814D01*
X33441249Y21952736D01*
X33281219Y22048133D01*
X33254530Y22074822D01*
X33195273Y22099367D01*
X32731378Y22375904D01*
X31945396Y22631285D01*
X31122366Y22706187D01*
X30528889Y22627000D01*
X30478545Y22627000D01*
X30454621Y22617091D01*
X30303196Y22596886D01*
X29528597Y22308816D01*
X29215076Y22103654D01*
X29145470Y22074822D01*
X29097101Y22026453D01*
X28837069Y21856293D01*
X28262982Y21261808D01*
X28156295Y21085647D01*
X28125178Y21054530D01*
X28098621Y20990415D01*
X27834869Y20554909D01*
X27574007Y19770729D01*
X27493361Y18948242D01*
X22901194Y18948242D01*
X22907000Y19000000D01*
X22905555Y19103506D01*
X22827000Y19662453D01*
X22827000Y19721455D01*
X22814449Y19751755D01*
X22790538Y19921893D01*
X22497066Y20694462D01*
X22302942Y20986643D01*
X22274822Y21054530D01*
X22224214Y21105138D01*
X22039727Y21382814D01*
X21441249Y21952736D01*
X21281219Y22048133D01*
X21254530Y22074822D01*
X21195273Y22099367D01*
X20731378Y22375904D01*
X19945396Y22631285D01*
X19122366Y22706187D01*
X18528889Y22627000D01*
X18478545Y22627000D01*
X18454621Y22617091D01*
X18303196Y22596886D01*
X17528597Y22308816D01*
X17215076Y22103654D01*
X17145470Y22074822D01*
X17097101Y22026453D01*
X16837069Y21856293D01*
X16262982Y21261808D01*
X16156295Y21085647D01*
X16125178Y21054530D01*
X16098621Y20990415D01*
X15834869Y20554909D01*
X15574007Y19770729D01*
X15493361Y18948242D01*
X10901194Y18948242D01*
X10907000Y19000000D01*
X10905555Y19103506D01*
X10827000Y19662453D01*
X10827000Y19721455D01*
X10814449Y19751755D01*
X10790538Y19921893D01*
X10497066Y20694462D01*
X10302942Y20986643D01*
X10274822Y21054530D01*
X10224214Y21105138D01*
X10039727Y21382814D01*
X9441249Y21952736D01*
X9281219Y22048133D01*
X9254530Y22074822D01*
X9195273Y22099367D01*
X8731378Y22375904D01*
X7945396Y22631285D01*
X7122366Y22706187D01*
X6528889Y22627000D01*
X6478545Y22627000D01*
X6454621Y22617091D01*
X6303196Y22596886D01*
X5528597Y22308816D01*
X5215076Y22103654D01*
X5145470Y22074822D01*
X5097101Y22026453D01*
X4837069Y21856293D01*
X4262982Y21261808D01*
X4156295Y21085647D01*
X4125178Y21054530D01*
X4098621Y20990415D01*
X3834869Y20554909D01*
X3574007Y19770729D01*
X3493361Y18948242D01*
X427000Y18948242D01*
X427000Y42000000D01*
X8993000Y42000000D01*
X9073000Y41238851D01*
X9073000Y41179089D01*
X9081417Y41158769D01*
X9084933Y41125316D01*
X9356714Y40288859D01*
X9657642Y39767637D01*
X9701298Y39662242D01*
X9741979Y39621561D01*
X9796466Y39527187D01*
X10384968Y38873590D01*
X10768876Y38594664D01*
X10862242Y38501298D01*
X10943988Y38467438D01*
X11096500Y38356631D01*
X11899966Y37998905D01*
X12259757Y37922429D01*
X12379089Y37873000D01*
X12492302Y37873000D01*
X12760249Y37816046D01*
X13639751Y37816046D01*
X13907698Y37873000D01*
X14020911Y37873000D01*
X14140243Y37922429D01*
X14500034Y37998905D01*
X15303500Y38356631D01*
X15456012Y38467438D01*
X15537758Y38501298D01*
X15631124Y38594664D01*
X16015032Y38873590D01*
X16603534Y39527187D01*
X16658021Y39621561D01*
X16698702Y39662242D01*
X16742358Y39767637D01*
X17043286Y40288859D01*
X17315067Y41125316D01*
X17318583Y41158769D01*
X17327000Y41179089D01*
X17327000Y41238851D01*
X17407000Y42000000D01*
X32993000Y42000000D01*
X33073000Y41238851D01*
X33073000Y41179089D01*
X33081417Y41158769D01*
X33084933Y41125316D01*
X33356714Y40288859D01*
X33657642Y39767637D01*
X33701298Y39662242D01*
X33741979Y39621561D01*
X33796466Y39527187D01*
X34384968Y38873590D01*
X34768876Y38594664D01*
X34862242Y38501298D01*
X34943988Y38467438D01*
X35096500Y38356631D01*
X35899966Y37998905D01*
X36259757Y37922429D01*
X36379089Y37873000D01*
X36492302Y37873000D01*
X36760249Y37816046D01*
X37639751Y37816046D01*
X37907698Y37873000D01*
X38020911Y37873000D01*
X38140243Y37922429D01*
X38500034Y37998905D01*
X39303500Y38356631D01*
X39456012Y38467438D01*
X39537758Y38501298D01*
X39631124Y38594664D01*
X40015032Y38873590D01*
X40603534Y39527187D01*
X40658021Y39621561D01*
X40698702Y39662242D01*
X40742358Y39767637D01*
X41043286Y40288859D01*
X41315067Y41125316D01*
X41318583Y41158769D01*
X41327000Y41179089D01*
X41327000Y41238851D01*
X41407000Y42000000D01*
X41327000Y42761149D01*
X41327000Y42820911D01*
X41318583Y42841231D01*
X41315067Y42874684D01*
X41043286Y43711141D01*
X40742358Y44232363D01*
X40698702Y44337758D01*
X40658021Y44378439D01*
X40603534Y44472813D01*
X40015032Y45126410D01*
X39631124Y45405336D01*
X39537758Y45498702D01*
X39456012Y45532562D01*
X39303500Y45643369D01*
X38500034Y46001095D01*
X38140243Y46077571D01*
X38020911Y46127000D01*
X37907698Y46127000D01*
X37639751Y46183954D01*
X36760249Y46183954D01*
X36492302Y46127000D01*
X36379089Y46127000D01*
X36259757Y46077571D01*
X35899966Y46001095D01*
X35096500Y45643369D01*
X34943988Y45532562D01*
X34862242Y45498702D01*
X34768876Y45405336D01*
X34384968Y45126410D01*
X33796466Y44472813D01*
X33741979Y44378439D01*
X33701298Y44337758D01*
X33657642Y44232363D01*
X33356714Y43711141D01*
X33084933Y42874684D01*
X33081417Y42841231D01*
X33073000Y42820911D01*
X33073000Y42761149D01*
X32993000Y42000000D01*
X17407000Y42000000D01*
X17327000Y42761149D01*
X17327000Y42820911D01*
X17318583Y42841231D01*
X17315067Y42874684D01*
X17043286Y43711141D01*
X16742358Y44232363D01*
X16698702Y44337758D01*
X16658021Y44378439D01*
X16603534Y44472813D01*
X16015032Y45126410D01*
X15631124Y45405336D01*
X15537758Y45498702D01*
X15456012Y45532562D01*
X15303500Y45643369D01*
X14500034Y46001095D01*
X14140243Y46077571D01*
X14020911Y46127000D01*
X13907698Y46127000D01*
X13639751Y46183954D01*
X12760249Y46183954D01*
X12492302Y46127000D01*
X12379089Y46127000D01*
X12259757Y46077571D01*
X11899966Y46001095D01*
X11096500Y45643369D01*
X10943988Y45532562D01*
X10862242Y45498702D01*
X10768876Y45405336D01*
X10384968Y45126410D01*
X9796466Y44472813D01*
X9741979Y44378439D01*
X9701298Y44337758D01*
X9657642Y44232363D01*
X9356714Y43711141D01*
X9084933Y42874684D01*
X9081417Y42841231D01*
X9073000Y42820911D01*
X9073000Y42761149D01*
X8993000Y42000000D01*
X427000Y42000000D01*
X427000Y68000000D01*
X8993000Y68000000D01*
X9073000Y67238851D01*
X9073000Y67179089D01*
X9081417Y67158769D01*
X9084933Y67125316D01*
X9356714Y66288859D01*
X9657642Y65767637D01*
X9701298Y65662242D01*
X9741979Y65621561D01*
X9796466Y65527187D01*
X10384968Y64873590D01*
X10768876Y64594664D01*
X10862242Y64501298D01*
X10943988Y64467438D01*
X11096500Y64356631D01*
X11899966Y63998905D01*
X12259757Y63922429D01*
X12379089Y63873000D01*
X12492302Y63873000D01*
X12760249Y63816046D01*
X13639751Y63816046D01*
X13907698Y63873000D01*
X14020911Y63873000D01*
X14140243Y63922429D01*
X14500034Y63998905D01*
X15303500Y64356631D01*
X15456012Y64467438D01*
X15537758Y64501298D01*
X15631124Y64594664D01*
X16015032Y64873590D01*
X16603534Y65527187D01*
X16658021Y65621561D01*
X16698702Y65662242D01*
X16742358Y65767637D01*
X17043286Y66288859D01*
X17315067Y67125316D01*
X17318583Y67158769D01*
X17327000Y67179089D01*
X17327000Y67238851D01*
X17407000Y68000000D01*
X32993000Y68000000D01*
X33073000Y67238851D01*
X33073000Y67179089D01*
X33081417Y67158769D01*
X33084933Y67125316D01*
X33356714Y66288859D01*
X33657642Y65767637D01*
X33701298Y65662242D01*
X33741979Y65621561D01*
X33796466Y65527187D01*
X34384968Y64873590D01*
X34768876Y64594664D01*
X34862242Y64501298D01*
X34943988Y64467438D01*
X35096500Y64356631D01*
X35899966Y63998905D01*
X36259757Y63922429D01*
X36379089Y63873000D01*
X36492302Y63873000D01*
X36760249Y63816046D01*
X37639751Y63816046D01*
X37907698Y63873000D01*
X38020911Y63873000D01*
X38140243Y63922429D01*
X38500034Y63998905D01*
X39303500Y64356631D01*
X39456012Y64467438D01*
X39537758Y64501298D01*
X39631124Y64594664D01*
X40015032Y64873590D01*
X40603534Y65527187D01*
X40658021Y65621561D01*
X40698702Y65662242D01*
X40742358Y65767637D01*
X41043286Y66288859D01*
X41315067Y67125316D01*
X41318583Y67158769D01*
X41327000Y67179089D01*
X41327000Y67238851D01*
X41407000Y68000000D01*
X41327000Y68761149D01*
X41327000Y68820911D01*
X41318583Y68841231D01*
X41315067Y68874684D01*
X41043286Y69711141D01*
X40742358Y70232363D01*
X40698702Y70337758D01*
X40658021Y70378439D01*
X40603534Y70472813D01*
X40015032Y71126410D01*
X39631124Y71405336D01*
X39537758Y71498702D01*
X39456012Y71532562D01*
X39303500Y71643369D01*
X38500034Y72001095D01*
X38140243Y72077571D01*
X38020911Y72127000D01*
X37907698Y72127000D01*
X37639751Y72183954D01*
X36760249Y72183954D01*
X36492302Y72127000D01*
X36379089Y72127000D01*
X36259757Y72077571D01*
X35899966Y72001095D01*
X35096500Y71643369D01*
X34943988Y71532562D01*
X34862242Y71498702D01*
X34768876Y71405336D01*
X34384968Y71126410D01*
X33796466Y70472813D01*
X33741979Y70378439D01*
X33701298Y70337758D01*
X33657642Y70232363D01*
X33356714Y69711141D01*
X33084933Y68874684D01*
X33081417Y68841231D01*
X33073000Y68820911D01*
X33073000Y68761149D01*
X32993000Y68000000D01*
X17407000Y68000000D01*
X17327000Y68761149D01*
X17327000Y68820911D01*
X17318583Y68841231D01*
X17315067Y68874684D01*
X17043286Y69711141D01*
X16742358Y70232363D01*
X16698702Y70337758D01*
X16658021Y70378439D01*
X16603534Y70472813D01*
X16015032Y71126410D01*
X15631124Y71405336D01*
X15537758Y71498702D01*
X15456012Y71532562D01*
X15303500Y71643369D01*
X14500034Y72001095D01*
X14140243Y72077571D01*
X14020911Y72127000D01*
X13907698Y72127000D01*
X13639751Y72183954D01*
X12760249Y72183954D01*
X12492302Y72127000D01*
X12379089Y72127000D01*
X12259757Y72077571D01*
X11899966Y72001095D01*
X11096500Y71643369D01*
X10943988Y71532562D01*
X10862242Y71498702D01*
X10768876Y71405336D01*
X10384968Y71126410D01*
X9796466Y70472813D01*
X9741979Y70378439D01*
X9701298Y70337758D01*
X9657642Y70232363D01*
X9356714Y69711141D01*
X9084933Y68874684D01*
X9081417Y68841231D01*
X9073000Y68820911D01*
X9073000Y68761149D01*
X8993000Y68000000D01*
X427000Y68000000D01*
X427000Y87948242D01*
X3493361Y87948242D01*
X3573000Y87317839D01*
X3573000Y87278545D01*
X3580142Y87261302D01*
X3596941Y87128328D01*
X3879597Y86351737D01*
X4095962Y86016005D01*
X4125178Y85945470D01*
X4170855Y85899793D01*
X4327281Y85657067D01*
X4917743Y85078844D01*
X5110211Y84960437D01*
X5145470Y84925178D01*
X5212973Y84897218D01*
X5621636Y84645806D01*
X6403976Y84379476D01*
X7225880Y84293090D01*
X7896023Y84373000D01*
X7921455Y84373000D01*
X7931736Y84377259D01*
X8046497Y84390943D01*
X8825042Y84668170D01*
X9183961Y84895948D01*
X9254530Y84925178D01*
X9297099Y84967747D01*
X9522820Y85110994D01*
X10105152Y85697405D01*
X10235737Y85906385D01*
X10274822Y85945470D01*
X10303652Y86015072D01*
X10543093Y86398258D01*
X10814879Y87178720D01*
X10825733Y87275486D01*
X10827000Y87278545D01*
X10827000Y87286782D01*
X10907000Y88000000D01*
X10905555Y88103506D01*
X10827000Y88662453D01*
X10827000Y88721455D01*
X10814449Y88751755D01*
X10790538Y88921893D01*
X10497066Y89694462D01*
X10302942Y89986643D01*
X10274822Y90054530D01*
X10224214Y90105138D01*
X10039727Y90382814D01*
X9441249Y90952736D01*
X9281219Y91048133D01*
X9254530Y91074822D01*
X9195273Y91099367D01*
X8731378Y91375904D01*
X7945396Y91631285D01*
X7122366Y91706187D01*
X6528889Y91627000D01*
X6478545Y91627000D01*
X6454621Y91617091D01*
X6303196Y91596886D01*
X5528597Y91308816D01*
X5215076Y91103654D01*
X5145470Y91074822D01*
X5097101Y91026453D01*
X4837069Y90856293D01*
X4262982Y90261808D01*
X4156295Y90085647D01*
X4125178Y90054530D01*
X4098621Y89990415D01*
X3834869Y89554909D01*
X3574007Y88770729D01*
X3493361Y87948242D01*
X427000Y87948242D01*
X427000Y105000000D01*
X20993000Y105000000D01*
X21073000Y104238851D01*
X21073000Y104179089D01*
X21081417Y104158769D01*
X21084933Y104125316D01*
X21356714Y103288859D01*
X21657642Y102767637D01*
X21701298Y102662242D01*
X21741979Y102621561D01*
X21796466Y102527187D01*
X22384968Y101873590D01*
X22768876Y101594664D01*
X22862242Y101501298D01*
X22943988Y101467438D01*
X23096500Y101356631D01*
X23899966Y100998905D01*
X24259757Y100922429D01*
X24379089Y100873000D01*
X24492302Y100873000D01*
X24760249Y100816046D01*
X25639751Y100816046D01*
X25907698Y100873000D01*
X26020911Y100873000D01*
X26140243Y100922429D01*
X26500034Y100998905D01*
X27303500Y101356631D01*
X27456012Y101467438D01*
X27537758Y101501298D01*
X27631124Y101594664D01*
X28015032Y101873590D01*
X28603534Y102527187D01*
X28658021Y102621561D01*
X28698702Y102662242D01*
X28742358Y102767637D01*
X29043286Y103288859D01*
X29315067Y104125316D01*
X29318583Y104158769D01*
X29327000Y104179089D01*
X29327000Y104238851D01*
X29407000Y105000000D01*
X29327000Y105761149D01*
X29327000Y105820911D01*
X29318583Y105841231D01*
X29315067Y105874684D01*
X29043286Y106711141D01*
X28742358Y107232363D01*
X28698702Y107337758D01*
X28658021Y107378439D01*
X28603534Y107472813D01*
X28015032Y108126410D01*
X27631124Y108405336D01*
X27537758Y108498702D01*
X27456012Y108532562D01*
X27303500Y108643369D01*
X26500034Y109001095D01*
X26140243Y109077571D01*
X26020911Y109127000D01*
X25907698Y109127000D01*
X25639751Y109183954D01*
X24760249Y109183954D01*
X24492302Y109127000D01*
X24379089Y109127000D01*
X24259757Y109077571D01*
X23899966Y109001095D01*
X23096500Y108643369D01*
X22943988Y108532562D01*
X22862242Y108498702D01*
X22768876Y108405336D01*
X22384968Y108126410D01*
X21796466Y107472813D01*
X21741979Y107378439D01*
X21701298Y107337758D01*
X21657642Y107232363D01*
X21356714Y106711141D01*
X21084933Y105874684D01*
X21081417Y105841231D01*
X21073000Y105820911D01*
X21073000Y105761149D01*
X20993000Y105000000D01*
X427000Y105000000D01*
X427000Y125568362D01*
X4568380Y125568362D01*
X4568380Y125431638D01*
X4646690Y124937212D01*
X4646690Y124937211D01*
X4688940Y124807179D01*
X4916203Y124361150D01*
X4996567Y124250538D01*
X5350539Y123896567D01*
X5461150Y123816203D01*
X5907179Y123588940D01*
X6037211Y123546690D01*
X6523174Y123469721D01*
X6556961Y123463000D01*
X8443039Y123463000D01*
X8476826Y123469721D01*
X8962789Y123546690D01*
X9092821Y123588940D01*
X9538850Y123816203D01*
X9649462Y123896567D01*
X10003433Y124250539D01*
X10083797Y124361150D01*
X10311060Y124807179D01*
X10353310Y124937211D01*
X10353310Y124937212D01*
X10431620Y125431638D01*
X10431620Y125568362D01*
X40168380Y125568362D01*
X40168380Y125431638D01*
X40246690Y124937212D01*
X40246690Y124937211D01*
X40288940Y124807179D01*
X40516203Y124361150D01*
X40596567Y124250538D01*
X40950539Y123896567D01*
X41061150Y123816203D01*
X41507179Y123588940D01*
X41637211Y123546690D01*
X42123174Y123469721D01*
X42156961Y123463000D01*
X44043039Y123463000D01*
X44076826Y123469721D01*
X44562789Y123546690D01*
X44692821Y123588940D01*
X45138850Y123816203D01*
X45249462Y123896567D01*
X45603433Y124250539D01*
X45683797Y124361150D01*
X45911060Y124807179D01*
X45953310Y124937211D01*
X45953310Y124937212D01*
X46031620Y125431638D01*
X46031620Y125568362D01*
X45953310Y126062789D01*
X45911060Y126192821D01*
X45683797Y126638850D01*
X45603433Y126749461D01*
X45603432Y126749462D01*
X45249462Y127103433D01*
X45138850Y127183797D01*
X44692821Y127411060D01*
X44562789Y127453310D01*
X44076826Y127530279D01*
X44043039Y127537000D01*
X42156961Y127537000D01*
X42123174Y127530279D01*
X41637211Y127453310D01*
X41507179Y127411060D01*
X41061150Y127183797D01*
X40950539Y127103433D01*
X40596567Y126749462D01*
X40537658Y126668380D01*
X40516203Y126638850D01*
X40288940Y126192821D01*
X40246690Y126062789D01*
X40168380Y125568362D01*
X10431620Y125568362D01*
X10353310Y126062789D01*
X10311060Y126192821D01*
X10083797Y126638850D01*
X10003433Y126749461D01*
X10003432Y126749462D01*
X9649462Y127103433D01*
X9538850Y127183797D01*
X9092821Y127411060D01*
X8962789Y127453310D01*
X8476826Y127530279D01*
X8443039Y127537000D01*
X6556961Y127537000D01*
X6523174Y127530279D01*
X6037211Y127453310D01*
X5907179Y127411060D01*
X5461150Y127183797D01*
X5350539Y127103433D01*
X4996567Y126749462D01*
X4937658Y126668380D01*
X4916203Y126638850D01*
X4688940Y126192821D01*
X4646690Y126062789D01*
X4568380Y125568362D01*
X427000Y125568362D01*
X426999Y128073000D01*
X49973001Y128073000D01*
X49973000Y427000D01*
X49973000Y427000D01*
G37*
X49973000Y427000D02*
X427000Y427000D01*
X427000Y3068362D01*
X4568380Y3068362D01*
X4568380Y2931638D01*
X4646690Y2437212D01*
X4646690Y2437211D01*
X4688940Y2307179D01*
X4916203Y1861150D01*
X4996567Y1750538D01*
X5350539Y1396567D01*
X5461150Y1316203D01*
X5907179Y1088940D01*
X6037211Y1046690D01*
X6523174Y969721D01*
X6556961Y963000D01*
X8443039Y963000D01*
X8476826Y969721D01*
X8962789Y1046690D01*
X9092821Y1088940D01*
X9538850Y1316203D01*
X9649462Y1396567D01*
X10003433Y1750539D01*
X10083797Y1861150D01*
X10311060Y2307179D01*
X10353310Y2437211D01*
X10353310Y2437212D01*
X10431620Y2931638D01*
X10431620Y3068362D01*
X40168380Y3068362D01*
X40168380Y2931638D01*
X40246690Y2437212D01*
X40246690Y2437211D01*
X40288940Y2307179D01*
X40516203Y1861150D01*
X40596567Y1750538D01*
X40950539Y1396567D01*
X41061150Y1316203D01*
X41507179Y1088940D01*
X41637211Y1046690D01*
X42123174Y969721D01*
X42156961Y963000D01*
X44043039Y963000D01*
X44076826Y969721D01*
X44562789Y1046690D01*
X44692821Y1088940D01*
X45138850Y1316203D01*
X45249462Y1396567D01*
X45603433Y1750539D01*
X45683797Y1861150D01*
X45911060Y2307179D01*
X45953310Y2437211D01*
X45953310Y2437212D01*
X46031620Y2931638D01*
X46031620Y3068362D01*
X45953310Y3562789D01*
X45911060Y3692821D01*
X45683797Y4138850D01*
X45603433Y4249461D01*
X45603432Y4249462D01*
X45249462Y4603433D01*
X45138850Y4683797D01*
X44692821Y4911060D01*
X44562789Y4953310D01*
X44076826Y5030279D01*
X44043039Y5037000D01*
X42156961Y5037000D01*
X42123174Y5030279D01*
X41637211Y4953310D01*
X41507179Y4911060D01*
X41061150Y4683797D01*
X40950539Y4603433D01*
X40596567Y4249462D01*
X40537658Y4168380D01*
X40516203Y4138850D01*
X40288940Y3692821D01*
X40246690Y3562789D01*
X40168380Y3068362D01*
X10431620Y3068362D01*
X10353310Y3562789D01*
X10311060Y3692821D01*
X10083797Y4138850D01*
X10003433Y4249461D01*
X10003432Y4249462D01*
X9649462Y4603433D01*
X9538850Y4683797D01*
X9092821Y4911060D01*
X8962789Y4953310D01*
X8476826Y5030279D01*
X8443039Y5037000D01*
X6556961Y5037000D01*
X6523174Y5030279D01*
X6037211Y4953310D01*
X5907179Y4911060D01*
X5461150Y4683797D01*
X5350539Y4603433D01*
X4996567Y4249462D01*
X4937658Y4168380D01*
X4916203Y4138850D01*
X4688940Y3692821D01*
X4646690Y3562789D01*
X4568380Y3068362D01*
X427000Y3068362D01*
X427000Y18948242D01*
X3493361Y18948242D01*
X3573000Y18317839D01*
X3573000Y18278545D01*
X3580142Y18261302D01*
X3596941Y18128328D01*
X3879597Y17351737D01*
X4095962Y17016005D01*
X4125178Y16945470D01*
X4170855Y16899793D01*
X4327281Y16657067D01*
X4917743Y16078844D01*
X5110211Y15960437D01*
X5145470Y15925178D01*
X5212973Y15897218D01*
X5621636Y15645806D01*
X6403976Y15379476D01*
X7225880Y15293090D01*
X7896023Y15373000D01*
X7921455Y15373000D01*
X7931736Y15377259D01*
X8046497Y15390943D01*
X8825042Y15668170D01*
X9183961Y15895948D01*
X9254530Y15925178D01*
X9297099Y15967747D01*
X9522820Y16110994D01*
X10105152Y16697405D01*
X10235737Y16906385D01*
X10274822Y16945470D01*
X10303652Y17015072D01*
X10543093Y17398258D01*
X10814879Y18178720D01*
X10825733Y18275486D01*
X10827000Y18278545D01*
X10827000Y18286782D01*
X10901194Y18948242D01*
X15493361Y18948242D01*
X15573000Y18317839D01*
X15573000Y18278545D01*
X15580142Y18261302D01*
X15596941Y18128328D01*
X15879597Y17351737D01*
X16095962Y17016005D01*
X16125178Y16945470D01*
X16170855Y16899793D01*
X16327281Y16657067D01*
X16917743Y16078844D01*
X17110211Y15960437D01*
X17145470Y15925178D01*
X17212973Y15897218D01*
X17621636Y15645806D01*
X18403976Y15379476D01*
X19225880Y15293090D01*
X19896023Y15373000D01*
X19921455Y15373000D01*
X19931736Y15377259D01*
X20046497Y15390943D01*
X20825042Y15668170D01*
X21183961Y15895948D01*
X21254530Y15925178D01*
X21297099Y15967747D01*
X21522820Y16110994D01*
X22105152Y16697405D01*
X22235737Y16906385D01*
X22274822Y16945470D01*
X22303652Y17015072D01*
X22543093Y17398258D01*
X22814879Y18178720D01*
X22825733Y18275486D01*
X22827000Y18278545D01*
X22827000Y18286782D01*
X22901194Y18948242D01*
X27493361Y18948242D01*
X27573000Y18317839D01*
X27573000Y18278545D01*
X27580142Y18261302D01*
X27596941Y18128328D01*
X27879597Y17351737D01*
X28095962Y17016005D01*
X28125178Y16945470D01*
X28170855Y16899793D01*
X28327281Y16657067D01*
X28917743Y16078844D01*
X29110211Y15960437D01*
X29145470Y15925178D01*
X29212973Y15897218D01*
X29621636Y15645806D01*
X30403976Y15379476D01*
X31225880Y15293090D01*
X31896023Y15373000D01*
X31921455Y15373000D01*
X31931736Y15377259D01*
X32046497Y15390943D01*
X32825042Y15668170D01*
X33183961Y15895948D01*
X33254530Y15925178D01*
X33297099Y15967747D01*
X33522820Y16110994D01*
X34105152Y16697405D01*
X34235737Y16906385D01*
X34274822Y16945470D01*
X34303652Y17015072D01*
X34543093Y17398258D01*
X34814879Y18178720D01*
X34825733Y18275486D01*
X34827000Y18278545D01*
X34827000Y18286782D01*
X34901194Y18948242D01*
X39493361Y18948242D01*
X39573000Y18317839D01*
X39573000Y18278545D01*
X39580142Y18261302D01*
X39596941Y18128328D01*
X39879597Y17351737D01*
X40095962Y17016005D01*
X40125178Y16945470D01*
X40170855Y16899793D01*
X40327281Y16657067D01*
X40917743Y16078844D01*
X41110211Y15960437D01*
X41145470Y15925178D01*
X41212973Y15897218D01*
X41621636Y15645806D01*
X42403976Y15379476D01*
X43225880Y15293090D01*
X43896023Y15373000D01*
X43921455Y15373000D01*
X43931736Y15377259D01*
X44046497Y15390943D01*
X44825042Y15668170D01*
X45183961Y15895948D01*
X45254530Y15925178D01*
X45297099Y15967747D01*
X45522820Y16110994D01*
X46105152Y16697405D01*
X46235737Y16906385D01*
X46274822Y16945470D01*
X46303652Y17015072D01*
X46543093Y17398258D01*
X46814879Y18178720D01*
X46825733Y18275486D01*
X46827000Y18278545D01*
X46827000Y18286782D01*
X46907000Y19000000D01*
X46905555Y19103506D01*
X46827000Y19662453D01*
X46827000Y19721455D01*
X46814449Y19751755D01*
X46790538Y19921893D01*
X46497066Y20694462D01*
X46302942Y20986643D01*
X46274822Y21054530D01*
X46224214Y21105138D01*
X46039727Y21382814D01*
X45441249Y21952736D01*
X45281219Y22048133D01*
X45254530Y22074822D01*
X45195273Y22099367D01*
X44731378Y22375904D01*
X43945396Y22631285D01*
X43122366Y22706187D01*
X42528889Y22627000D01*
X42478545Y22627000D01*
X42454621Y22617091D01*
X42303196Y22596886D01*
X41528597Y22308816D01*
X41215076Y22103654D01*
X41145470Y22074822D01*
X41097101Y22026453D01*
X40837069Y21856293D01*
X40262982Y21261808D01*
X40156295Y21085647D01*
X40125178Y21054530D01*
X40098621Y20990415D01*
X39834869Y20554909D01*
X39574007Y19770729D01*
X39493361Y18948242D01*
X34901194Y18948242D01*
X34907000Y19000000D01*
X34905555Y19103506D01*
X34827000Y19662453D01*
X34827000Y19721455D01*
X34814449Y19751755D01*
X34790538Y19921893D01*
X34497066Y20694462D01*
X34302942Y20986643D01*
X34274822Y21054530D01*
X34224214Y21105138D01*
X34039727Y21382814D01*
X33441249Y21952736D01*
X33281219Y22048133D01*
X33254530Y22074822D01*
X33195273Y22099367D01*
X32731378Y22375904D01*
X31945396Y22631285D01*
X31122366Y22706187D01*
X30528889Y22627000D01*
X30478545Y22627000D01*
X30454621Y22617091D01*
X30303196Y22596886D01*
X29528597Y22308816D01*
X29215076Y22103654D01*
X29145470Y22074822D01*
X29097101Y22026453D01*
X28837069Y21856293D01*
X28262982Y21261808D01*
X28156295Y21085647D01*
X28125178Y21054530D01*
X28098621Y20990415D01*
X27834869Y20554909D01*
X27574007Y19770729D01*
X27493361Y18948242D01*
X22901194Y18948242D01*
X22907000Y19000000D01*
X22905555Y19103506D01*
X22827000Y19662453D01*
X22827000Y19721455D01*
X22814449Y19751755D01*
X22790538Y19921893D01*
X22497066Y20694462D01*
X22302942Y20986643D01*
X22274822Y21054530D01*
X22224214Y21105138D01*
X22039727Y21382814D01*
X21441249Y21952736D01*
X21281219Y22048133D01*
X21254530Y22074822D01*
X21195273Y22099367D01*
X20731378Y22375904D01*
X19945396Y22631285D01*
X19122366Y22706187D01*
X18528889Y22627000D01*
X18478545Y22627000D01*
X18454621Y22617091D01*
X18303196Y22596886D01*
X17528597Y22308816D01*
X17215076Y22103654D01*
X17145470Y22074822D01*
X17097101Y22026453D01*
X16837069Y21856293D01*
X16262982Y21261808D01*
X16156295Y21085647D01*
X16125178Y21054530D01*
X16098621Y20990415D01*
X15834869Y20554909D01*
X15574007Y19770729D01*
X15493361Y18948242D01*
X10901194Y18948242D01*
X10907000Y19000000D01*
X10905555Y19103506D01*
X10827000Y19662453D01*
X10827000Y19721455D01*
X10814449Y19751755D01*
X10790538Y19921893D01*
X10497066Y20694462D01*
X10302942Y20986643D01*
X10274822Y21054530D01*
X10224214Y21105138D01*
X10039727Y21382814D01*
X9441249Y21952736D01*
X9281219Y22048133D01*
X9254530Y22074822D01*
X9195273Y22099367D01*
X8731378Y22375904D01*
X7945396Y22631285D01*
X7122366Y22706187D01*
X6528889Y22627000D01*
X6478545Y22627000D01*
X6454621Y22617091D01*
X6303196Y22596886D01*
X5528597Y22308816D01*
X5215076Y22103654D01*
X5145470Y22074822D01*
X5097101Y22026453D01*
X4837069Y21856293D01*
X4262982Y21261808D01*
X4156295Y21085647D01*
X4125178Y21054530D01*
X4098621Y20990415D01*
X3834869Y20554909D01*
X3574007Y19770729D01*
X3493361Y18948242D01*
X427000Y18948242D01*
X427000Y42000000D01*
X8993000Y42000000D01*
X9073000Y41238851D01*
X9073000Y41179089D01*
X9081417Y41158769D01*
X9084933Y41125316D01*
X9356714Y40288859D01*
X9657642Y39767637D01*
X9701298Y39662242D01*
X9741979Y39621561D01*
X9796466Y39527187D01*
X10384968Y38873590D01*
X10768876Y38594664D01*
X10862242Y38501298D01*
X10943988Y38467438D01*
X11096500Y38356631D01*
X11899966Y37998905D01*
X12259757Y37922429D01*
X12379089Y37873000D01*
X12492302Y37873000D01*
X12760249Y37816046D01*
X13639751Y37816046D01*
X13907698Y37873000D01*
X14020911Y37873000D01*
X14140243Y37922429D01*
X14500034Y37998905D01*
X15303500Y38356631D01*
X15456012Y38467438D01*
X15537758Y38501298D01*
X15631124Y38594664D01*
X16015032Y38873590D01*
X16603534Y39527187D01*
X16658021Y39621561D01*
X16698702Y39662242D01*
X16742358Y39767637D01*
X17043286Y40288859D01*
X17315067Y41125316D01*
X17318583Y41158769D01*
X17327000Y41179089D01*
X17327000Y41238851D01*
X17407000Y42000000D01*
X32993000Y42000000D01*
X33073000Y41238851D01*
X33073000Y41179089D01*
X33081417Y41158769D01*
X33084933Y41125316D01*
X33356714Y40288859D01*
X33657642Y39767637D01*
X33701298Y39662242D01*
X33741979Y39621561D01*
X33796466Y39527187D01*
X34384968Y38873590D01*
X34768876Y38594664D01*
X34862242Y38501298D01*
X34943988Y38467438D01*
X35096500Y38356631D01*
X35899966Y37998905D01*
X36259757Y37922429D01*
X36379089Y37873000D01*
X36492302Y37873000D01*
X36760249Y37816046D01*
X37639751Y37816046D01*
X37907698Y37873000D01*
X38020911Y37873000D01*
X38140243Y37922429D01*
X38500034Y37998905D01*
X39303500Y38356631D01*
X39456012Y38467438D01*
X39537758Y38501298D01*
X39631124Y38594664D01*
X40015032Y38873590D01*
X40603534Y39527187D01*
X40658021Y39621561D01*
X40698702Y39662242D01*
X40742358Y39767637D01*
X41043286Y40288859D01*
X41315067Y41125316D01*
X41318583Y41158769D01*
X41327000Y41179089D01*
X41327000Y41238851D01*
X41407000Y42000000D01*
X41327000Y42761149D01*
X41327000Y42820911D01*
X41318583Y42841231D01*
X41315067Y42874684D01*
X41043286Y43711141D01*
X40742358Y44232363D01*
X40698702Y44337758D01*
X40658021Y44378439D01*
X40603534Y44472813D01*
X40015032Y45126410D01*
X39631124Y45405336D01*
X39537758Y45498702D01*
X39456012Y45532562D01*
X39303500Y45643369D01*
X38500034Y46001095D01*
X38140243Y46077571D01*
X38020911Y46127000D01*
X37907698Y46127000D01*
X37639751Y46183954D01*
X36760249Y46183954D01*
X36492302Y46127000D01*
X36379089Y46127000D01*
X36259757Y46077571D01*
X35899966Y46001095D01*
X35096500Y45643369D01*
X34943988Y45532562D01*
X34862242Y45498702D01*
X34768876Y45405336D01*
X34384968Y45126410D01*
X33796466Y44472813D01*
X33741979Y44378439D01*
X33701298Y44337758D01*
X33657642Y44232363D01*
X33356714Y43711141D01*
X33084933Y42874684D01*
X33081417Y42841231D01*
X33073000Y42820911D01*
X33073000Y42761149D01*
X32993000Y42000000D01*
X17407000Y42000000D01*
X17327000Y42761149D01*
X17327000Y42820911D01*
X17318583Y42841231D01*
X17315067Y42874684D01*
X17043286Y43711141D01*
X16742358Y44232363D01*
X16698702Y44337758D01*
X16658021Y44378439D01*
X16603534Y44472813D01*
X16015032Y45126410D01*
X15631124Y45405336D01*
X15537758Y45498702D01*
X15456012Y45532562D01*
X15303500Y45643369D01*
X14500034Y46001095D01*
X14140243Y46077571D01*
X14020911Y46127000D01*
X13907698Y46127000D01*
X13639751Y46183954D01*
X12760249Y46183954D01*
X12492302Y46127000D01*
X12379089Y46127000D01*
X12259757Y46077571D01*
X11899966Y46001095D01*
X11096500Y45643369D01*
X10943988Y45532562D01*
X10862242Y45498702D01*
X10768876Y45405336D01*
X10384968Y45126410D01*
X9796466Y44472813D01*
X9741979Y44378439D01*
X9701298Y44337758D01*
X9657642Y44232363D01*
X9356714Y43711141D01*
X9084933Y42874684D01*
X9081417Y42841231D01*
X9073000Y42820911D01*
X9073000Y42761149D01*
X8993000Y42000000D01*
X427000Y42000000D01*
X427000Y68000000D01*
X8993000Y68000000D01*
X9073000Y67238851D01*
X9073000Y67179089D01*
X9081417Y67158769D01*
X9084933Y67125316D01*
X9356714Y66288859D01*
X9657642Y65767637D01*
X9701298Y65662242D01*
X9741979Y65621561D01*
X9796466Y65527187D01*
X10384968Y64873590D01*
X10768876Y64594664D01*
X10862242Y64501298D01*
X10943988Y64467438D01*
X11096500Y64356631D01*
X11899966Y63998905D01*
X12259757Y63922429D01*
X12379089Y63873000D01*
X12492302Y63873000D01*
X12760249Y63816046D01*
X13639751Y63816046D01*
X13907698Y63873000D01*
X14020911Y63873000D01*
X14140243Y63922429D01*
X14500034Y63998905D01*
X15303500Y64356631D01*
X15456012Y64467438D01*
X15537758Y64501298D01*
X15631124Y64594664D01*
X16015032Y64873590D01*
X16603534Y65527187D01*
X16658021Y65621561D01*
X16698702Y65662242D01*
X16742358Y65767637D01*
X17043286Y66288859D01*
X17315067Y67125316D01*
X17318583Y67158769D01*
X17327000Y67179089D01*
X17327000Y67238851D01*
X17407000Y68000000D01*
X32993000Y68000000D01*
X33073000Y67238851D01*
X33073000Y67179089D01*
X33081417Y67158769D01*
X33084933Y67125316D01*
X33356714Y66288859D01*
X33657642Y65767637D01*
X33701298Y65662242D01*
X33741979Y65621561D01*
X33796466Y65527187D01*
X34384968Y64873590D01*
X34768876Y64594664D01*
X34862242Y64501298D01*
X34943988Y64467438D01*
X35096500Y64356631D01*
X35899966Y63998905D01*
X36259757Y63922429D01*
X36379089Y63873000D01*
X36492302Y63873000D01*
X36760249Y63816046D01*
X37639751Y63816046D01*
X37907698Y63873000D01*
X38020911Y63873000D01*
X38140243Y63922429D01*
X38500034Y63998905D01*
X39303500Y64356631D01*
X39456012Y64467438D01*
X39537758Y64501298D01*
X39631124Y64594664D01*
X40015032Y64873590D01*
X40603534Y65527187D01*
X40658021Y65621561D01*
X40698702Y65662242D01*
X40742358Y65767637D01*
X41043286Y66288859D01*
X41315067Y67125316D01*
X41318583Y67158769D01*
X41327000Y67179089D01*
X41327000Y67238851D01*
X41407000Y68000000D01*
X41327000Y68761149D01*
X41327000Y68820911D01*
X41318583Y68841231D01*
X41315067Y68874684D01*
X41043286Y69711141D01*
X40742358Y70232363D01*
X40698702Y70337758D01*
X40658021Y70378439D01*
X40603534Y70472813D01*
X40015032Y71126410D01*
X39631124Y71405336D01*
X39537758Y71498702D01*
X39456012Y71532562D01*
X39303500Y71643369D01*
X38500034Y72001095D01*
X38140243Y72077571D01*
X38020911Y72127000D01*
X37907698Y72127000D01*
X37639751Y72183954D01*
X36760249Y72183954D01*
X36492302Y72127000D01*
X36379089Y72127000D01*
X36259757Y72077571D01*
X35899966Y72001095D01*
X35096500Y71643369D01*
X34943988Y71532562D01*
X34862242Y71498702D01*
X34768876Y71405336D01*
X34384968Y71126410D01*
X33796466Y70472813D01*
X33741979Y70378439D01*
X33701298Y70337758D01*
X33657642Y70232363D01*
X33356714Y69711141D01*
X33084933Y68874684D01*
X33081417Y68841231D01*
X33073000Y68820911D01*
X33073000Y68761149D01*
X32993000Y68000000D01*
X17407000Y68000000D01*
X17327000Y68761149D01*
X17327000Y68820911D01*
X17318583Y68841231D01*
X17315067Y68874684D01*
X17043286Y69711141D01*
X16742358Y70232363D01*
X16698702Y70337758D01*
X16658021Y70378439D01*
X16603534Y70472813D01*
X16015032Y71126410D01*
X15631124Y71405336D01*
X15537758Y71498702D01*
X15456012Y71532562D01*
X15303500Y71643369D01*
X14500034Y72001095D01*
X14140243Y72077571D01*
X14020911Y72127000D01*
X13907698Y72127000D01*
X13639751Y72183954D01*
X12760249Y72183954D01*
X12492302Y72127000D01*
X12379089Y72127000D01*
X12259757Y72077571D01*
X11899966Y72001095D01*
X11096500Y71643369D01*
X10943988Y71532562D01*
X10862242Y71498702D01*
X10768876Y71405336D01*
X10384968Y71126410D01*
X9796466Y70472813D01*
X9741979Y70378439D01*
X9701298Y70337758D01*
X9657642Y70232363D01*
X9356714Y69711141D01*
X9084933Y68874684D01*
X9081417Y68841231D01*
X9073000Y68820911D01*
X9073000Y68761149D01*
X8993000Y68000000D01*
X427000Y68000000D01*
X427000Y87948242D01*
X3493361Y87948242D01*
X3573000Y87317839D01*
X3573000Y87278545D01*
X3580142Y87261302D01*
X3596941Y87128328D01*
X3879597Y86351737D01*
X4095962Y86016005D01*
X4125178Y85945470D01*
X4170855Y85899793D01*
X4327281Y85657067D01*
X4917743Y85078844D01*
X5110211Y84960437D01*
X5145470Y84925178D01*
X5212973Y84897218D01*
X5621636Y84645806D01*
X6403976Y84379476D01*
X7225880Y84293090D01*
X7896023Y84373000D01*
X7921455Y84373000D01*
X7931736Y84377259D01*
X8046497Y84390943D01*
X8825042Y84668170D01*
X9183961Y84895948D01*
X9254530Y84925178D01*
X9297099Y84967747D01*
X9522820Y85110994D01*
X10105152Y85697405D01*
X10235737Y85906385D01*
X10274822Y85945470D01*
X10303652Y86015072D01*
X10543093Y86398258D01*
X10814879Y87178720D01*
X10825733Y87275486D01*
X10827000Y87278545D01*
X10827000Y87286782D01*
X10907000Y88000000D01*
X10905555Y88103506D01*
X10827000Y88662453D01*
X10827000Y88721455D01*
X10814449Y88751755D01*
X10790538Y88921893D01*
X10497066Y89694462D01*
X10302942Y89986643D01*
X10274822Y90054530D01*
X10224214Y90105138D01*
X10039727Y90382814D01*
X9441249Y90952736D01*
X9281219Y91048133D01*
X9254530Y91074822D01*
X9195273Y91099367D01*
X8731378Y91375904D01*
X7945396Y91631285D01*
X7122366Y91706187D01*
X6528889Y91627000D01*
X6478545Y91627000D01*
X6454621Y91617091D01*
X6303196Y91596886D01*
X5528597Y91308816D01*
X5215076Y91103654D01*
X5145470Y91074822D01*
X5097101Y91026453D01*
X4837069Y90856293D01*
X4262982Y90261808D01*
X4156295Y90085647D01*
X4125178Y90054530D01*
X4098621Y89990415D01*
X3834869Y89554909D01*
X3574007Y88770729D01*
X3493361Y87948242D01*
X427000Y87948242D01*
X427000Y105000000D01*
X20993000Y105000000D01*
X21073000Y104238851D01*
X21073000Y104179089D01*
X21081417Y104158769D01*
X21084933Y104125316D01*
X21356714Y103288859D01*
X21657642Y102767637D01*
X21701298Y102662242D01*
X21741979Y102621561D01*
X21796466Y102527187D01*
X22384968Y101873590D01*
X22768876Y101594664D01*
X22862242Y101501298D01*
X22943988Y101467438D01*
X23096500Y101356631D01*
X23899966Y100998905D01*
X24259757Y100922429D01*
X24379089Y100873000D01*
X24492302Y100873000D01*
X24760249Y100816046D01*
X25639751Y100816046D01*
X25907698Y100873000D01*
X26020911Y100873000D01*
X26140243Y100922429D01*
X26500034Y100998905D01*
X27303500Y101356631D01*
X27456012Y101467438D01*
X27537758Y101501298D01*
X27631124Y101594664D01*
X28015032Y101873590D01*
X28603534Y102527187D01*
X28658021Y102621561D01*
X28698702Y102662242D01*
X28742358Y102767637D01*
X29043286Y103288859D01*
X29315067Y104125316D01*
X29318583Y104158769D01*
X29327000Y104179089D01*
X29327000Y104238851D01*
X29407000Y105000000D01*
X29327000Y105761149D01*
X29327000Y105820911D01*
X29318583Y105841231D01*
X29315067Y105874684D01*
X29043286Y106711141D01*
X28742358Y107232363D01*
X28698702Y107337758D01*
X28658021Y107378439D01*
X28603534Y107472813D01*
X28015032Y108126410D01*
X27631124Y108405336D01*
X27537758Y108498702D01*
X27456012Y108532562D01*
X27303500Y108643369D01*
X26500034Y109001095D01*
X26140243Y109077571D01*
X26020911Y109127000D01*
X25907698Y109127000D01*
X25639751Y109183954D01*
X24760249Y109183954D01*
X24492302Y109127000D01*
X24379089Y109127000D01*
X24259757Y109077571D01*
X23899966Y109001095D01*
X23096500Y108643369D01*
X22943988Y108532562D01*
X22862242Y108498702D01*
X22768876Y108405336D01*
X22384968Y108126410D01*
X21796466Y107472813D01*
X21741979Y107378439D01*
X21701298Y107337758D01*
X21657642Y107232363D01*
X21356714Y106711141D01*
X21084933Y105874684D01*
X21081417Y105841231D01*
X21073000Y105820911D01*
X21073000Y105761149D01*
X20993000Y105000000D01*
X427000Y105000000D01*
X427000Y125568362D01*
X4568380Y125568362D01*
X4568380Y125431638D01*
X4646690Y124937212D01*
X4646690Y124937211D01*
X4688940Y124807179D01*
X4916203Y124361150D01*
X4996567Y124250538D01*
X5350539Y123896567D01*
X5461150Y123816203D01*
X5907179Y123588940D01*
X6037211Y123546690D01*
X6523174Y123469721D01*
X6556961Y123463000D01*
X8443039Y123463000D01*
X8476826Y123469721D01*
X8962789Y123546690D01*
X9092821Y123588940D01*
X9538850Y123816203D01*
X9649462Y123896567D01*
X10003433Y124250539D01*
X10083797Y124361150D01*
X10311060Y124807179D01*
X10353310Y124937211D01*
X10353310Y124937212D01*
X10431620Y125431638D01*
X10431620Y125568362D01*
X40168380Y125568362D01*
X40168380Y125431638D01*
X40246690Y124937212D01*
X40246690Y124937211D01*
X40288940Y124807179D01*
X40516203Y124361150D01*
X40596567Y124250538D01*
X40950539Y123896567D01*
X41061150Y123816203D01*
X41507179Y123588940D01*
X41637211Y123546690D01*
X42123174Y123469721D01*
X42156961Y123463000D01*
X44043039Y123463000D01*
X44076826Y123469721D01*
X44562789Y123546690D01*
X44692821Y123588940D01*
X45138850Y123816203D01*
X45249462Y123896567D01*
X45603433Y124250539D01*
X45683797Y124361150D01*
X45911060Y124807179D01*
X45953310Y124937211D01*
X45953310Y124937212D01*
X46031620Y125431638D01*
X46031620Y125568362D01*
X45953310Y126062789D01*
X45911060Y126192821D01*
X45683797Y126638850D01*
X45603433Y126749461D01*
X45603432Y126749462D01*
X45249462Y127103433D01*
X45138850Y127183797D01*
X44692821Y127411060D01*
X44562789Y127453310D01*
X44076826Y127530279D01*
X44043039Y127537000D01*
X42156961Y127537000D01*
X42123174Y127530279D01*
X41637211Y127453310D01*
X41507179Y127411060D01*
X41061150Y127183797D01*
X40950539Y127103433D01*
X40596567Y126749462D01*
X40537658Y126668380D01*
X40516203Y126638850D01*
X40288940Y126192821D01*
X40246690Y126062789D01*
X40168380Y125568362D01*
X10431620Y125568362D01*
X10353310Y126062789D01*
X10311060Y126192821D01*
X10083797Y126638850D01*
X10003433Y126749461D01*
X10003432Y126749462D01*
X9649462Y127103433D01*
X9538850Y127183797D01*
X9092821Y127411060D01*
X8962789Y127453310D01*
X8476826Y127530279D01*
X8443039Y127537000D01*
X6556961Y127537000D01*
X6523174Y127530279D01*
X6037211Y127453310D01*
X5907179Y127411060D01*
X5461150Y127183797D01*
X5350539Y127103433D01*
X4996567Y126749462D01*
X4937658Y126668380D01*
X4916203Y126638850D01*
X4688940Y126192821D01*
X4646690Y126062789D01*
X4568380Y125568362D01*
X427000Y125568362D01*
X426999Y128073000D01*
X49973001Y128073000D01*
X49973000Y427000D01*
M02*
